<svg width="26" height="26" viewBox="0 0 26 26" fill="none" xmlns="http://www.w3.org/2000/svg">
<g filter="url(#filter0_d_57_53)">
<path fill-rule="evenodd" clip-rule="evenodd" d="M19.5005 0H20.167V0.666504V1.08333H20.5838H21.2503V1.74984V2.16667H21.6672H22.3337V2.83317V3.50008H23.0002V5.66675H22.3333V7.00016H21.25V8.0835H20.1666V9.16683H19.0833V11.7036H16.9166V12.4168H15.8333V13.5002H14.75V14.5835H13.6666V15.6668H12.5833V16.7502H11.5V17.8335H10.4166V18.9168H8.41667H8.24998V20.0002H4.25V18.9168H4.08333H3V17.9998V16.7502V14.7498H4.08333L4.08333 14.5835L4.08333 12.5832H5.16667V11.4998H6.25V10.4165H7.33333V9.33317H8.41667V8.24984H9.5V7.1665H10.5833V6.08317H11.2498V3.91691H12.3332H12.75V3.9165H13.8333V2.83317H14.9167V1.74984H16V0.666504H17.3338V0H18.0003H19.5005Z" fill="black"/>
</g>
<path d="M17.3295 1.33154H19.4959V2.41475H17.3295V1.33154Z" fill="white"/>
<path d="M16.2463 3.49795V2.41475H17.3295V3.49795H16.2463Z" fill="white"/>
<path d="M15.1631 4.58115V3.49795H16.2463V4.58115H15.1631Z" fill="white"/>
<path d="M14.0799 5.66436V4.58115H15.1631V5.66436H14.0799Z" fill="white"/>
<path fill-rule="evenodd" clip-rule="evenodd" d="M14.0799 6.74756V5.66436H12.9967V4.58115H11.9135V5.66436H12.9967V6.74756H11.9135V7.83076H10.8303V8.91397H9.74707V9.99717H8.66387V11.0804H7.58066V12.1636H6.49746V14.33H5.41426V15.4132H4.33105V17.5796H5.41426V18.6628H7.58066V17.5796H8.66387V16.4964H10.8303V15.4132H11.9135V14.33H12.9967V13.2468H14.0799V12.1636H15.1631V11.0804H16.2463V9.99717H17.3295V11.0804H18.4127V9.99717H17.3295V8.91397H18.4127V7.83076H19.4959V6.74756H20.5791V5.66436H21.6623V3.49795H20.5791V2.41475H19.4959V3.49795H20.5791V5.66436H19.4959V6.74756H18.4127V7.83076H17.3295V8.91397H16.2463V7.83076H15.1631V6.74756H14.0799Z" fill="white"/>
<defs>
<filter id="filter0_d_57_53" x="0.333333" y="0" width="25.3333" height="25.3333" filterUnits="userSpaceOnUse" color-interpolation-filters="sRGB">
<feFlood flood-opacity="0" result="BackgroundImageFix"/>
<feColorMatrix in="SourceAlpha" type="matrix" values="0 0 0 0 0 0 0 0 0 0 0 0 0 0 0 0 0 0 127 0" result="hardAlpha"/>
<feOffset dy="2.66667"/>
<feGaussianBlur stdDeviation="1.33333"/>
<feComposite in2="hardAlpha" operator="out"/>
<feColorMatrix type="matrix" values="0 0 0 0 0 0 0 0 0 0 0 0 0 0 0 0 0 0 0.25 0"/>
<feBlend mode="normal" in2="BackgroundImageFix" result="effect1_dropShadow_57_53"/>
<feBlend mode="normal" in="SourceGraphic" in2="effect1_dropShadow_57_53" result="shape"/>
</filter>
</defs>
</svg>
