<svg width="42" height="41" viewBox="0 0 42 41" fill="none" xmlns="http://www.w3.org/2000/svg">
<g filter="url(#filter0_d_21_2145)">
<path fill-rule="evenodd" clip-rule="evenodd" d="M31.4 0H32.4667V1.06667V1.73333H33.1333H34.2V2.8V3.46667H34.8667H35.9333V4.53333V5.6H37V9.06667H35.9333V11.2H34.2V12.9333H32.4667V14.6667H30.7333V18.7255H27.2667V19.8667H25.5333V21.6H23.8V23.3333H22.0667V25.0667H20.3333V26.8H18.6V28.5333H16.8667V30.2667H13.6667H13.4V32H7.00003V30.2667H6.73333H5V28.8V26.8V23.6L6.06667 23.6L6.73333 23.6V23.3333V20.1333H7.8H8.46667V18.4H9.53333H10.2V16.6667H11.2667H11.9333V14.9333H13H13.6667V13.2H14.7333H15.4V11.4667H16.4667H17.1333V9.73333H18.2V6.26667H19.9333H20.6H21.6667H22.3333V4.53333H23.4H24.0667V2.8H25.1333H25.8V1.06667H26.8667H27.9333V0H29H31.4Z" fill="black"/>
</g>
<path d="M27.9274 2.12988H31.3936V3.86301H27.9274V2.12988Z" fill="#FF0000"/>
<path d="M26.1943 5.59613V3.86301H27.9274V5.59613H26.1943Z" fill="#FF0000"/>
<path d="M24.4611 7.32926V5.59613H26.1943V7.32926H24.4611Z" fill="#FF0000"/>
<path d="M22.728 9.06238V7.32926H24.4611V9.06238H22.728Z" fill="#FF0000"/>
<path fill-rule="evenodd" clip-rule="evenodd" d="M22.728 10.7955V9.06238H20.9949V7.32926H19.2618V9.06238H20.9949V10.7955H19.2618V12.5286H17.5286V14.2618H15.7955V15.9949H14.0624V17.728H12.3293V19.4611H10.5961V22.9274H8.86301V24.6605H7.12988V28.1268H8.86301V29.8599H12.3293V28.1268H14.0624V26.3936H17.5286V24.6605H19.2618V22.9274H20.9949V21.1943H22.728V19.4611H24.4611V17.728H26.1943V15.9949H27.9274V17.728H29.6605V15.9949H27.9274V14.2618H29.6605V12.5286H31.3936V10.7955H33.1268V9.06238H34.8599V5.59613H33.1268V3.86301H31.3936V5.59613H33.1268V9.06238H31.3936V10.7955H29.6605V12.5286H27.9274V14.2618H26.1943V12.5286H24.4611V10.7955H22.728ZM22.728 10.7955V12.5286H24.4611V14.2618H26.1943V15.9949H24.4611V17.728H22.728V19.4611H20.9949V21.1943H19.2618V22.9274H17.5286V24.6605H14.0624V22.9274H12.3293V19.4611H14.0624V17.728H15.7955V15.9949H17.5286V14.2618H19.2618V12.5286H20.9949V10.7955H22.728ZM12.3293 22.9274V24.6605H14.0624V26.3936H12.3293V28.1268H8.86301V24.6605H10.5961V22.9274H12.3293Z" fill="#FF0000"/>
<defs>
<filter id="filter0_d_21_2145" x="0.733333" y="0" width="40.5333" height="40.5333" filterUnits="userSpaceOnUse" color-interpolation-filters="sRGB">
<feFlood flood-opacity="0" result="BackgroundImageFix"/>
<feColorMatrix in="SourceAlpha" type="matrix" values="0 0 0 0 0 0 0 0 0 0 0 0 0 0 0 0 0 0 127 0" result="hardAlpha"/>
<feOffset dy="4.26667"/>
<feGaussianBlur stdDeviation="2.13333"/>
<feComposite in2="hardAlpha" operator="out"/>
<feColorMatrix type="matrix" values="0 0 0 0 0 0 0 0 0 0 0 0 0 0 0 0 0 0 0.25 0"/>
<feBlend mode="normal" in2="BackgroundImageFix" result="effect1_dropShadow_21_2145"/>
<feBlend mode="normal" in="SourceGraphic" in2="effect1_dropShadow_21_2145" result="shape"/>
</filter>
</defs>
</svg>
