<svg width="28" height="28" viewBox="0 0 28 28" fill="none" xmlns="http://www.w3.org/2000/svg">
<path d="M1.16634 11.654C1.16634 17.487 6.25775 21.6997 13.1761 21.6997C17.9979 21.6997 20.4238 19.4179 20.4238 16.6032C20.4238 13.7884 17.5275 11.3667 13.9547 11.3667C16.3246 11.3667 18.3873 12.744 18.3873 14.0991C18.3873 15.5721 16.4705 16.6326 14.0446 16.6326C10.4718 16.6326 7.57552 14.2109 7.57552 11.3962C7.57552 8.58146 10.0014 6.29968 14.8233 6.29968C21.7416 6.29968 26.833 10.5124 26.833 16.3454L26.833 12.2431C26.833 5.99771 22.2507 1.16634 13.9547 1.16634C6.61714 1.16634 1.16634 5.26123 1.16634 11.654Z" fill="url(#paint0_angular_2337_23061)"/>
<path d="M26.833 16.3454C26.833 10.5124 21.7416 6.29968 14.8233 6.29968C10.0014 6.29968 7.57552 8.58146 7.57552 11.3962C7.57552 14.2109 10.4718 16.6326 14.0446 16.6326C11.3791 16.6326 9.61208 15.2554 9.61208 13.9002C9.61208 12.4273 11.5288 11.3667 13.9547 11.3667C17.5275 11.3667 20.4238 13.7884 20.4238 16.6032C20.4238 19.4179 17.9979 21.6997 13.1761 21.6997C6.25775 21.6997 1.16634 17.487 1.16634 11.654L1.16634 15.7562C1.16634 22.0016 5.74861 26.833 14.0446 26.833C21.3822 26.833 26.833 22.7381 26.833 16.3454Z" fill="url(#paint1_angular_2337_23061)"/>
<path d="M14 0C6.03921 0 0 4.94115 0 11.3464V16.1961C0 23.3334 5.49019 28 14 28C21.9608 28 28 23.0589 28 16.6536V11.8039C28 4.66664 22.5098 0 14 0ZM14 1.83007C20.8628 1.83007 25.4379 5.21566 26.0785 10.4313C23.8824 7.22873 19.8562 5.2157 15.0066 5.2157C10.1569 5.2157 6.49671 7.86925 6.49671 11.3464C6.49671 14.549 9.33336 17.1111 13.1765 17.4771C13.268 17.4771 13.268 17.4771 13.3595 17.4771C13.5425 17.4771 13.7255 17.4771 14 17.4771C16.5621 17.4771 18.5752 16.3791 19.1242 14.732C19.4902 15.281 19.6732 15.9216 19.6732 16.5621C19.6732 19.0327 16.8366 20.8627 12.9935 20.8627C6.49675 20.8627 1.83007 16.8366 1.83007 11.2549C1.73856 5.94771 7.04575 1.83007 14 1.83007ZM14.4575 12.353C16.1961 12.4445 17.3856 13.268 17.3856 14.0915C17.3856 14.915 15.9216 15.8301 13.9085 15.8301C13.7255 15.8301 13.634 15.8301 13.451 15.8301C11.6209 15.7386 10.4314 14.8235 10.4314 14.0915C10.4314 13.268 11.8954 12.353 13.9085 12.353C14.0915 12.353 14.2745 12.353 14.4575 12.353ZM13.9085 26.2615C7.04577 26.2615 2.47059 22.8758 1.83007 17.5687C4.02615 20.7713 8.05227 22.7843 12.9019 22.7843C17.7516 22.7843 21.4118 20.1307 21.4118 16.6536C21.4118 13.5425 18.7582 11.0719 15.0981 10.6144C14.732 10.5229 14.366 10.5229 14 10.5229C11.4379 10.5229 9.42486 11.6209 8.87584 13.268C8.50982 12.719 8.32678 12.0784 8.32678 11.4379C8.32678 8.96733 11.1634 7.13725 15.0066 7.13725C21.5033 7.13725 26.1699 11.1634 26.1699 16.7451C26.1699 22.1438 20.8628 26.2615 13.9085 26.2615Z" fill="#FF0000"/>
<defs>
<radialGradient id="paint0_angular_2337_23061" cx="0" cy="0" r="1" gradientUnits="userSpaceOnUse" gradientTransform="translate(13.9997 13.9997) rotate(-7.85332) scale(17.89 22.0896)">
<stop stop-color="#FF0000" stop-opacity="0"/>
<stop offset="1" stop-color="#FF0000"/>
</radialGradient>
<radialGradient id="paint1_angular_2337_23061" cx="0" cy="0" r="1" gradientUnits="userSpaceOnUse" gradientTransform="translate(10.4063 16.5663) rotate(-146.31) scale(12.9559 15.9973)">
<stop stop-color="#FF0000" stop-opacity="0"/>
<stop offset="1" stop-color="#FF0000"/>
</radialGradient>
</defs>
</svg>
