<svg width="26" height="26" viewBox="0 0 26 26" fill="none" xmlns="http://www.w3.org/2000/svg">
<g filter="url(#filter0_d_57_66)">
<path fill-rule="evenodd" clip-rule="evenodd" d="M19.4999 0H20.1665V0.66661V1.08333H20.5832H21.2498V1.74994V2.16667H21.6666H22.3332V2.83328V3.49989H22.9998V5.66655H22.3332V6.99977H21.2498V8.08311H20.1665V9.16644H19.0832V10.2498H17.9998V11.3331H16.9165V12.4164H15.8332V13.4998H14.7498V14.5831H13.6665V15.6664H12.5832V16.7498H11.4998V17.8331H10.4165V18.9164H8.41667H8.24983V19.9998H6.25H4.99983H3V17.9999V16.7498V14.7499H3.66661H4.08333V14.5831V12.5833H4.74994H5.16667V11.4999H5.83328H6.25V10.4166H6.91661H7.33333V9.33328H7.99994H8.41667V8.24994H9.08328H9.5V7.16661H10.1666H10.5833V6.08328H11.2499H11.6667V4.99994H12.3333H12.75V3.91661H13.4166H13.8333V2.83328H14.4999H14.9167V1.74994H15.5833H16V0.66661H16.6666H17.3332V0H17.9998H19.4999Z" fill="black"/>
</g>
<g filter="url(#filter1_d_57_66)">
<path d="M17.333 1.33301H19.4997V2.41634H17.333V1.33301Z" fill="white"/>
<path d="M16.2497 3.49967V2.41634H17.333V3.49967H16.2497Z" fill="white"/>
<path d="M8.66634 14.333H9.74967V15.4163H9.20801H8.66634V14.333Z" fill="white"/>
<path d="M8.66634 14.333V13.2497H7.58301V14.333H8.66634Z" fill="white"/>
<path fill-rule="evenodd" clip-rule="evenodd" d="M16.2497 4.58301V3.49967H15.1663V4.58301H14.083V5.66634H12.9997V6.74967H11.9163V7.83301H10.833V8.91634H9.74967V9.99967H8.66634V11.083H7.58301V12.1663H6.49967V13.2497H5.41634V15.4163H4.33301V18.6663H7.58301V17.583H9.74967V16.4997H10.833V15.4163H11.9163V14.333H12.9997V13.2497H14.083V12.1663H15.1663V11.083H16.2497V9.99967H17.333V8.91634H18.4163V7.83301H19.4997V6.74967H20.583V5.66634H21.6663V3.49967H20.583V2.41634H19.4997V3.49967H20.583V5.66634H19.4997V6.74967H18.4163V5.66634H17.333V4.58301H16.2497ZM16.2497 4.58301H15.1663V5.66634H14.083V6.74967H12.9997V7.83301H11.9163V8.91634H10.833V9.99967H9.74967V11.083H8.66634V12.1663H7.58301V13.2497H6.49967V15.4163H5.41634V17.583H7.58301V16.4997H9.74967V15.4163H10.833V14.333H11.9163V13.2497H12.9997V12.1663H14.083V11.083H15.1663V9.99967H16.2497V8.91634H17.333V7.83301H18.4163V6.74967H17.333V5.66634H16.2497V4.58301Z" fill="white"/>
<path d="M6.49967 14.333V13.2497H7.58301V14.333H8.66634V15.4163H9.74967V16.4997H7.58301V17.583H5.41634V15.4163H6.49967V14.333Z" fill="black"/>
<path d="M15.1663 5.66634V4.58301H16.2497V5.66634H17.333V6.74967H18.4163V7.83301H17.333V8.91634H16.2497V9.99967H15.1663V11.083H14.083V12.1663H12.9997V13.2497H11.9163V14.333H10.833V15.4163H9.74967V14.3662L8.66634 14.333V13.2497H7.58301V12.1663H8.66634V11.083H9.74967V9.99967H10.833V8.91634H11.9163V7.83301H12.9997V6.74967H14.083V5.66634H15.1663Z" fill="white"/>
<path d="M17.333 3.49967V2.41634H18.4163H19.4997V3.49967H20.583V4.58301V5.66634H19.4997V6.74967H18.4163V5.66634H17.333V4.58301H16.2497V3.49967H17.333Z" fill="black"/>
</g>
<defs>
<filter id="filter0_d_57_66" x="0.333333" y="0" width="25.3333" height="25.3333" filterUnits="userSpaceOnUse" color-interpolation-filters="sRGB">
<feFlood flood-opacity="0" result="BackgroundImageFix"/>
<feColorMatrix in="SourceAlpha" type="matrix" values="0 0 0 0 0 0 0 0 0 0 0 0 0 0 0 0 0 0 127 0" result="hardAlpha"/>
<feOffset dy="2.66667"/>
<feGaussianBlur stdDeviation="1.33333"/>
<feComposite in2="hardAlpha" operator="out"/>
<feColorMatrix type="matrix" values="0 0 0 0 0 0 0 0 0 0 0 0 0 0 0 0 0 0 0.25 0"/>
<feBlend mode="normal" in2="BackgroundImageFix" result="effect1_dropShadow_57_66"/>
<feBlend mode="normal" in="SourceGraphic" in2="effect1_dropShadow_57_66" result="shape"/>
</filter>
<filter id="filter1_d_57_66" x="1.66634" y="1.33301" width="22.6663" height="22.6668" filterUnits="userSpaceOnUse" color-interpolation-filters="sRGB">
<feFlood flood-opacity="0" result="BackgroundImageFix"/>
<feColorMatrix in="SourceAlpha" type="matrix" values="0 0 0 0 0 0 0 0 0 0 0 0 0 0 0 0 0 0 127 0" result="hardAlpha"/>
<feOffset dy="2.66667"/>
<feGaussianBlur stdDeviation="1.33333"/>
<feComposite in2="hardAlpha" operator="out"/>
<feColorMatrix type="matrix" values="0 0 0 0 0 0 0 0 0 0 0 0 0 0 0 0 0 0 0.25 0"/>
<feBlend mode="normal" in2="BackgroundImageFix" result="effect1_dropShadow_57_66"/>
<feBlend mode="normal" in="SourceGraphic" in2="effect1_dropShadow_57_66" result="shape"/>
</filter>
</defs>
</svg>
