<svg width="42" height="41" viewBox="0 0 42 41" fill="none" xmlns="http://www.w3.org/2000/svg">
<g filter="url(#filter0_d_20_1963)">
<path fill-rule="evenodd" clip-rule="evenodd" d="M31.4 0H32.4667V1.06667V1.73333H33.1333H34.2V2.8V3.46667H34.8667H35.9333V4.53333V5.6H37V9.06667H35.9333V11.2H34.2V12.9333H32.4667V14.6667H30.7333V16.4H29V18.1333H27.2667V19.8667H25.5333V21.6H23.8V23.3333H22.0667V25.0667H20.3333V26.8H18.6V28.5333H16.8667V30.2667H13.6667H13.4V32H10.2H8.2H5V28.8V26.8V23.6H6.06667H6.73333V23.3333V20.1333H7.8H8.46667V18.4H9.53333H10.2V16.6667H11.2667H11.9333V14.9333H13H13.6667V13.2H14.7333H15.4V11.4667H16.4667H17.1333V9.73333H18.2H18.8667V8H19.9333H20.6V6.26667H21.6667H22.3333V4.53333H23.4H24.0667V2.8H25.1333H25.8V1.06667H26.8667H27.9333V0H29H31.4Z" fill="black"/>
</g>
<g filter="url(#filter1_d_20_1963)">
<path d="M27.9333 2.13379H31.4V3.86712H27.9333V2.13379Z" fill="#FF0000"/>
<path d="M26.2 5.60046V3.86712H27.9333V5.60046H26.2Z" fill="#FF0000"/>
<path d="M14.0666 22.9338H15.8V24.6671H14.9333H14.0666V22.9338Z" fill="#FF0000"/>
<path d="M14.0666 22.9338V21.2005H12.3333V22.9338H14.0666Z" fill="#FF0000"/>
<path fill-rule="evenodd" clip-rule="evenodd" d="M26.2 7.33379V5.60046H24.4666V7.33379H22.7333V9.06712H21V10.8005H19.2666V12.5338H17.5333V14.2671H15.8V16.0005H14.0666V17.7338H12.3333V19.4671H10.6V21.2005H8.86663V24.6671H7.1333V29.8671H12.3333V28.1338H15.8V26.4005H17.5333V24.6671H19.2666V22.9338H21V21.2005H22.7333V19.4671H24.4666V17.7338H26.2V16.0005H27.9333V14.2671H29.6666V12.5338H31.4V10.8005H33.1333V9.06712H34.8666V5.60046H33.1333V3.86712H31.4V5.60046H33.1333V9.06712H31.4V10.8005H29.6666V9.06712H27.9333V7.33379H26.2ZM26.2 7.33379H24.4666V9.06712H22.7333V10.8005H21V12.5338H19.2666V14.2671H17.5333V16.0005H15.8V17.7338H14.0666V19.4671H12.3333V21.2005H10.6V24.6671H8.86663V28.1338H12.3333V26.4005H15.8V24.6671H17.5333V22.9338H19.2666V21.2005H21V19.4671H22.7333V17.7338H24.4666V16.0005H26.2V14.2671H27.9333V12.5338H29.6666V10.8005H27.9333V9.06712H26.2V7.33379Z" fill="#FF0000"/>
<path d="M10.6 22.9338V21.2005H12.3333V22.9338H14.0666V24.6671H15.8V26.4005H12.3333V28.1338H8.86663V24.6671H10.6V22.9338Z" fill="black"/>
<path d="M24.4666 9.06712V7.33379H26.2V9.06712H27.9333V10.8005H29.6666V12.5338H27.9333V14.2671H26.2V16.0005H24.4666V17.7338H22.7333V19.4671H21V21.2005H19.2666V22.9338H17.5333V24.6671H15.8V22.9869L14.0666 22.9338V21.2005H12.3333V19.4671H14.0666V17.7338H15.8V16.0005H17.5333V14.2671H19.2666V12.5338H21V10.8005H22.7333V9.06712H24.4666Z" fill="black"/>
<path d="M27.9333 5.60046V3.86712H29.6666H31.4V5.60046H33.1333V7.33379V9.06712H31.4V10.8005H29.6666V9.06712H27.9333V7.33379H26.2V5.60046H27.9333Z" fill="black"/>
</g>
<defs>
<filter id="filter0_d_20_1963" x="0.733333" y="0" width="40.5333" height="40.5333" filterUnits="userSpaceOnUse" color-interpolation-filters="sRGB">
<feFlood flood-opacity="0" result="BackgroundImageFix"/>
<feColorMatrix in="SourceAlpha" type="matrix" values="0 0 0 0 0 0 0 0 0 0 0 0 0 0 0 0 0 0 127 0" result="hardAlpha"/>
<feOffset dy="4.26667"/>
<feGaussianBlur stdDeviation="2.13333"/>
<feComposite in2="hardAlpha" operator="out"/>
<feColorMatrix type="matrix" values="0 0 0 0 0 0 0 0 0 0 0 0 0 0 0 0 0 0 0.25 0"/>
<feBlend mode="normal" in2="BackgroundImageFix" result="effect1_dropShadow_20_1963"/>
<feBlend mode="normal" in="SourceGraphic" in2="effect1_dropShadow_20_1963" result="shape"/>
</filter>
<filter id="filter1_d_20_1963" x="2.86663" y="2.13379" width="36.2667" height="36.2667" filterUnits="userSpaceOnUse" color-interpolation-filters="sRGB">
<feFlood flood-opacity="0" result="BackgroundImageFix"/>
<feColorMatrix in="SourceAlpha" type="matrix" values="0 0 0 0 0 0 0 0 0 0 0 0 0 0 0 0 0 0 127 0" result="hardAlpha"/>
<feOffset dy="4.26667"/>
<feGaussianBlur stdDeviation="2.13333"/>
<feComposite in2="hardAlpha" operator="out"/>
<feColorMatrix type="matrix" values="0 0 0 0 0 0 0 0 0 0 0 0 0 0 0 0 0 0 0.25 0"/>
<feBlend mode="normal" in2="BackgroundImageFix" result="effect1_dropShadow_20_1963"/>
<feBlend mode="normal" in="SourceGraphic" in2="effect1_dropShadow_20_1963" result="shape"/>
</filter>
</defs>
</svg>
