<svg width="1831" height="791" viewBox="0 0 1831 791" fill="none" xmlns="http://www.w3.org/2000/svg">
<g clip-path="url(#clip0_543_216)">
<rect width="1831" height="791" fill="black"/>
<mask id="mask0_543_216" style="mask-type:alpha" maskUnits="userSpaceOnUse" x="-242" y="-28" width="9820" height="1047">
<path d="M311.226 813.778C193.54 813.778 95.9745 790.241 18.5295 743.166C-58.1563 695.333 -113.583 631.554 -147.75 551.831L107.363 531.331C137.734 594.35 205.688 625.86 311.226 625.86C394.745 625.86 436.505 605.36 436.505 564.359C436.505 526.396 399.681 506.276 326.032 503.998L123.308 496.026C7.14048 491.47 -82.8324 466.035 -146.611 419.719C-209.63 373.404 -241.139 310.385 -241.139 230.662C-241.139 150.94 -206.972 87.9205 -138.638 41.6053C-69.5453 -4.70983 23.8443 -27.8674 141.53 -27.8674C251.624 -27.8674 342.356 -5.46908 413.727 39.3276C485.857 84.1242 534.45 146.004 559.506 224.968L314.643 243.19C290.346 187.005 233.022 158.912 142.669 158.912C60.6687 158.912 19.6683 178.273 19.6683 216.996C19.6683 251.922 62.1872 270.903 147.225 273.94L330.587 280.774C449.033 285.329 540.145 311.144 603.923 358.219C668.46 404.534 700.729 467.553 700.729 547.276C700.729 629.277 665.803 694.194 595.951 742.027C526.098 789.861 431.19 813.778 311.226 813.778ZM1155.11 813.778C1033.63 813.778 933.029 780.37 853.306 713.555C774.342 646.74 734.86 565.119 734.86 468.692C734.86 384.414 765.99 316.459 828.25 264.829C890.51 213.199 973.27 187.384 1076.53 187.384C1194.98 187.384 1290.26 221.172 1362.39 288.746C1435.28 355.561 1474.76 444.395 1480.84 555.248H1009.33C1038.19 612.193 1085.26 640.666 1150.56 640.666C1206.74 640.666 1239.01 621.304 1247.36 582.582L1481.98 590.554C1475.9 663.443 1442.12 718.87 1380.62 756.833C1319.11 794.796 1243.95 813.778 1155.11 813.778ZM968.334 400.358H1196.11C1179.41 357.08 1140.69 335.441 1079.95 335.441C1016.17 335.441 978.964 357.08 968.334 400.358ZM1807.31 1018.78L1376.81 210.162H1638.75L1668.36 264.829C1703.29 221.551 1772.38 199.912 1875.64 199.912C1961.44 199.912 2036.23 218.514 2100.01 255.718C2164.54 292.163 2213.14 340.756 2245.79 401.497C2267.8 443.257 2280.71 487.294 2284.51 533.609C2288.3 579.924 2283.37 622.823 2269.7 662.305C2256.04 701.786 2230.6 734.435 2193.4 760.25C2156.19 785.306 2109.88 797.833 2054.45 797.833C2011.17 797.833 1968.65 788.343 1926.89 769.361L2060.15 1018.78H1807.31ZM1769.73 480.081C1769.73 518.803 1784.15 551.831 1813 579.165C1841.86 606.499 1877.92 620.165 1921.2 620.165C1953.85 620.165 1979.66 611.434 1998.65 593.971C2017.63 575.748 2027.12 552.211 2027.12 523.359C2027.12 484.637 2012.31 451.608 1982.7 424.275C1953.85 396.941 1917.78 383.275 1874.51 383.275C1842.62 383.275 1817.18 392.386 1798.2 410.608C1779.22 428.071 1769.73 451.229 1769.73 480.081ZM2654.56 808.083C2561.93 808.083 2488.66 791 2434.75 756.833C2380.85 721.907 2353.89 674.453 2353.89 614.471C2353.89 571.193 2369.84 534.368 2401.73 503.998C2433.62 473.627 2478.79 452.747 2537.25 441.358L2642.03 420.858C2675.44 414.025 2692.14 403.016 2692.14 387.83C2692.14 377.96 2685.69 369.988 2672.78 363.913C2660.64 357.08 2643.17 353.663 2620.39 353.663C2591.54 353.663 2568.38 359.358 2550.92 370.747C2534.22 382.136 2526.63 397.701 2528.14 417.442L2281 419.719C2277.21 351.386 2304.92 295.58 2364.14 252.301C2424.12 209.023 2505.37 187.384 2607.87 187.384C2694.42 187.384 2765.03 204.468 2819.7 238.635C2875.13 272.042 2920.68 323.293 2956.37 392.386L3094.18 654.332L3170.48 791H2915.37L2892.59 747.722C2827.29 787.963 2747.95 808.083 2654.56 808.083ZM2607.87 606.499C2607.87 617.888 2613.56 627.378 2624.95 634.971C2636.34 641.804 2652.28 645.221 2672.78 645.221C2711.51 645.221 2742.64 634.591 2766.17 613.332C2790.47 592.073 2795.78 568.535 2782.12 542.72L2777.56 533.609L2655.7 567.776C2623.81 576.887 2607.87 589.795 2607.87 606.499ZM3218.78 791L2910.14 210.162H3167.53L3198.28 268.246C3225.61 224.968 3281.42 203.329 3365.7 203.329H3416.95L3519.45 412.886L3397.59 415.164C3359.62 415.923 3333.81 425.034 3320.14 442.497C3306.47 459.96 3307.23 482.738 3322.42 510.831L3471.61 791H3218.78ZM3901.92 808.083C3809.29 808.083 3736.02 791 3682.11 756.833C3628.21 721.907 3601.25 674.453 3601.25 614.471C3601.25 571.193 3617.2 534.368 3649.09 503.998C3680.97 473.627 3726.15 452.747 3784.61 441.358L3889.39 420.858C3922.8 414.025 3939.5 403.016 3939.5 387.83C3939.5 377.96 3933.05 369.988 3920.14 363.913C3908 357.08 3890.53 353.663 3867.75 353.663C3838.9 353.663 3815.74 359.358 3798.28 370.747C3781.58 382.136 3773.98 397.701 3775.5 417.442L3528.36 419.719C3524.57 351.386 3552.28 295.58 3611.5 252.301C3671.48 209.023 3752.73 187.384 3855.23 187.384C3941.78 187.384 4012.39 204.468 4067.06 238.635C4122.49 272.042 4168.04 323.293 4203.73 392.386L4341.54 654.332L4417.84 791H4162.73L4139.95 747.722C4074.65 787.963 3995.31 808.083 3901.92 808.083ZM3855.23 606.499C3855.23 617.888 3860.92 627.378 3872.31 634.971C3883.7 641.804 3899.64 645.221 3920.14 645.221C3958.87 645.221 3990 634.591 4013.53 613.332C4037.83 592.073 4043.14 568.535 4029.48 542.72L4024.92 533.609L3903.06 567.776C3871.17 576.887 3855.23 589.795 3855.23 606.499ZM4775.92 791C4698.47 791 4637.73 778.472 4593.69 753.416C4550.42 727.601 4512.45 683.184 4479.8 620.165L4369.33 403.775H4244.05L4140.41 210.162H4275.94L4199.64 62.1055H4450.19L4526.5 210.162H4732.64L4836.28 403.775H4672.28C4658.61 403.775 4648.74 407.571 4642.67 415.164C4637.35 421.997 4637.73 432.247 4643.81 445.914L4685.95 530.192C4701.13 560.563 4717.45 580.684 4734.92 590.554C4753.14 599.665 4780.09 604.221 4815.78 604.221H4863.61L4962.7 791H4775.92ZM5284.13 811.5C5161.89 811.5 5062.05 779.231 4984.6 714.694C4907.92 650.156 4869.57 566.637 4869.57 464.136C4869.57 382.895 4900.32 316.839 4961.83 265.968C5023.33 215.097 5102.67 189.662 5199.85 189.662C5322.1 189.662 5421.56 221.931 5498.25 286.468C5575.69 351.006 5614.41 434.145 5614.41 535.887C5614.41 617.128 5583.66 683.564 5522.16 735.194C5460.66 786.065 5381.32 811.5 5284.13 811.5ZM5117.85 481.22C5117.85 522.979 5131.14 557.146 5157.72 583.721C5184.29 609.536 5218.84 622.443 5261.36 622.443C5293.24 622.443 5318.68 613.332 5337.66 595.11C5356.64 576.128 5366.13 551.072 5366.13 519.942C5366.13 478.183 5352.85 444.395 5326.27 418.58C5299.7 392.006 5265.15 378.719 5222.63 378.719C5190.74 378.719 5165.31 388.21 5146.33 407.192C5127.34 425.414 5117.85 450.09 5117.85 481.22ZM5834.73 791L5526.09 210.162H5783.48L5814.23 268.246C5841.56 224.968 5897.37 203.329 5981.65 203.329H6032.9L6135.4 412.886L6013.53 415.164C5975.57 415.923 5949.76 425.034 5936.09 442.497C5922.42 459.96 5923.18 482.738 5938.37 510.831L6087.56 791H5834.73ZM6378.33 791L6069.69 210.162H6322.52L6348.72 259.135C6413.26 215.097 6487.28 193.079 6570.8 193.079C6642.17 193.079 6699.88 207.505 6743.92 236.357C6787.95 264.45 6828.95 314.561 6866.92 386.691L7082.17 791H6829.33L6653.94 461.859C6639.52 434.525 6624.33 415.164 6608.39 403.775C6592.44 392.386 6572.32 386.691 6548.03 386.691C6515.38 386.691 6490.7 395.423 6474 412.886C6457.29 429.59 6456.91 455.405 6472.86 490.331L6481.97 510.831L6631.16 791H6378.33ZM7343.97 808.083C7251.34 808.083 7178.07 791 7124.16 756.833C7070.26 721.907 7043.3 674.453 7043.3 614.471C7043.3 571.193 7059.25 534.368 7091.14 503.998C7123.03 473.627 7168.2 452.747 7226.67 441.358L7331.44 420.858C7364.85 414.025 7381.56 403.016 7381.56 387.83C7381.56 377.96 7375.1 369.988 7362.19 363.913C7350.05 357.08 7332.58 353.663 7309.81 353.663C7280.95 353.663 7257.8 359.358 7240.33 370.747C7223.63 382.136 7216.04 397.701 7217.55 417.442L6970.41 419.719C6966.62 351.386 6994.33 295.58 7053.55 252.301C7113.54 209.023 7194.78 187.384 7297.28 187.384C7383.83 187.384 7454.45 204.468 7509.11 238.635C7564.54 272.042 7610.09 323.293 7645.78 392.386L7783.59 654.332L7859.89 791H7604.78L7582 747.722C7516.7 787.963 7437.36 808.083 7343.97 808.083ZM7297.28 606.499C7297.28 617.888 7302.97 627.378 7314.36 634.971C7325.75 641.804 7341.69 645.221 7362.19 645.221C7400.92 645.221 7432.05 634.591 7455.58 613.332C7479.88 592.073 7485.2 568.535 7471.53 542.72L7466.97 533.609L7345.11 567.776C7313.22 576.887 7297.28 589.795 7297.28 606.499ZM8217.97 791C8140.52 791 8079.78 778.472 8035.75 753.416C7992.47 727.601 7954.5 683.184 7921.86 620.165L7811.38 403.775H7686.1L7582.46 210.162H7717.99L7641.69 62.1055H7892.24L7968.55 210.162H8174.69L8278.33 403.775H8114.33C8100.66 403.775 8090.79 407.571 8084.72 415.164C8079.4 421.997 8079.78 432.247 8085.86 445.914L8128 530.192C8143.18 560.563 8159.51 580.684 8176.97 590.554C8195.19 599.665 8222.14 604.221 8257.83 604.221H8305.66L8404.75 791H8217.97ZM8726.18 811.5C8603.94 811.5 8504.1 779.231 8426.65 714.694C8349.97 650.156 8311.63 566.637 8311.63 464.136C8311.63 382.895 8342.38 316.839 8403.88 265.968C8465.38 215.097 8544.72 189.662 8641.91 189.662C8764.15 189.662 8863.61 221.931 8940.3 286.468C9017.74 351.006 9056.46 434.145 9056.46 535.887C9056.46 617.128 9025.71 683.564 8964.21 735.194C8902.71 786.065 8823.37 811.5 8726.18 811.5ZM8559.91 481.22C8559.91 522.979 8573.19 557.146 8599.77 583.721C8626.34 609.536 8660.89 622.443 8703.41 622.443C8735.3 622.443 8760.73 613.332 8779.71 595.11C8798.69 576.128 8808.19 551.072 8808.19 519.942C8808.19 478.183 8794.9 444.395 8768.32 418.58C8741.75 392.006 8707.2 378.719 8664.68 378.719C8632.79 378.719 8607.36 388.21 8588.38 407.192C8569.4 425.414 8559.91 450.09 8559.91 481.22ZM9276.78 791L8968.14 210.162H9225.53L9256.28 268.246C9283.61 224.968 9339.42 203.329 9423.7 203.329H9474.95L9577.45 412.886L9455.59 415.164C9417.62 415.923 9391.81 425.034 9378.14 442.497C9364.47 459.96 9365.23 482.738 9380.42 510.831L9529.61 791H9276.78Z" fill="black"/>
</mask>
<g mask="url(#mask0_543_216)">
<rect x="2223" y="1386" width="3161" height="2682" transform="rotate(180 2223 1386)" fill="url(#paint0_linear_543_216)"/>
</g>
</g>
<defs>
<linearGradient id="paint0_linear_543_216" x1="2879" y1="2352" x2="4771.74" y2="3030.19" gradientUnits="userSpaceOnUse">
<stop stop-color="#FF0101"/>
<stop offset="0.847391" stop-color="#FF0000" stop-opacity="0"/>
</linearGradient>
<clipPath id="clip0_543_216">
<rect width="1831" height="791" fill="white"/>
</clipPath>
</defs>
</svg>
