<svg width="1072" height="280" viewBox="0 0 1072 280" fill="none" xmlns="http://www.w3.org/2000/svg" id="godaddy-mark" class="godaddy-mark" >
<path d="M199.66 10.0509C175.655 -4.9447 144.041 -1.40947 115.854 16.3444C87.7503 -1.39652 56.1234 -4.9447 32.1446 10.0509C-5.79223 33.7939 -10.3953 94.9418 21.8458 146.623C45.6177 184.741 82.7981 207.066 115.899 206.651C148.994 207.066 186.174 184.741 209.946 146.63C242.174 94.9353 237.597 33.7939 199.66 10.0444V10.0509ZM39.3014 135.726C32.6464 125.164 27.6266 113.653 24.4124 101.585C21.5546 91.1132 20.4621 80.2372 21.1799 69.4052C22.6216 50.324 30.3796 35.445 43.0382 27.5134C55.6902 19.5882 72.4153 19.1285 90.2264 26.199C92.9353 27.2932 95.5859 28.517 98.1655 29.8767C88.2659 38.9089 79.6594 49.2671 72.5898 60.6578C53.0072 92.0411 47.0271 126.973 53.8606 154.808C48.4176 148.92 43.5408 142.531 39.2949 135.726H39.3014ZM207.412 101.585C204.194 113.649 199.177 125.157 192.529 135.72C188.283 142.54 183.404 148.944 177.957 154.846C184.073 129.886 179.916 99.3187 164.936 70.6419C164.699 70.1686 164.364 69.7506 163.955 69.4152C163.545 69.0798 163.07 68.8345 162.559 68.6953C162.049 68.556 161.515 68.526 160.992 68.607C160.469 68.688 159.97 68.8784 159.525 69.1657L112.815 98.3993C112.39 98.665 112.022 99.0119 111.731 99.4203C111.44 99.8286 111.232 100.29 111.119 100.779C111.006 101.268 110.99 101.774 111.073 102.269C111.155 102.764 111.334 103.238 111.6 103.663L118.453 114.638C118.718 115.065 119.065 115.434 119.473 115.726C119.881 116.019 120.343 116.227 120.832 116.34C121.321 116.453 121.827 116.469 122.322 116.385C122.817 116.302 123.29 116.122 123.715 115.855L153.991 96.9166C154.967 99.8561 155.95 102.75 156.68 105.742C159.538 116.211 160.631 127.089 159.913 137.921C158.471 157.022 150.707 171.895 138.061 179.82C131.534 183.818 124.054 185.987 116.403 186.1H115.434C107.783 185.99 100.302 183.821 93.7757 179.82C81.1172 171.895 73.3527 157.022 71.9174 137.915C71.2063 127.089 72.2924 116.211 75.15 105.742C81.7147 81.5229 95.2769 59.7861 114.134 43.2601C122.268 36.1032 131.534 30.3507 141.552 26.2379C159.318 19.1674 176.076 19.6336 188.734 27.5522C201.393 35.4774 209.144 50.3564 210.586 69.4441C211.316 80.2595 210.245 91.1212 207.418 101.585H207.412Z" fill="#111111" data-object="mark" data-color="black" data-sequence="0"/>
<path d="M199.66 216.409C175.655 201.413 144.041 204.949 115.854 222.703C87.7503 204.962 56.1234 201.413 32.1446 216.409C-5.79223 240.152 -10.3953 301.3 21.8458 352.982C45.6177 391.099 82.7981 413.424 115.899 413.009C148.994 413.424 186.174 391.099 209.946 352.988C242.174 301.293 237.597 240.152 199.66 216.403V216.409ZM39.3014 342.085C32.6464 331.522 27.6266 320.011 24.4124 307.943C21.5546 297.471 20.4621 286.595 21.1799 275.763C22.6216 256.682 30.3796 241.803 43.0382 233.872C55.6902 225.946 72.4153 225.487 90.2264 232.557C92.9353 233.651 95.5859 234.875 98.1655 236.235C88.2659 245.267 79.6594 255.625 72.5898 267.016C53.0072 298.399 47.0271 333.331 53.8606 361.166C48.4176 355.278 43.5408 348.889 39.2949 342.085H39.3014ZM207.412 307.943C204.194 320.007 199.177 331.515 192.529 342.078C188.283 348.898 183.404 355.302 177.957 361.205C184.073 336.244 179.916 305.677 164.936 277C164.699 276.527 164.364 276.109 163.955 275.773C163.545 275.438 163.07 275.193 162.559 275.053C162.049 274.914 161.515 274.884 160.992 274.965C160.469 275.046 159.97 275.237 159.525 275.524L112.815 304.757C112.39 305.023 112.022 305.37 111.731 305.778C111.44 306.187 111.232 306.649 111.119 307.137C111.006 307.626 110.99 308.132 111.073 308.627C111.155 309.122 111.334 309.596 111.6 310.021L118.453 320.996C118.718 321.423 119.065 321.793 119.473 322.085C119.881 322.377 120.343 322.585 120.832 322.698C121.321 322.811 121.827 322.827 122.322 322.744C122.817 322.66 123.29 322.48 123.715 322.213L153.991 303.275C154.967 306.214 155.95 309.109 156.68 312.1C159.538 322.57 160.631 333.447 159.913 344.28C158.471 363.38 150.707 378.253 138.061 386.178C131.534 390.176 124.054 392.345 116.403 392.458H115.434C107.783 392.348 100.302 390.179 93.7757 386.178C81.1172 378.253 73.3527 363.38 71.9174 344.273C71.2063 333.447 72.2924 322.57 75.15 312.1C81.7147 287.881 95.2769 266.144 114.134 249.618C122.268 242.461 131.534 236.709 141.552 232.596C159.318 225.526 176.076 225.992 188.734 233.91C201.393 241.836 209.144 256.715 210.586 275.802C211.316 286.618 210.245 297.479 207.418 307.943H207.412Z" fill="#1BDBDB" data-object="mark" data-color="blue" data-sequence="0"/>
<path d="M424.914 120.477V170.177C424.922 170.719 424.821 171.257 424.618 171.759C424.414 172.261 424.112 172.717 423.729 173.1C423.346 173.482 422.89 173.784 422.389 173.987C421.887 174.191 421.35 174.291 420.809 174.282H405.83C405.289 174.292 404.751 174.192 404.25 173.989C403.748 173.786 403.292 173.484 402.91 173.101C402.527 172.718 402.226 172.262 402.023 171.759C401.821 171.257 401.721 170.719 401.731 170.177V157.13C392.214 169.16 375.677 176.736 356.967 176.736C321.836 176.736 294.379 150.267 294.379 112.584C294.379 73.4243 324.021 46.4309 361.467 46.4309C389.111 46.4309 411.209 58.338 421.022 82.2818C421.298 82.9141 421.452 83.5929 421.475 84.2825C421.475 85.4156 420.725 86.2703 418.333 87.099L400.839 93.8458C399.785 94.2853 398.603 94.3062 397.535 93.904C396.597 93.3498 395.862 92.5074 395.44 91.5019C389.163 79.543 377.985 71.4301 360.788 71.4301C338.483 71.4301 322.502 88.8731 322.502 111.496C322.502 133.426 336.104 151.458 361.421 151.458C374.739 151.458 385.361 145.178 390.314 138.269H374.507C373.966 138.277 373.428 138.176 372.927 137.972C372.426 137.768 371.971 137.466 371.588 137.082C371.206 136.699 370.905 136.242 370.702 135.74C370.499 135.238 370.399 134.7 370.408 134.158V120.651C370.4 120.11 370.501 119.573 370.704 119.071C370.907 118.57 371.209 118.114 371.591 117.731C371.973 117.348 372.428 117.046 372.929 116.843C373.43 116.639 373.966 116.538 374.507 116.546H420.803C421.334 116.519 421.865 116.601 422.363 116.786C422.862 116.972 423.317 117.257 423.701 117.625C424.086 117.993 424.391 118.436 424.599 118.926C424.806 119.416 424.911 119.944 424.908 120.477H424.914Z" fill="#111111" data-object="g" data-color="black" data-sequence="1"/>
<path d="M424.914 252.046V301.746C424.922 302.288 424.821 302.826 424.618 303.328C424.414 303.83 424.112 304.286 423.729 304.669C423.346 305.051 422.89 305.353 422.389 305.557C421.887 305.76 421.35 305.86 420.809 305.851H405.83C405.289 305.861 404.751 305.761 404.25 305.558C403.748 305.355 403.292 305.053 402.91 304.67C402.527 304.287 402.226 303.831 402.023 303.328C401.821 302.826 401.721 302.288 401.731 301.746V288.699C392.214 300.73 375.677 308.305 356.967 308.305C321.836 308.305 294.379 281.836 294.379 244.153C294.379 204.993 324.021 178 361.467 178C389.111 178 411.209 189.907 421.022 213.851C421.298 214.483 421.452 215.162 421.475 215.852C421.475 216.985 420.725 217.839 418.333 218.668L400.839 225.415C399.785 225.854 398.603 225.875 397.535 225.473C396.597 224.919 395.862 224.077 395.44 223.071C389.163 211.112 377.985 202.999 360.788 202.999C338.483 202.999 322.502 220.442 322.502 243.065C322.502 264.995 336.104 283.027 361.421 283.027C374.739 283.027 385.361 276.747 390.314 269.838H374.507C373.966 269.846 373.428 269.745 372.927 269.541C372.426 269.337 371.971 269.035 371.588 268.651C371.206 268.268 370.905 267.811 370.702 267.309C370.499 266.807 370.399 266.269 370.408 265.727V252.22C370.4 251.679 370.501 251.142 370.704 250.64C370.907 250.139 371.209 249.683 371.591 249.3C371.973 248.918 372.428 248.615 372.929 248.412C373.43 248.208 373.966 248.108 374.507 248.115H420.803C421.334 248.088 421.865 248.17 422.363 248.355C422.862 248.541 423.317 248.826 423.701 249.194C424.086 249.562 424.391 250.005 424.599 250.495C424.806 250.985 424.911 251.513 424.908 252.046H424.914Z" fill="#1BDBDB" data-object="g" data-color="blue" data-sequence="1"/>
<path fill-rule="evenodd" clip-rule="evenodd" d="M479.208 84.1333C452.96 84.1333 431.754 104.652 431.754 130.752C431.754 156.677 452.96 176.859 479.208 176.859C505.624 176.859 526.829 156.709 526.829 130.758C526.829 104.665 505.656 84.1398 479.208 84.1398V84.1333ZM479.208 152.488C467.112 152.488 457.905 142.691 457.905 130.577C457.905 118.463 467.112 108.517 479.208 108.517C491.478 108.517 500.684 118.488 500.684 130.609C500.684 142.717 491.478 152.526 479.208 152.526V152.488Z" fill="#111111" data-object="o" data-color="black" data-sequence="2"/>
<path fill-rule="evenodd" clip-rule="evenodd" d="M479.208 215.702C452.96 215.702 431.754 236.221 431.754 262.321C431.754 288.246 452.96 308.428 479.208 308.428C505.624 308.428 526.829 288.278 526.829 262.327C526.829 236.234 505.656 215.709 479.208 215.709V215.702ZM479.208 284.057C467.112 284.057 457.905 274.26 457.905 262.146C457.905 250.032 467.112 240.086 479.208 240.086C491.478 240.086 500.684 250.058 500.684 262.178C500.684 274.286 491.478 284.096 479.208 284.096V284.057Z" fill="#1BDBDB" data-object="o" data-color="blue" data-sequence="2"/>
<path fill-rule="evenodd" clip-rule="evenodd" d="M585.997 48.3277H537.716C537.195 48.3189 536.677 48.4155 536.194 48.6116C535.71 48.8078 535.272 49.0996 534.904 49.4695C534.535 49.8394 534.245 50.2799 534.051 50.7645C533.857 51.2492 533.762 51.7681 533.773 52.2903V170.183C533.734 170.723 533.808 171.265 533.989 171.776C534.171 172.286 534.455 172.753 534.826 173.147C535.197 173.541 535.645 173.854 536.142 174.066C536.64 174.278 537.176 174.385 537.716 174.379H585.997C624.639 174.379 651.488 148.642 651.488 111.198C651.488 73.5276 624.639 48.3277 585.997 48.3277ZM587.141 149.477H560.719V73.165H587.141C608.528 73.165 623.268 89.1837 623.268 111.146C623.268 132.746 608.528 149.477 587.141 149.477Z" fill="#111111" data-object="d1" data-color="black" data-sequence="2"/>
<path fill-rule="evenodd" clip-rule="evenodd" d="M585.997 179.897H537.716C537.195 179.888 536.677 179.985 536.194 180.181C535.71 180.377 535.272 180.669 534.904 181.039C534.535 181.408 534.245 181.849 534.051 182.334C533.857 182.818 533.762 183.337 533.773 183.859V301.752C533.734 302.292 533.808 302.835 533.989 303.345C534.171 303.855 534.455 304.322 534.826 304.716C535.197 305.11 535.645 305.423 536.142 305.635C536.64 305.847 537.176 305.954 537.716 305.948H585.997C624.639 305.948 651.488 280.211 651.488 242.767C651.488 205.097 624.639 179.897 585.997 179.897ZM587.141 281.046H560.719V204.734H587.141C608.528 204.734 623.268 220.753 623.268 242.715C623.268 264.315 608.528 281.046 587.141 281.046Z" fill="#1BDBDB" data-object="d1" data-color="blue" data-sequence="2"/>
<path fill-rule="evenodd" clip-rule="evenodd" d="M747.597 86.6717H729.443C728.439 86.7525 727.5 87.2015 726.806 87.9326C726.111 88.6638 725.711 89.6257 725.681 90.6342V96.0277C721.543 89.1839 712.201 84.1465 700.571 84.1465C677.924 84.1465 656.718 101.959 656.718 130.409C656.718 158.704 677.736 176.839 700.39 176.839C712.065 176.839 721.595 171.809 725.732 164.965V170.54C725.736 171.54 726.133 172.498 726.837 173.207C727.541 173.916 728.496 174.319 729.495 174.327H747.649C748.148 174.339 748.645 174.249 749.109 174.062C749.573 173.876 749.994 173.597 750.347 173.243C750.7 172.889 750.977 172.467 751.162 172.002C751.348 171.537 751.437 171.04 751.424 170.54V90.6342C751.44 90.1205 751.353 89.6089 751.168 89.1296C750.982 88.6503 750.703 88.213 750.346 87.8436C749.989 87.4743 749.562 87.1802 749.09 86.9789C748.618 86.7776 748.11 86.6731 747.597 86.6717ZM705.368 152.689C693.343 152.689 684.317 143.43 684.317 130.597C684.317 117.764 693.349 108.518 705.368 108.518C717.392 108.518 726.424 117.751 726.424 130.584C726.424 143.423 717.405 152.676 705.368 152.676V152.689Z" fill="#111111" data-object="a" data-color="black" data-sequence="4"/>
<path fill-rule="evenodd" clip-rule="evenodd" d="M747.597 218.241H729.443C728.439 218.322 727.5 218.771 726.806 219.502C726.111 220.233 725.711 221.195 725.681 222.203V227.597C721.543 220.753 712.201 215.716 700.571 215.716C677.924 215.716 656.718 233.528 656.718 261.978C656.718 290.273 677.736 308.409 700.39 308.409C712.065 308.409 721.595 303.378 725.732 296.534V302.109C725.736 303.109 726.133 304.067 726.837 304.776C727.541 305.485 728.496 305.888 729.495 305.896H747.649C748.148 305.908 748.645 305.818 749.109 305.631C749.573 305.445 749.994 305.166 750.347 304.812C750.7 304.458 750.977 304.036 751.162 303.571C751.348 303.106 751.437 302.609 751.424 302.109V222.203C751.44 221.69 751.353 221.178 751.168 220.699C750.982 220.219 750.703 219.782 750.346 219.413C749.989 219.043 749.562 218.749 749.09 218.548C748.618 218.347 748.11 218.242 747.597 218.241ZM705.368 284.258C693.343 284.258 684.317 274.999 684.317 262.166C684.317 249.333 693.349 240.087 705.368 240.087C717.392 240.087 726.424 249.32 726.424 262.153C726.424 274.992 717.405 284.245 705.368 284.245V284.258Z" fill="#1BDBDB" data-object="a" data-color="blue" data-sequence="4"/>
<path fill-rule="evenodd" clip-rule="evenodd" d="M849.485 48.328H831.364C830.855 48.3124 830.349 48.3983 829.874 48.5806C829.398 48.7629 828.964 49.0379 828.596 49.3897C828.228 49.7416 827.933 50.1632 827.729 50.63C827.525 51.0969 827.416 51.5997 827.407 52.1092V95.6716C823.27 89.1838 813.74 84.1465 801.89 84.1465C779.411 84.1465 758.574 101.959 758.574 130.409C758.574 158.704 779.605 176.839 802.246 176.839C813.928 176.839 822.727 171.809 827.588 164.965V170.539C827.592 171.542 827.99 172.502 828.698 173.212C829.405 173.921 830.363 174.322 831.364 174.327H849.485C849.985 174.34 850.481 174.25 850.945 174.064C851.408 173.878 851.829 173.599 852.181 173.245C852.533 172.89 852.809 172.467 852.993 172.002C853.176 171.537 853.263 171.039 853.248 170.539V52.1351C853.266 51.6337 853.181 51.1338 852.999 50.6664C852.816 50.199 852.541 49.7739 852.188 49.4173C851.836 49.0607 851.414 48.7801 850.949 48.5927C850.485 48.4054 849.986 48.3153 849.485 48.328ZM807.256 152.909C795.276 152.909 786.329 143.559 786.329 130.584C786.329 117.615 795.315 108.265 807.256 108.265C819.19 108.265 828.183 117.615 828.183 130.584C828.183 143.559 819.229 152.909 807.256 152.909Z" fill="#111111" data-object="d2" data-color="black" data-sequence="5"/>
<path fill-rule="evenodd" clip-rule="evenodd" d="M849.485 179.897H831.364C830.855 179.882 830.349 179.967 829.874 180.15C829.398 180.332 828.964 180.607 828.596 180.959C828.228 181.311 827.933 181.732 827.729 182.199C827.525 182.666 827.416 183.169 827.407 183.678V227.241C823.27 220.753 813.74 215.716 801.89 215.716C779.411 215.716 758.574 233.528 758.574 261.978C758.574 290.273 779.605 308.409 802.246 308.409C813.928 308.409 822.727 303.378 827.588 296.534V302.109C827.592 303.111 827.99 304.071 828.698 304.781C829.405 305.49 830.363 305.891 831.364 305.896H849.485C849.985 305.909 850.481 305.819 850.945 305.633C851.408 305.447 851.829 305.168 852.181 304.814C852.533 304.459 852.809 304.036 852.993 303.571C853.176 303.106 853.263 302.608 853.248 302.109V183.704C853.266 183.203 853.181 182.703 852.999 182.236C852.816 181.768 852.541 181.343 852.188 180.986C851.836 180.63 851.414 180.349 850.949 180.162C850.485 179.974 849.986 179.884 849.485 179.897ZM807.256 284.478C795.276 284.478 786.329 275.128 786.329 262.153C786.329 249.184 795.315 239.834 807.256 239.834C819.19 239.834 828.183 249.184 828.183 262.153C828.183 275.128 819.229 284.478 807.256 284.478Z" fill="#1BDBDB" data-object="d2" data-color="blue" data-sequence="5"/>
<path fill-rule="evenodd" clip-rule="evenodd" d="M951.375 48.328H933.254C932.745 48.3124 932.238 48.3983 931.763 48.5806C931.288 48.7629 930.854 49.0379 930.486 49.3897C930.117 49.7416 929.823 50.1632 929.619 50.63C929.415 51.0969 929.305 51.5997 929.297 52.1092V95.6716C925.159 89.1838 915.63 84.1465 903.78 84.1465C881.301 84.1465 860.464 101.959 860.464 130.409C860.464 158.704 881.495 176.839 904.135 176.839C915.818 176.839 924.616 171.809 929.478 164.965V170.539C929.481 171.542 929.88 172.502 930.587 173.212C931.294 173.921 932.253 174.322 933.254 174.327H951.375C951.874 174.34 952.371 174.25 952.834 174.064C953.298 173.878 953.718 173.599 954.071 173.245C954.423 172.89 954.699 172.467 954.883 172.002C955.066 171.537 955.153 171.039 955.138 170.539V52.1351C955.156 51.6337 955.071 51.1338 954.888 50.6664C954.706 50.199 954.43 49.7739 954.078 49.4173C953.725 49.0607 953.304 48.7801 952.839 48.5927C952.374 48.4054 951.876 48.3153 951.375 48.328ZM909.146 152.909C897.166 152.909 888.218 143.559 888.218 130.584C888.218 117.615 897.205 108.265 909.146 108.265C921.08 108.265 930.073 117.615 930.073 130.584C930.073 143.559 921.119 152.909 909.146 152.909Z" fill="#111111" data-object="d3" data-color="black" data-sequence="6"/>
<path fill-rule="evenodd" clip-rule="evenodd" d="M951.375 179.897H933.254C932.745 179.882 932.238 179.967 931.763 180.15C931.288 180.332 930.854 180.607 930.486 180.959C930.117 181.311 929.823 181.732 929.619 182.199C929.415 182.666 929.305 183.169 929.297 183.678V227.241C925.159 220.753 915.63 215.716 903.78 215.716C881.301 215.716 860.464 233.528 860.464 261.978C860.464 290.273 881.495 308.409 904.135 308.409C915.818 308.409 924.616 303.378 929.478 296.534V302.109C929.481 303.111 929.88 304.071 930.587 304.781C931.294 305.49 932.253 305.891 933.254 305.896H951.375C951.874 305.909 952.371 305.819 952.834 305.633C953.298 305.447 953.718 305.168 954.071 304.814C954.423 304.459 954.699 304.036 954.883 303.571C955.066 303.106 955.153 302.608 955.138 302.109V183.704C955.156 183.203 955.071 182.703 954.888 182.236C954.706 181.768 954.43 181.343 954.078 180.986C953.725 180.63 953.304 180.349 952.839 180.162C952.374 179.974 951.876 179.884 951.375 179.897ZM909.146 284.478C897.166 284.478 888.218 275.128 888.218 262.153C888.218 249.184 897.205 239.834 909.146 239.834C921.08 239.834 930.073 249.184 930.073 262.153C930.073 275.128 921.119 284.478 909.146 284.478Z" fill="#1BDBDB" data-object="d3" data-color="blue" data-sequence="6"/>
<path d="M1023.68 185.846L1050.77 92.8034C1052.02 89.184 1050.94 86.6718 1047.37 86.6782H1029.25C1026.38 86.6782 1024.93 88.6595 1024.4 90.8221L1007.67 153.433L989.758 90.8221C988.737 87.4746 987.101 86.6782 984.774 86.6782H965.676C961.189 86.6782 960.355 89.7408 961.26 92.8034L985.504 170.553C986.17 172.722 987.657 174.334 990.359 174.334H1001.32L998.997 182.058C996.695 188.721 992.428 190.514 986.842 190.514C982.058 190.514 978.923 188.63 975.542 186.435C974.506 185.657 973.254 185.222 971.96 185.192C970.331 185.192 969.212 185.924 967.693 188.177L962.314 196.245L962.307 196.256C961.271 197.919 960.698 198.838 960.698 200.615C960.698 203.483 963.542 205.277 966.975 207.239C972.858 210.612 980.377 212.302 988.633 212.302C1006.79 212.302 1018.45 202.396 1023.68 185.846Z" fill="#111111" data-object="y" data-color="black" data-sequence="7"/>
<path d="M1023.68 317.415L1050.77 224.372C1052.02 220.753 1050.94 218.241 1047.37 218.247H1029.25C1026.38 218.247 1024.93 220.229 1024.4 222.391L1007.67 285.002L989.758 222.391C988.737 219.044 987.101 218.247 984.774 218.247H965.676C961.189 218.247 960.355 221.31 961.26 224.372L985.504 302.122C986.17 304.291 987.657 305.903 990.359 305.903H1001.32L998.997 313.627C996.695 320.29 992.428 322.083 986.842 322.083C982.058 322.083 978.923 320.199 975.542 318.004C974.506 317.226 973.254 316.791 971.96 316.761C970.331 316.761 969.212 317.493 967.693 319.746L962.314 327.814L962.307 327.825C961.271 329.488 960.698 330.408 960.698 332.184C960.698 335.052 963.542 336.846 966.975 338.808C972.858 342.181 980.377 343.871 988.633 343.871C1006.79 343.871 1018.45 333.965 1023.68 317.415Z" fill="#1BDBDB" data-object="y" data-color="blue" data-sequence="7"/>
<path d="M1051.27 68.2703V67.066C1051.27 66.9818 1051.29 66.8977 1051.34 66.8329C1051.4 66.7792 1051.48 66.7494 1051.56 66.7487H1059.21C1059.3 66.7487 1059.37 66.7811 1059.43 66.8329C1059.49 66.8977 1059.52 66.9818 1059.52 67.066V68.2703C1059.51 68.3514 1059.48 68.4296 1059.43 68.4904C1059.4 68.5184 1059.37 68.5403 1059.33 68.5547C1059.29 68.5692 1059.25 68.5759 1059.21 68.5746H1056.42V76.1307C1056.42 76.2121 1056.38 76.2893 1056.32 76.3469C1056.27 76.4045 1056.19 76.4383 1056.11 76.4415H1054.66C1054.62 76.4413 1054.58 76.4332 1054.55 76.4176C1054.51 76.402 1054.48 76.3793 1054.45 76.3508C1054.42 76.3227 1054.4 76.2886 1054.38 76.2508C1054.37 76.2129 1054.36 76.1721 1054.36 76.1307V68.5746H1051.56C1051.52 68.5775 1051.48 68.5716 1051.44 68.5573C1051.41 68.5431 1051.37 68.5207 1051.34 68.4919C1051.31 68.463 1051.29 68.4283 1051.28 68.3901C1051.26 68.3519 1051.26 68.311 1051.26 68.2703H1051.27ZM1064.64 67.0207L1066.72 71.8768L1068.82 67.0207C1068.85 66.9354 1068.91 66.8628 1068.99 66.8135C1069.07 66.7672 1069.17 66.7449 1069.27 66.7487H1071.7C1071.74 66.7459 1071.78 66.7517 1071.81 66.7656C1071.85 66.7795 1071.89 66.8012 1071.91 66.8293C1071.94 66.8575 1071.97 66.8914 1071.98 66.9288C1071.99 66.9663 1072 67.0064 1072 67.0466V76.1372C1072 76.1767 1072 76.2164 1071.98 76.2537C1071.97 76.291 1071.95 76.3251 1071.92 76.3537C1071.89 76.3823 1071.86 76.4049 1071.82 76.4201C1071.79 76.4352 1071.75 76.4425 1071.71 76.4415H1070.35C1070.31 76.4437 1070.27 76.4373 1070.23 76.4229C1070.19 76.4084 1070.15 76.3861 1070.12 76.3573C1070.09 76.3293 1070.07 76.2949 1070.06 76.2568C1070.04 76.2187 1070.04 76.1778 1070.04 76.1372V69.2739L1067.79 74.2595C1067.76 74.3556 1067.7 74.4408 1067.62 74.5055C1067.54 74.5528 1067.44 74.5752 1067.34 74.5703H1066.23C1066.14 74.5747 1066.04 74.5523 1065.96 74.5055C1065.88 74.4455 1065.82 74.3616 1065.79 74.266L1063.56 69.2804V76.1436C1063.55 76.2225 1063.52 76.2982 1063.47 76.3573C1063.41 76.4082 1063.34 76.4379 1063.27 76.4415H1061.87C1061.83 76.4412 1061.8 76.4335 1061.76 76.4191C1061.73 76.4046 1061.7 76.3836 1061.67 76.3573C1061.65 76.3293 1061.62 76.2949 1061.61 76.2568C1061.59 76.2187 1061.59 76.1778 1061.59 76.1372V67.0466C1061.59 67.0064 1061.6 66.9663 1061.61 66.9288C1061.62 66.8914 1061.65 66.8575 1061.68 66.8293C1061.7 66.8012 1061.74 66.7795 1061.78 66.7656C1061.81 66.7517 1061.85 66.7459 1061.89 66.7487H1064.25C1064.34 66.7487 1064.44 66.7682 1064.52 66.8135C1064.58 66.8718 1064.62 66.943 1064.64 67.0207V67.0207Z" fill="#111111" data-object="tm" data-color="black" data-sequence="8"/>
<path d="M1051.27 88.5223V87.3179C1051.27 87.2338 1051.29 87.1496 1051.34 87.0849C1051.4 87.0312 1051.48 87.0013 1051.56 87.0007H1059.21C1059.3 87.0007 1059.37 87.0331 1059.43 87.0849C1059.49 87.1496 1059.52 87.2338 1059.52 87.3179V88.5223C1059.51 88.6034 1059.48 88.6816 1059.43 88.7424C1059.4 88.7704 1059.37 88.7922 1059.33 88.8067C1059.29 88.8211 1059.25 88.8279 1059.21 88.8266H1056.42V96.3826C1056.42 96.4641 1056.38 96.5413 1056.32 96.5989C1056.27 96.6565 1056.19 96.6902 1056.11 96.6934H1054.66C1054.62 96.6933 1054.58 96.6851 1054.55 96.6696C1054.51 96.654 1054.48 96.6312 1054.45 96.6028C1054.42 96.5746 1054.4 96.5406 1054.38 96.5027C1054.37 96.4649 1054.36 96.424 1054.36 96.3826V88.8266H1051.56C1051.52 88.8295 1051.48 88.8236 1051.44 88.8093C1051.41 88.795 1051.37 88.7727 1051.34 88.7438C1051.31 88.715 1051.29 88.6803 1051.28 88.642C1051.26 88.6038 1051.26 88.563 1051.26 88.5223H1051.27ZM1064.64 87.2726L1066.72 92.1287L1068.82 87.2726C1068.85 87.1874 1068.91 87.1147 1068.99 87.0654C1069.07 87.0192 1069.17 86.9968 1069.27 87.0007H1071.7C1071.74 86.9979 1071.78 87.0036 1071.81 87.0175C1071.85 87.0314 1071.89 87.0532 1071.91 87.0813C1071.94 87.1094 1071.97 87.1433 1071.98 87.1808C1071.99 87.2182 1072 87.2583 1072 87.2985V96.3891C1072 96.4287 1072 96.4684 1071.98 96.5057C1071.97 96.543 1071.95 96.577 1071.92 96.6057C1071.89 96.6343 1071.86 96.6569 1071.82 96.672C1071.79 96.6871 1071.75 96.6944 1071.71 96.6934H1070.35C1070.31 96.6956 1070.27 96.6893 1070.23 96.6748C1070.19 96.6603 1070.15 96.638 1070.12 96.6093C1070.09 96.5812 1070.07 96.5469 1070.06 96.5088C1070.04 96.4707 1070.04 96.4298 1070.04 96.3891V89.5259L1067.79 94.5114C1067.76 94.6075 1067.7 94.6927 1067.62 94.7575C1067.54 94.8047 1067.44 94.8272 1067.34 94.8222H1066.23C1066.14 94.8267 1066.04 94.8042 1065.96 94.7575C1065.88 94.6975 1065.82 94.6136 1065.79 94.5179L1063.56 89.5323V96.3956C1063.55 96.4745 1063.52 96.5501 1063.47 96.6093C1063.41 96.6601 1063.34 96.6898 1063.27 96.6934H1061.87C1061.83 96.6931 1061.8 96.6855 1061.76 96.671C1061.73 96.6566 1061.7 96.6356 1061.67 96.6093C1061.65 96.5812 1061.62 96.5469 1061.61 96.5088C1061.59 96.4707 1061.59 96.4298 1061.59 96.3891V87.2985C1061.59 87.2583 1061.6 87.2182 1061.61 87.1808C1061.62 87.1433 1061.65 87.1094 1061.68 87.0813C1061.7 87.0532 1061.74 87.0314 1061.78 87.0175C1061.81 87.0036 1061.85 86.9979 1061.89 87.0007H1064.25C1064.34 87.0007 1064.44 87.0201 1064.52 87.0654C1064.58 87.1237 1064.62 87.1949 1064.64 87.2726V87.2726Z" fill="#1BDBDB" data-object="tm" data-color="blue" data-sequence="8"/>
</svg>
