<?xml version="1.0" encoding="UTF-8" standalone="no"?>
<svg width="47px" height="47px" viewBox="0 0 47 47" version="1.1" xmlns="http://www.w3.org/2000/svg" xmlns:xlink="http://www.w3.org/1999/xlink">
<style type="text/css">
	.st0{fill:none;stroke:#000000;stroke-width:0;stroke-linecap:round;stroke-linejoin:round;}
	.st1{fill:url(#SVGID_1_);}
	.st2{fill:url(#SVGID_2_);}
</style>
<path class="st0" d="M75,1.2c0.4,0,0.8,0,1.2,0"/>
<linearGradient id="SVGID_1_" gradientUnits="userSpaceOnUse" x1="12.1167" y1="19.0176" x2="44.9895" y2="19.0176">
	<stop  offset="0" style="stop-color:#000000;stop-opacity:0"/>
	<stop  offset="1" style="stop-color:#000000"/>
</linearGradient>
<path class="st1" d="M23.7,2L23.7,2C11.4,2,2.1,9.3,2.1,18.9c0,9.9,8.3,17.1,19.7,17.1c7.1,0,12.2-3.5,12.2-8.2c0-1.3-0.4-2.5-1-3.5
	l-1.1-1.8l-0.7,2c-0.8,2.3-3.9,3.8-7.7,3.8c-0.6,0-1.1,0-1.6-0.1l-0.1,0l-0.1,0c-5.7-0.7-9.7-4.5-9.7-9.1c0-5.3,5.7-9.2,13.3-9.2
	c7.4,0,14,3.1,17.6,8.3l1.9-0.7C43.7,7.9,35.5,2,23.7,2z"/>
<path class="st0" d="M23.6,0c0,0-0.1,0-0.1,0c-0.4,0-0.8,0-1.2,0C16.5,0.3,11.1,2.2,7,5.5c-4.5,3.6-6.9,8.6-6.9,14.1c0,0,0,0,0,0
	v7.2c0,12.1,9.4,20.2,23.5,20.2c0.4,0,0.8,0,1.2,0c5.9-0.2,11.3-2.1,15.3-5.4c4.5-3.6,6.9-8.6,6.9-14.1v-7.2C47,8.1,37.6,0,23.6,0z
	 M4,14.1c2.5-6.5,10.1-11,19.6-11c11.5,0,19.2,5.7,20.2,14.4c-3.7-5.4-10.4-8.7-18.6-8.7C17.1,8.7,11,13.2,11,19
	c0,5.4,4.8,9.7,11.2,10.3c0.2,0,0.2,0,0.3,0c0.3,0,0.6,0,1.1,0c4.3,0,7.7-1.8,8.6-4.6c0.3,0.5,0.5,1,0.7,1.5
	c0.2,0.5,0.2,1.1,0.2,1.6c0,1.6-0.7,3-1.8,4.1c-0.4,0.4-0.8,0.7-1.3,1.1c-2,1.3-4.8,2.1-8,2.1c-2.7,0-5.3-0.4-7.5-1.2
	c-1.7-0.6-3.2-1.4-4.6-2.3c-0.5-0.3-0.9-0.7-1.3-1c-1.2-1.1-2.3-2.3-3.1-3.7c-0.3-0.5-0.5-0.9-0.8-1.4c-0.9-1.9-1.4-4.1-1.4-6.5
	C3.1,17.2,3.4,15.6,4,14.1z M17.6,23.6c0-1.4,2.5-2.9,5.8-2.9c0.3,0,0.6,0,0.9,0c2.9,0.2,4.9,1.5,4.9,2.9c0,1.4-2.5,2.9-5.8,2.9
	c-0.3,0-0.5,0-0.8,0C19.5,26.4,17.6,24.8,17.6,23.6z M23.4,44C23.4,44,23.4,44,23.4,44C11.9,44,4.3,38.4,3.2,29.6c0,0,0-0.1,0-0.1
	c3.7,5.4,10.4,8.7,18.5,8.7c0,0,0,0,0,0c8.1,0,14.3-4.4,14.3-10.3c0-5.2-4.4-9.4-10.6-10.1c-0.6-0.2-1.2-0.2-1.8-0.2c0,0,0,0,0,0
	c-4.3,0-7.6,1.8-8.6,4.6c0,0,0-0.1,0-0.1c-0.6-0.9-0.9-1.9-0.9-3C14,15,18.8,12,25.2,12c0,0,0,0,0,0c10.9,0,18.7,6.7,18.7,16.1
	C43.9,37.1,35,44,23.4,44z"/>
<linearGradient id="SVGID_2_" gradientUnits="userSpaceOnUse" x1="2.1167" y1="27.9897" x2="35.0788" y2="27.9897">
	<stop  offset="0" style="stop-color:#000000"/>
	<stop  offset="1" style="stop-color:#000000;stop-opacity:0"/>
</linearGradient>
<path class="st2" d="M25.2,10.9C18.1,11,13,14.4,13,19.2c0,1.3,0.4,2.5,1,3.5l1.1,1.8l0.7-2c0.8-2.3,3.9-3.8,7.7-3.8
	c0.6,0,1.1,0,1.6,0.1l0.1,0l0.1,0c5.7,0.7,9.7,4.5,9.7,9.1c0,5.3-5.7,9.2-13.3,9.2c-7.4,0-14-3.1-17.6-8.3l-1.9,0.7
	C3.3,39.1,11.5,45,23.3,45h0c12.3,0,21.5-7.3,21.5-17C44.9,18.2,36.6,11,25.2,10.9z"/>
</svg>
