<?xml version="1.0" standalone="no"?>
<!DOCTYPE svg PUBLIC "-//W3C//DTD SVG 20010904//EN"
 "http://www.w3.org/TR/2001/REC-SVG-20010904/DTD/svg10.dtd">
<svg version="1.0" xmlns="http://www.w3.org/2000/svg"
 width="1012.000000pt" height="1012.000000pt" viewBox="0 0 1012.000000 1012.000000"
 preserveAspectRatio="xMidYMid meet">
<metadata>
Created by potrace 1.14, written by Peter Selinger 2001-2017
</metadata>
<g transform="translate(0.000000,1012.000000) scale(0.100000,-0.100000)"
fill="#000000" stroke="none">
<path d="M4718 10115 c-2 -1 -55 -6 -118 -9 -112 -7 -152 -10 -255 -20 -28 -3
-77 -8 -110 -11 -33 -3 -71 -8 -85 -10 -14 -3 -45 -7 -70 -10 -25 -3 -85 -12
-134 -21 -50 -8 -106 -17 -125 -19 -20 -3 -47 -7 -61 -10 -14 -3 -56 -12 -95
-20 -105 -22 -104 -21 -221 -49 -104 -25 -158 -40 -319 -88 -183 -54 -452
-153 -623 -229 -195 -87 -509 -256 -657 -352 -49 -33 -246 -168 -260 -179 -5
-5 -39 -31 -75 -59 -218 -171 -410 -357 -626 -608 -37 -43 -137 -176 -185
-246 -19 -27 -36 -52 -39 -55 -3 -3 -10 -14 -17 -25 -232 -383 -298 -516 -403
-822 -75 -216 -144 -489 -165 -653 -4 -30 -9 -64 -11 -75 -2 -11 -6 -47 -10
-80 -3 -33 -7 -66 -10 -73 -14 -44 -19 -360 -18 -1222 0 -1033 2 -1106 35
-1365 16 -117 17 -127 23 -162 3 -18 8 -48 12 -65 3 -18 12 -67 20 -108 9 -41
18 -84 20 -94 29 -148 116 -426 199 -632 237 -591 599 -1096 1101 -1534 47
-41 213 -172 289 -226 396 -288 917 -539 1420 -687 143 -42 262 -74 296 -80
13 -3 44 -10 69 -17 25 -7 54 -14 65 -16 30 -6 89 -18 95 -19 3 -1 23 -5 45
-9 22 -4 60 -11 85 -16 25 -5 63 -12 85 -15 23 -3 52 -7 65 -10 26 -5 75 -12
220 -30 25 -4 56 -8 70 -10 14 -2 59 -7 100 -10 41 -3 93 -8 115 -10 268 -27
1009 -27 1230 -1 17 2 66 7 110 11 44 3 91 8 105 10 14 2 77 11 140 19 63 9
126 18 140 20 14 3 43 7 65 10 22 4 74 13 115 21 41 8 86 16 100 19 240 42
802 208 985 291 17 7 53 22 80 33 86 33 174 74 350 163 975 492 1674 1261
2011 2209 34 96 100 319 109 368 2 15 9 42 14 60 5 17 8 32 5 32 -3 0 0 8 5
18 5 10 12 36 14 58 3 21 12 80 21 129 48 277 51 366 51 1445 0 837 -4 1100
-19 1235 -2 17 -7 57 -10 90 -55 490 -209 1006 -428 1435 -44 85 -86 162 -94
171 -8 9 -11 19 -7 22 3 4 1 7 -5 7 -7 0 -12 5 -12 11 0 21 -207 324 -307 449
-110 138 -186 222 -309 344 -112 113 -166 161 -328 297 -43 35 -168 127 -246
180 -36 24 -67 47 -70 50 -3 3 -70 45 -150 93 -349 211 -766 392 -1175 511
-88 26 -167 48 -175 50 -163 38 -290 67 -314 71 -17 3 -49 9 -71 14 -22 5 -56
11 -75 14 -19 3 -44 7 -55 10 -11 2 -42 7 -70 10 -27 4 -57 9 -65 11 -8 2 -42
6 -75 10 -33 3 -67 8 -75 10 -8 2 -46 7 -85 10 -38 4 -83 9 -100 10 -40 4
-178 16 -240 21 -60 5 -822 13 -827 9z m514 -4429 c122 -6 227 -20 363 -47
510 -102 844 -406 743 -676 -24 -64 -23 -64 -96 -143 -128 -139 -371 -254
-665 -314 -67 -14 -144 -27 -172 -30 -153 -16 -193 -18 -330 -18 -82 1 -172 3
-200 6 -27 3 -76 8 -108 11 -135 13 -362 58 -422 84 -11 5 -51 21 -90 36 -205
79 -371 207 -445 345 -30 57 -34 74 -35 140 0 60 5 86 26 131 59 126 256 278
444 344 28 9 59 21 70 25 20 9 76 26 111 36 48 12 254 53 299 58 28 4 93 9
145 12 52 4 96 7 97 8 3 3 152 -2 265 -8z"/>
</g>
</svg>
