<?xml version="1.0" standalone="no"?>
<!DOCTYPE svg PUBLIC "-//W3C//DTD SVG 20010904//EN"
 "http://www.w3.org/TR/2001/REC-SVG-20010904/DTD/svg10.dtd">
<svg version="1.0" xmlns="http://www.w3.org/2000/svg"
 width="257.000000pt" height="257.000000pt" viewBox="0 0 257.000000 257.000000"
 preserveAspectRatio="xMidYMid meet">
<metadata>
Created by potrace 1.14, written by Peter Selinger 2001-2017
</metadata>
<g transform="translate(0.000000,257.000000) scale(0.100000,-0.100000)"
fill="#000000" stroke="none">
<path d="M1130 2558 c-270 -27 -503 -109 -705 -247 -69 -48 -213 -193 -262
-266 -71 -104 -126 -236 -150 -361 -10 -51 -10 -714 0 -779 14 -93 48 -200 89
-285 37 -77 49 -98 98 -164 38 -53 183 -187 246 -228 139 -91 324 -163 489
-192 307 -54 609 -35 858 53 206 72 336 151 473 286 99 97 157 178 202 277 47
103 53 119 73 208 17 76 18 121 15 435 -1 193 -6 366 -10 385 -28 132 -65 236
-120 333 -47 84 -67 108 -166 207 -184 184 -469 306 -785 335 -107 10 -261 12
-345 3z m40 -172 c0 -2 -8 -10 -17 -17 -16 -13 -17 -12 -4 4 13 16 21 21 21
13z m-124 -21 c-1 -8 -5 -17 -8 -21 -5 -4 -4 16 1 34 3 9 9 -1 7 -13z m119
-34 c3 -5 2 -12 -3 -15 -5 -3 -9 1 -9 9 0 17 3 19 12 6z m45 -1 c0 -5 -2 -10
-4 -10 -3 0 -8 5 -11 10 -3 6 -1 10 4 10 6 0 11 -4 11 -10z m31 -13 c-10 -9
-11 -8 -5 6 3 10 9 15 12 12 3 -3 0 -11 -7 -18z m-312 -34 c2 -1 -5 -1 -16 0
-11 0 -20 7 -20 14 0 10 4 10 16 1 9 -7 18 -13 20 -15z m-82 -7 c18 -21 18
-21 -2 -5 -11 9 -28 15 -38 14 -9 -2 -15 0 -12 4 8 14 35 8 52 -13z m339 -2
c1 -9 0 -13 -4 -10 -3 4 -7 14 -8 22 -1 9 0 13 4 10 3 -4 7 -14 8 -22z m-411
-23 c-8 -14 -25 -14 -25 0 0 5 5 7 10 4 6 -3 10 -1 10 6 0 7 3 10 6 6 3 -3 3
-10 -1 -16z m316 2 c13 -16 12 -17 -3 -4 -10 7 -18 15 -18 17 0 8 8 3 21 -13z
m-381 -5 c0 -4 -4 -8 -9 -8 -6 0 -12 4 -15 8 -3 5 1 9 9 9 8 0 15 -4 15 -9z
m235 -6 c-3 -3 -11 0 -18 7 -9 10 -8 11 6 5 10 -3 15 -9 12 -12z m95 12 c0 -8
-19 -13 -24 -6 -3 5 1 9 9 9 8 0 15 -2 15 -3z m-190 -8 c0 -2 -8 -10 -17 -17
-16 -13 -17 -12 -4 4 13 16 21 21 21 13z m-190 -27 c-12 -22 -31 -21 -38 2 -3
11 -2 11 7 -1 10 -13 13 -13 22 3 14 24 22 21 9 -4z m282 -4 c3 3 13 -5 24
-17 19 -23 19 -23 -2 -5 -11 9 -23 15 -26 12 -3 -3 -13 5 -24 17 -19 23 -19
23 2 5 11 -9 23 -15 26 -12z m-76 -4 c0 -16 -3 -17 -14 -9 -12 10 -7 19 13 28
1 0 1 -9 1 -19z m-133 -8 c-5 -12 -3 -14 8 -8 8 5 11 4 6 0 -4 -5 -14 -10 -22
-11 -12 -2 -12 2 -5 17 13 23 22 25 13 2z m77 7 c0 -4 -7 -13 -15 -20 -13 -11
-14 -10 -9 5 6 14 4 16 -6 10 -8 -5 -11 -4 -7 2 7 11 37 13 37 3z m-240 -20
c-8 -5 -19 -10 -25 -10 -5 0 -3 5 5 10 8 5 20 10 25 10 6 0 3 -5 -5 -10z m58
-25 c-1 -10 -11 -19 -21 -21 -9 -1 -15 2 -11 7 3 5 10 7 15 4 5 -4 9 3 9 15 0
13 -4 19 -12 14 -7 -5 -8 -3 -3 5 10 17 28 -1 23 -24z m566 27 c3 -5 -1 -9 -9
-9 -8 0 -12 4 -9 9 3 4 7 8 9 8 2 0 6 -4 9 -8z m96 -27 c0 -5 -5 -3 -10 5 -5
8 -10 20 -10 25 0 6 5 3 10 -5 5 -8 10 -19 10 -25z m-524 5 c0 -12 -4 -16 -9
-11 -5 5 -6 14 -3 20 10 15 12 14 12 -9z m-176 0 c0 -5 -4 -10 -10 -10 -5 0
-10 5 -10 10 0 6 5 10 10 10 6 0 10 -4 10 -10z m90 0 c0 -5 -4 -10 -10 -10 -5
0 -10 5 -10 10 0 6 5 10 10 10 6 0 10 -4 10 -10z m344 -6 c3 -8 2 -12 -4 -9
-6 3 -10 10 -10 16 0 14 7 11 14 -7z m46 10 c0 -8 -19 -13 -24 -6 -3 5 1 9 9
9 8 0 15 -2 15 -3z m-330 -20 c0 -2 -7 -4 -15 -4 -8 0 -15 4 -15 10 0 5 7 7
15 4 8 -4 15 -8 15 -10z m67 0 c-3 -3 -12 -4 -19 -1 -8 3 -5 6 6 6 11 1 17 -2
13 -5z m93 0 c0 -8 -19 -13 -24 -6 -3 5 1 9 9 9 8 0 15 -2 15 -3z m-384 -55
c-18 -41 -21 -29 -4 18 7 19 14 30 16 25 1 -4 -4 -24 -12 -43z m64 47 c0 -2
-7 -6 -15 -10 -8 -3 -15 -1 -15 4 0 6 7 10 15 10 8 0 15 -2 15 -4z m245 -6
c-3 -5 -14 -10 -23 -9 -14 0 -13 2 3 9 27 11 27 11 20 0z m46 -32 c-10 -11
-11 -9 -5 6 5 12 4 17 -3 13 -5 -3 -10 1 -10 9 0 13 2 13 16 0 12 -13 13 -18
2 -28z m259 38 c0 -2 -8 -10 -17 -17 -16 -13 -17 -12 -4 4 13 16 21 21 21 13z
m76 -11 c-1 -8 -5 -17 -8 -21 -5 -4 -4 16 1 34 3 9 9 -1 7 -13z m-496 -5 c0
-5 -4 -10 -10 -10 -5 0 -10 5 -10 10 0 6 5 10 10 10 6 0 10 -4 10 -10z m60
-21 c0 -5 -5 -9 -12 -9 -6 0 -8 3 -5 7 4 3 1 13 -6 22 -11 14 -10 14 6 2 9 -7
17 -17 17 -22z m171 14 c13 -17 13 -17 -6 -3 -11 8 -22 16 -24 17 -2 2 0 3 6
3 6 0 17 -8 24 -17z m73 8 c-7 -8 -54 -9 -49 -1 2 3 15 6 29 6 14 0 23 -2 20
-5z m-522 -8 c-6 -2 -9 -10 -6 -15 4 -7 2 -8 -4 -4 -18 11 -14 26 6 25 10 0
12 -3 4 -6z m125 1 c-3 -3 -12 -4 -19 -1 -8 3 -5 6 6 6 11 1 17 -2 13 -5z
m-33 -31 c-1 -15 4 -21 17 -20 21 1 25 12 9 20 -6 3 -5 4 2 3 24 -5 14 -31
-12 -31 -19 0 -25 5 -24 22 1 15 -4 21 -17 20 -22 -1 -25 -13 -6 -20 9 -4 9
-6 0 -6 -15 -1 -26 16 -19 28 3 4 16 8 28 7 17 -1 23 -7 22 -23z m66 17 c0 -5
-4 -10 -10 -10 -5 0 -10 5 -10 10 0 6 5 10 10 10 6 0 10 -4 10 -10z m-164 -31
c3 -6 -5 -3 -20 6 -14 10 -26 19 -26 22 0 7 39 -17 46 -28z m219 2 c-6 -5 -25
10 -25 20 0 5 6 4 14 -3 8 -7 12 -15 11 -17z m30 11 c-3 -3 -11 0 -18 7 -9 10
-8 11 6 5 10 -3 15 -9 12 -12z m111 -2 c0 -12 -4 -16 -9 -11 -5 5 -6 14 -3 20
10 15 12 14 12 -9z m-54 -8 c-7 -2 -9 -9 -6 -14 4 -7 2 -8 -4 -4 -6 4 -9 13
-6 21 4 8 11 12 17 8 8 -5 7 -8 -1 -11z m138 6 c0 -4 -9 -7 -20 -5 -29 5 -33
13 -5 13 14 0 25 -4 25 -8z m-258 -12 c7 4 8 2 4 -5 -9 -13 -26 -5 -25 12 0 9
2 8 6 -1 2 -6 10 -9 15 -6z m333 -15 c0 -16 -3 -27 -7 -25 -6 4 -5 29 1 52 4
11 7 -3 6 -27z m-529 3 c21 -11 23 -14 9 -12 -11 1 -26 -1 -33 -6 -17 -10 -26
-1 -19 19 8 19 8 19 43 -1z m65 -5 c6 -13 7 -19 1 -15 -6 3 -12 1 -14 -6 -3
-7 -7 -5 -11 6 -5 11 -3 15 5 10 8 -5 9 -2 5 9 -9 24 0 21 14 -4z m189 11 c0
-5 -8 -10 -17 -10 -15 0 -16 2 -3 10 19 12 20 12 20 0z m156 -13 c1 -9 -2 -15
-7 -11 -5 3 -7 9 -4 14 3 4 0 11 -5 13 -6 3 -5 4 1 3 7 -1 13 -10 15 -19z
m204 15 c0 -5 -7 -9 -15 -9 -8 0 -12 4 -9 9 3 4 9 8 15 8 5 0 9 -4 9 -8z
m-522 -27 c-3 -3 -9 2 -12 12 -6 14 -5 15 5 6 7 -7 10 -15 7 -18z m182 10 c0
-8 -4 -15 -10 -15 -5 0 -7 7 -4 15 4 8 8 15 10 15 2 0 4 -7 4 -15z m200 11 c0
-2 -8 -10 -17 -17 -16 -13 -17 -12 -4 4 13 16 21 21 21 13z m-556 -28 c1 -7 5
-18 8 -23 4 -6 3 -17 -3 -25 -6 -11 -9 -11 -10 -2 -3 27 -4 31 -11 37 -4 4 -4
13 -1 21 6 16 13 13 17 -8z m296 12 c0 -5 -8 -10 -17 -10 -15 0 -16 2 -3 10
19 12 20 12 20 0z m95 -8 c-3 -3 -11 0 -18 7 -9 10 -8 11 6 5 10 -3 15 -9 12
-12z m122 -4 c-3 -8 -6 -5 -6 6 -1 11 2 17 5 13 3 -3 4 -12 1 -19z m-303 -3
c-10 -8 -23 -14 -29 -14 -5 0 -1 6 9 14 11 8 24 15 30 15 5 0 1 -7 -10 -15z
m221 6 c3 -5 0 -13 -6 -17 -7 -4 -9 -3 -5 4 3 5 0 13 -6 15 -9 4 -10 6 -1 6 6
1 14 -3 18 -8z m-370 -11 c8 7 15 9 15 5 0 -9 -31 -34 -43 -35 -5 0 -5 5 -2
10 3 6 1 10 -4 10 -6 0 -11 5 -11 11 0 8 5 8 15 -1 12 -10 18 -10 30 0z m61
-5 c14 -13 14 -17 0 -30 -8 -8 -18 -15 -22 -15 -3 0 -1 7 6 15 10 12 10 18 0
30 -7 8 -9 15 -6 15 4 0 14 -7 22 -15z m134 5 c0 -5 -4 -10 -10 -10 -5 0 -10
5 -10 10 0 6 5 10 10 10 6 0 10 -4 10 -10z m64 2 c-6 -4 -10 -15 -8 -25 2 -17
-32 -44 -44 -33 -3 3 0 6 7 6 7 0 9 4 6 10 -3 5 0 7 9 4 10 -4 14 0 12 13 -4
22 2 33 17 33 9 0 9 -2 1 -8z m126 -17 c-7 -8 -16 -15 -21 -15 -5 0 -1 8 9 18
20 22 31 19 12 -3z m-74 3 c4 -6 0 -16 -8 -22 -8 -6 -15 -15 -15 -21 0 -5 -7
-11 -16 -13 -9 -2 -17 1 -17 7 0 6 7 7 17 4 10 -4 14 -2 9 5 -3 6 2 15 11 21
16 9 16 12 3 21 -9 6 -10 10 -3 10 6 0 15 -5 19 -12z m-292 -23 c-10 -8 -23
-14 -29 -14 -5 -1 1 8 15 19 14 10 27 17 29 14 3 -2 -4 -11 -15 -19z m151 15
c10 -16 -14 -40 -32 -33 -9 4 -14 2 -10 -3 3 -6 -3 -16 -15 -23 -11 -7 -17 -8
-13 -2 3 6 1 11 -4 11 -6 0 -11 5 -11 12 0 9 3 9 11 1 8 -8 16 -6 30 8 11 11
24 17 29 14 6 -4 10 -2 10 4 0 5 -6 12 -12 14 -10 4 -10 6 -1 6 6 1 15 -4 18
-9z m43 -4 c-7 -8 -15 -12 -17 -11 -5 6 10 25 20 25 5 0 4 -6 -3 -14z m249 -1
c4 -4 2 -5 -4 -1 -8 4 -13 2 -14 -6 0 -10 -2 -10 -6 0 -2 6 -10 9 -15 6 -6 -4
-8 -2 -5 4 8 12 32 10 44 -3z m-543 -21 c3 -9 2 -23 -2 -32 -11 -25 -9 -55 6
-60 8 -2 10 3 6 15 -5 14 -4 15 4 4 10 -14 86 -20 99 -7 4 3 -1 14 -10 23 -9
9 -20 13 -24 9 -4 -4 -1 -11 6 -15 9 -6 2 -8 -19 -7 -19 1 -35 7 -38 14 -2 7
-8 9 -14 6 -6 -4 -3 7 8 25 10 17 23 31 28 31 5 0 2 -8 -7 -18 -24 -26 -21
-39 3 -17 20 18 21 18 50 -10 16 -16 33 -26 36 -22 4 4 -3 15 -14 26 -12 10
-22 22 -22 26 0 5 12 -2 27 -16 17 -16 24 -18 21 -8 -4 9 -2 22 4 30 8 12 9
12 5 -1 -2 -8 0 -23 5 -34 6 -10 6 -16 1 -13 -4 3 -16 -6 -26 -19 -16 -21 -16
-25 -3 -30 9 -3 13 -11 10 -16 -4 -7 -10 -4 -16 6 -5 9 -17 16 -26 16 -16 -1
-16 -2 1 -14 20 -15 23 -28 4 -20 -8 3 -13 -4 -14 -17 -2 -17 1 -18 13 -9 10
9 14 9 14 1 0 -6 -4 -11 -10 -11 -5 0 -10 -5 -10 -11 0 -5 5 -7 10 -4 6 3 10
1 10 -4 0 -6 -5 -11 -11 -11 -6 0 -3 -7 5 -16 19 -18 20 -26 6 -40 -8 -8 -6
-15 5 -24 14 -12 16 -12 15 1 -5 29 0 41 14 36 10 -4 14 0 13 14 -1 20 -17 27
-17 7 0 -31 -14 8 -15 41 -1 30 2 38 14 33 9 -3 12 -1 7 6 -4 7 -2 12 3 12 15
0 14 -16 -1 -32 -17 -17 -23 -52 -9 -43 17 10 41 62 33 70 -4 5 -2 5 5 2 6 -4
13 -1 16 5 2 7 7 10 11 7 3 -3 -3 -16 -14 -29 -21 -24 -27 -46 -10 -35 6 3 10
1 10 -5 0 -7 -6 -10 -14 -7 -10 4 -14 -1 -13 -14 1 -14 7 -19 22 -17 21 3 28
33 12 54 -10 15 20 27 40 15 11 -6 12 -10 4 -15 -6 -4 -11 -2 -11 3 0 6 -4 11
-9 11 -5 0 -8 -11 -8 -25 0 -20 2 -23 13 -14 8 6 14 7 14 3 0 -5 -9 -15 -20
-22 -22 -13 -28 -34 -7 -26 7 2 21 -2 32 -10 11 -9 15 -16 8 -16 -6 0 -15 5
-18 10 -9 15 -25 12 -25 -5 0 -8 5 -14 12 -12 7 1 13 -8 14 -20 1 -12 -2 -20
-7 -17 -4 2 -6 10 -3 17 2 7 -4 13 -16 14 -17 2 -18 -1 -10 -17 6 -10 15 -22
21 -25 7 -5 6 -11 -2 -21 -6 -8 -8 -14 -4 -14 5 0 0 -10 -11 -22 -16 -18 -17
-21 -2 -15 12 4 15 2 11 -9 -5 -13 -8 -13 -24 2 -11 9 -19 12 -19 6 0 -6 10
-18 22 -26 15 -11 18 -16 8 -16 -9 0 -11 -3 -5 -8 6 -4 11 -15 13 -26 3 -14
-1 -17 -12 -12 -9 3 -22 8 -29 11 -8 3 -14 0 -14 -7 0 -7 -4 -22 -8 -33 -6
-17 -5 -16 10 3 12 17 20 20 29 13 7 -6 16 -8 19 -4 4 3 7 1 7 -5 0 -7 -4 -12
-10 -12 -5 0 -7 -7 -3 -16 5 -13 7 -13 14 -2 6 9 8 5 5 -12 -2 -14 1 -31 7
-38 7 -9 5 -11 -9 -5 -17 6 -17 5 -5 -10 7 -9 18 -14 24 -10 5 3 7 1 3 -5 -3
-6 -2 -13 4 -17 6 -4 8 -10 5 -15 -3 -5 -1 -11 5 -15 6 -4 8 -10 5 -15 -3 -4
2 -11 11 -14 8 -3 13 -10 10 -14 -3 -5 10 -27 28 -48 27 -32 32 -43 22 -55
-12 -16 -30 -19 -42 -6 -4 4 0 7 9 7 10 0 17 4 17 10 0 5 -3 9 -7 8 -16 -4
-53 14 -47 23 4 6 11 6 19 -1 10 -8 15 -8 21 1 5 8 3 9 -6 4 -9 -5 -11 -4 -6
4 4 6 4 11 -1 10 -18 -3 -36 1 -30 8 10 10 -13 32 -27 27 -7 -3 -19 3 -27 12
-12 16 -12 17 1 9 13 -7 13 -6 2 7 -11 14 -56 19 -77 7 -5 -3 -24 -5 -41 -4
-21 1 -30 -3 -27 -11 2 -7 0 -15 -6 -18 -6 -4 -8 -14 -5 -24 5 -14 2 -13 -11
3 -16 20 -16 20 -31 1 -8 -11 -14 -16 -15 -10 0 5 -2 19 -5 30 -2 12 3 27 11
34 8 7 12 17 8 23 -3 5 -1 7 5 4 14 -10 43 3 36 15 -4 6 -9 6 -14 -2 -11 -18
-29 -3 -25 21 3 16 1 18 -9 10 -7 -6 -16 -8 -19 -4 -4 3 -7 0 -7 -7 0 -7 -3
-10 -7 -7 -3 4 -17 0 -31 -9 -13 -9 -22 -12 -19 -8 3 5 -8 9 -23 9 -24 1 -27
-2 -17 -14 10 -12 9 -13 -2 -6 -9 5 -12 4 -7 -3 3 -6 2 -13 -4 -17 -6 -4 -7
-13 -1 -23 4 -9 7 -25 6 -35 -2 -9 1 -15 6 -12 5 4 6 -1 3 -9 -3 -9 -1 -16 5
-16 6 0 10 3 10 8 -5 27 2 35 15 17 8 -11 11 -25 8 -33 -3 -10 -7 -11 -12 -2
-5 9 -9 9 -14 1 -4 -6 -2 -11 5 -11 8 0 7 -5 -2 -17 -8 -9 -9 -14 -3 -10 7 4
18 -1 25 -10 8 -9 9 -14 3 -10 -6 3 -11 0 -11 -7 0 -8 6 -12 13 -9 8 3 11 -4
10 -21 -2 -15 1 -23 7 -19 6 4 7 1 2 -8 -7 -12 -6 -12 7 -1 10 8 19 9 22 3 3
-5 0 -12 -6 -14 -8 -4 -4 -8 10 -12 12 -4 22 -12 22 -17 0 -5 -5 -6 -12 -2 -6
4 -8 3 -4 -4 3 -6 2 -13 -4 -17 -5 -3 -10 3 -10 15 0 14 -4 19 -12 14 -7 -4
-10 -4 -6 1 5 5 -1 15 -12 22 -11 8 -18 18 -15 23 3 5 1 11 -4 14 -16 10 -48
80 -43 95 2 8 0 11 -5 8 -5 -3 -10 -1 -11 6 -2 23 -8 42 -20 65 -7 12 -10 22
-6 22 3 0 2 6 -4 13 -5 6 -8 22 -6 35 2 13 0 21 -4 18 -5 -3 -8 19 -7 49 2 37
-1 52 -9 48 -6 -4 -5 1 3 10 7 9 9 17 4 17 -5 0 -9 11 -9 24 0 14 4 22 8 20 4
-3 8 0 8 5 0 6 7 11 15 11 8 0 15 4 15 9 0 11 -33 9 -41 -3 -4 -4 -6 8 -5 27
0 19 5 33 10 30 4 -3 5 4 2 15 -5 14 -1 25 14 35 21 14 21 16 3 27 -17 11 -17
11 1 6 14 -5 17 -3 11 11 -4 10 -7 23 -7 28 2 23 9 45 17 52 4 4 5 3 1 -4 -4
-8 1 -11 14 -10 24 2 26 13 4 25 -13 7 -14 13 -5 30 6 11 20 24 31 27 11 4 18
11 14 16 -3 6 -12 5 -22 -3 -15 -12 -16 -11 -3 5 10 12 17 15 25 7 18 -18 30
-11 12 8 -15 18 -15 21 5 46 25 31 34 27 34 -17 0 -16 5 -32 10 -34 19 -6 10
69 -10 83 -10 8 -14 14 -8 14 6 0 16 -7 23 -15 7 -9 15 -13 18 -10 3 3 -3 14
-13 25 -16 17 -16 20 -3 15 9 -4 19 -13 22 -21z m196 16 c0 -5 -8 -10 -17 -10
-15 0 -16 2 -3 10 19 12 20 12 20 0z m240 -10 c8 -5 11 -10 5 -10 -5 0 -17 5
-25 10 -8 5 -10 10 -5 10 6 0 17 -5 25 -10z m54 -14 c-3 -9 -12 -12 -22 -9
-15 6 -9 11 25 22 1 1 0 -5 -3 -13z m-214 -6 c0 -5 -4 -10 -10 -10 -5 0 -10 5
-10 10 0 6 5 10 10 10 6 0 10 -4 10 -10z m123 -8 c-10 -10 -20 -17 -22 -16 -6
5 20 34 30 34 5 0 1 -8 -8 -18z m-143 -25 c0 -8 -3 -7 -9 2 -7 11 -13 6 -26
-19 -15 -29 -15 -32 -1 -27 9 4 16 2 16 -3 0 -5 -10 -9 -22 -9 -13 1 -32 -2
-43 -7 -17 -7 -18 -6 -5 8 8 9 18 14 21 12 3 -2 12 9 20 24 8 15 18 30 24 34
12 8 25 1 25 -15z m75 -7 c0 -14 -6 -25 -13 -25 -7 0 -17 -7 -22 -15 -5 -8
-12 -11 -16 -7 -9 8 27 37 38 31 4 -2 6 4 5 15 -1 12 -8 19 -19 18 -11 -1 -16
-7 -13 -15 2 -7 0 -10 -5 -7 -6 3 -10 1 -10 -6 0 -7 -3 -10 -6 -7 -12 13 16
45 38 44 17 -1 23 -7 23 -26z m115 26 c0 -2 -7 -6 -15 -10 -8 -3 -15 -1 -15 4
0 6 7 10 15 10 8 0 15 -2 15 -4z m-44 -30 c-1 -17 -6 -23 -18 -21 -9 2 -19 -3
-22 -11 -6 -16 -26 -19 -26 -3 0 5 4 8 9 5 5 -3 12 1 15 10 3 8 10 13 15 9 5
-3 12 4 16 15 9 27 13 25 11 -4z m-221 -11 c-31 -25 -56 -34 -33 -12 13 14 49
36 58 37 3 0 -8 -11 -25 -25z m185 21 c0 -3 -4 -8 -10 -11 -5 -3 -10 -1 -10 4
0 6 5 11 10 11 6 0 10 -2 10 -4z m-106 -32 c5 -14 4 -15 -9 -4 -17 14 -19 20
-6 20 5 0 12 -7 15 -16z m894 -2 c38 -4 41 -6 30 -21 -11 -14 -11 -14 4 -3 13
10 83 12 83 2 0 -1 9 -3 21 -4 35 -4 194 -58 189 -65 -2 -4 4 -7 14 -7 26 0
162 -80 211 -125 23 -21 44 -39 47 -39 14 0 43 -39 38 -52 -3 -8 2 -21 12 -29
16 -13 17 -12 4 4 -8 9 -11 20 -9 23 3 3 15 -8 27 -23 11 -15 28 -36 38 -45
10 -12 12 -18 5 -19 -7 -1 -18 -2 -24 -3 -7 -1 -20 1 -28 5 -11 5 -16 2 -16
-11 0 -10 5 -16 11 -12 5 3 24 7 42 9 32 2 34 0 73 -80 23 -46 42 -93 43 -105
1 -12 5 -22 9 -22 13 0 9 -28 -5 -33 -7 -3 -5 -6 6 -6 9 -1 17 -8 17 -16 0 -9
-6 -12 -17 -8 -11 4 -14 3 -9 -5 4 -7 15 -12 24 -12 12 0 13 -3 4 -12 -7 -7
-12 -19 -11 -27 0 -11 3 -10 8 4 7 17 8 17 13 -7 3 -15 1 -25 -3 -22 -5 3 -9
0 -9 -5 0 -6 4 -11 8 -11 5 0 8 -36 8 -80 0 -44 -3 -80 -7 -80 -3 0 -5 -11 -4
-25 2 -14 -3 -49 -11 -77 -8 -29 -17 -60 -19 -68 -2 -8 -4 -17 -5 -20 -1 -3
-2 -8 -1 -12 0 -4 -6 -5 -14 -2 -8 4 -15 2 -15 -4 0 -6 6 -12 13 -15 6 -2 -1
-4 -16 -4 -20 0 -25 3 -18 10 6 6 11 16 11 21 0 6 -7 0 -16 -12 -8 -12 -20
-19 -26 -16 -6 4 -20 7 -32 8 -25 1 -30 37 -6 44 13 5 13 3 1 -11 -9 -11 -10
-17 -2 -17 6 0 11 4 11 8 0 4 9 8 21 9 17 2 18 -1 9 -13 -8 -9 -9 -14 -2 -14
18 0 19 24 2 47 -10 12 -16 34 -14 49 1 14 0 23 -3 20 -7 -7 -43 33 -43 47 0
6 10 1 23 -11 13 -12 27 -22 31 -22 4 0 -4 11 -18 23 -14 13 -22 28 -18 32 4
5 1 5 -5 1 -7 -4 -13 -3 -13 3 0 5 6 12 13 14 9 4 9 6 -1 6 -7 1 -15 -6 -18
-14 -4 -8 -11 -12 -16 -9 -10 7 13 -34 44 -74 9 -13 15 -29 12 -37 -3 -7 -1
-16 5 -20 6 -3 11 -11 11 -17 0 -6 -8 -3 -19 6 -15 14 -20 14 -24 3 -5 -14
-41 -17 -53 -4 -4 4 -14 -2 -22 -14 -10 -15 -17 -17 -27 -9 -8 6 -14 19 -14
28 -2 66 -8 96 -18 100 -7 2 -13 -1 -13 -8 0 -6 5 -8 10 -5 16 10 11 -7 -6
-19 -15 -12 -10 -51 6 -41 4 3 10 -2 14 -10 3 -8 1 -17 -4 -20 -6 -4 -10 -1
-10 6 0 7 -3 9 -7 5 -4 -4 6 -17 21 -30 l29 -23 -29 0 c-30 0 -32 4 -35 59 0
10 -4 20 -9 23 -5 3 -8 -7 -6 -22 1 -16 -2 -36 -7 -47 -13 -26 23 -62 49 -49
11 5 36 8 56 8 20 -1 35 2 33 6 -3 4 1 9 7 12 7 2 10 7 7 11 -4 4 -14 0 -22
-9 -21 -20 -24 -19 -22 7 1 12 7 24 15 26 9 3 10 0 4 -9 -6 -12 -5 -12 9 0 20
16 28 11 27 -15 -3 -71 -5 -84 -15 -81 -5 2 -9 11 -7 19 2 12 -7 15 -41 13
-24 -1 -48 -5 -55 -9 -7 -4 -24 5 -42 22 -16 17 -37 29 -46 28 -9 0 -19 4 -21
10 -2 7 6 10 21 9 27 -3 37 12 31 47 -3 14 4 31 17 45 12 13 19 26 15 29 -4 4
3 20 15 37 12 17 17 27 10 23 -12 -7 -52 13 -52 26 0 5 7 8 15 8 8 0 15 -4 15
-10 0 -5 5 -10 10 -10 6 0 10 4 10 9 0 15 -41 24 -54 11 -8 -8 -5 -16 13 -29
18 -14 22 -23 16 -37 -4 -11 -9 -25 -11 -33 -1 -8 -10 -21 -18 -29 -14 -14
-16 -14 -22 1 -3 9 -11 17 -17 17 -5 0 -3 -8 6 -18 23 -25 22 -39 -1 -19 -10
10 -22 14 -25 11 -4 -4 -13 -1 -21 5 -12 10 -12 16 0 39 8 15 14 37 14 50 0
12 4 22 9 22 4 0 7 31 5 70 -1 41 2 73 8 76 7 5 9 -3 6 -20 -4 -18 -2 -24 4
-18 16 16 4 47 -16 44 -10 -2 -15 1 -12 7 4 6 0 26 -8 46 -8 19 -12 35 -8 35
3 0 1 5 -5 11 -6 6 -9 18 -6 25 3 8 1 14 -4 14 -14 0 -34 49 -27 63 4 7 4 9
-1 5 -9 -8 -35 9 -35 22 0 5 10 6 23 3 12 -3 19 -3 16 0 -3 4 -16 8 -30 10
-13 2 -28 13 -34 25 -5 12 -13 22 -18 22 -5 0 -14 6 -21 13 -32 30 -75 63
-102 78 -16 9 -28 21 -27 27 2 6 -4 9 -11 6 -8 -3 -25 0 -38 7 -23 13 -29 15
-49 18 -5 0 -7 5 -4 11 3 5 0 7 -7 5 -8 -3 -32 1 -55 9 -23 8 -44 12 -47 9 -3
-4 -6 -2 -6 3 0 8 -25 12 -104 14 -16 1 -37 5 -46 10 -10 5 -21 6 -24 2 -4 -4
-19 -7 -34 -8 -146 -8 -276 -59 -356 -139 -25 -25 -51 -59 -58 -75 -7 -17 -16
-30 -20 -30 -13 0 -48 111 -48 152 0 186 190 348 450 385 19 3 37 7 39 9 5 4
226 2 279 -4z m-818 -43 c7 -13 7 -19 0 -19 -5 0 -10 7 -10 15 0 9 -6 12 -15
9 -8 -4 -15 -13 -15 -21 0 -8 5 -11 10 -8 6 3 10 1 10 -4 0 -19 -17 -12 -34
14 -9 14 -21 23 -26 20 -6 -4 -10 -1 -10 4 0 14 13 14 26 1 13 -13 46 -2 37
13 -3 6 -1 7 5 3 7 -4 17 -16 22 -27z m-65 -19 c3 -6 -1 -7 -9 -4 -18 7 -21
14 -7 14 6 0 13 -4 16 -10z m26 -37 c13 -15 12 -15 -8 -4 -15 7 -23 8 -23 1 0
-5 6 -10 13 -10 9 0 9 -2 -1 -9 -8 -4 -13 -11 -13 -15 1 -3 -1 -6 -4 -6 -25 0
-28 2 -12 11 9 6 15 14 12 20 -7 10 2 29 14 29 5 0 15 -7 22 -17z m760 -386
c95 -28 159 -87 159 -147 0 -32 -52 -82 -115 -110 -135 -62 -335 -55 -444 14
-53 34 -73 61 -74 100 -3 118 273 201 474 143z m-1055 -71 c-1 -13 -7 -30 -14
-38 -12 -16 -9 -55 7 -71 7 -7 13 -5 17 7 6 16 8 16 24 1 17 -16 38 -6 26 13
-2 4 3 16 11 27 13 16 14 17 10 3 -4 -10 -2 -17 5 -15 6 1 13 -4 15 -11 3 -8
-1 -10 -11 -6 -19 7 -21 -7 -3 -25 10 -11 9 -12 -2 -6 -9 5 -12 4 -8 -2 3 -5
0 -10 -8 -10 -8 0 -12 3 -10 7 2 4 -2 7 -10 7 -8 0 -13 -5 -12 -10 1 -5 -4
-12 -12 -15 -8 -2 -11 0 -7 6 3 6 1 14 -5 18 -8 5 -9 3 -4 -7 5 -8 5 -11 0 -7
-4 4 -15 2 -23 -5 -13 -9 -14 -9 -8 0 5 9 2 11 -11 7 -14 -4 -15 -3 -4 4 7 5
9 12 5 15 -5 3 -15 -1 -22 -9 -9 -10 -10 -14 -1 -14 7 0 4 -9 -7 -22 -10 -12
-13 -18 -6 -14 8 5 11 3 10 -5 -2 -7 2 -13 9 -14 16 0 29 -15 14 -15 -7 0 -10
-4 -7 -8 2 -4 1 -14 -5 -22 -5 -8 -9 -10 -10 -5 -2 31 -9 49 -25 66 -15 16
-15 19 -1 24 28 11 -2 78 -31 68 -9 -3 -14 -3 -10 2 4 4 3 16 -2 25 -7 13 -5
21 5 30 8 7 12 16 9 21 -3 5 2 6 10 3 9 -3 16 -10 16 -15 0 -5 5 -9 10 -9 5 0
9 6 7 13 -1 6 4 11 11 10 6 -2 12 2 12 8 0 5 4 8 8 5 4 -2 14 -1 22 5 8 5 15
9 16 9 0 0 0 -11 0 -24z m189 -47 c-7 -10 31 -40 45 -37 7 2 14 -6 16 -17 2
-15 -3 -21 -17 -22 -21 -2 -21 -1 -3 20 16 19 15 18 -9 -2 -26 -24 -39 -17
-14 8 10 10 9 12 -3 9 -9 -2 -14 3 -12 12 3 12 1 13 -9 3 -15 -15 -33 -17 -24
-4 3 5 1 12 -4 15 -11 7 -25 -12 -26 -34 0 -8 -7 -14 -15 -12 -10 3 -9 -3 5
-19 16 -18 17 -21 4 -16 -9 3 -22 0 -28 -6 -15 -15 -41 -18 -41 -4 0 6 -13 -4
-30 -23 -16 -19 -29 -30 -30 -24 0 5 5 15 12 22 9 9 9 15 -1 25 -11 10 -13 9
-8 -6 4 -10 3 -15 -2 -12 -5 3 -13 0 -17 -6 -5 -8 -3 -9 6 -4 9 5 11 4 6 -4
-6 -8 -12 -9 -20 -2 -7 6 -15 8 -19 5 -3 -3 -4 2 -3 13 2 10 10 18 19 18 8 0
19 4 23 8 4 4 13 2 21 -4 9 -8 17 -8 26 -2 6 6 21 9 32 7 25 -4 37 16 22 35
-9 11 -9 13 0 8 16 -10 28 12 14 26 -16 16 -14 30 4 24 8 -4 16 -3 19 1 2 4
18 7 34 7 17 1 29 -2 27 -6z m-36 -26 c-4 -27 1 -35 16 -23 8 7 16 9 16 4 1
-5 2 -13 4 -19 1 -5 3 -17 4 -25 1 -13 2 -13 11 0 8 13 10 13 10 1 0 -11 3
-12 11 -4 16 16 60 -13 52 -33 -4 -12 6 -18 28 -16 3 0 10 -8 17 -19 14 -23 0
-26 -18 -4 -7 9 -19 14 -26 11 -8 -3 -13 -2 -13 2 2 13 -1 27 -10 41 -8 12
-12 12 -25 2 -12 -10 -16 -10 -16 -2 0 7 -4 10 -9 6 -6 -3 -14 3 -20 12 -6 10
-11 12 -11 6 0 -7 -6 -12 -12 -10 -7 1 -14 -5 -14 -13 -1 -8 -2 -19 -3 -24 0
-5 -8 -3 -16 4 -12 10 -15 10 -15 0 0 -7 -7 -10 -15 -7 -8 4 -17 2 -20 -4 -4
-5 -11 -7 -16 -4 -5 4 -9 1 -9 -5 0 -6 -5 -8 -12 -4 -7 4 -8 3 -4 -4 5 -8 2
-10 -8 -6 -9 4 -16 1 -16 -6 0 -7 -7 -10 -16 -6 -8 3 -13 2 -9 -3 3 -5 0 -11
-7 -13 -7 -3 -5 -7 6 -11 11 -4 15 -3 10 4 -4 7 -1 10 7 7 8 -3 13 -11 12 -17
-2 -6 2 -11 7 -11 6 0 8 11 6 24 -3 17 0 23 8 20 6 -2 12 -20 13 -39 1 -34 0
-34 -24 -18 -13 9 -27 13 -30 9 -4 -4 2 -9 14 -12 21 -6 21 -6 2 -25 -10 -10
-19 -25 -18 -31 0 -10 2 -10 5 -1 3 7 12 9 20 6 13 -5 13 -8 2 -15 -9 -7 -8
-8 5 -4 15 5 17 2 12 -17 -5 -19 -4 -20 5 -4 6 9 15 17 20 17 11 0 9 -22 -2
-30 -3 -3 1 -14 9 -25 15 -19 15 -19 8 5 -7 22 -6 23 8 12 9 -8 14 -19 11 -26
-4 -10 7 -13 40 -11 51 2 53 -1 31 -32 -8 -12 -12 -24 -8 -26 23 -12 43 -15
43 -7 0 6 -9 10 -20 10 -17 0 -19 3 -8 19 7 11 16 17 20 15 5 -3 6 -9 3 -14
-3 -4 2 -10 10 -14 8 -3 12 -12 9 -20 -7 -17 12 -30 29 -19 19 12 45 14 52 3
3 -6 12 -10 18 -10 7 0 4 5 -5 11 -10 5 -18 15 -18 21 0 6 7 5 17 -3 11 -10
14 -10 9 -1 -4 6 -2 12 3 12 6 0 11 5 11 11 0 8 -6 7 -17 -2 -15 -12 -16 -12
-10 6 5 14 0 10 -17 -10 -14 -16 -25 -26 -26 -22 0 4 -9 3 -20 -3 -11 -6 -20
-7 -20 -3 0 11 28 34 62 52 33 17 41 36 27 63 -16 30 -3 34 16 5 13 -21 14
-30 5 -48 -8 -14 -8 -19 -1 -15 10 7 16 -6 12 -27 -1 -5 2 -6 7 -3 5 3 14 -6
20 -19 12 -27 27 -32 38 -14 4 7 1 10 -7 7 -8 -3 -22 8 -32 25 -17 28 -17 29
4 48 12 10 18 19 14 19 -5 0 -17 -7 -27 -17 -23 -21 -24 0 0 23 15 15 15 17 1
12 -13 -5 -16 -1 -14 23 1 16 10 35 19 42 14 11 13 12 -9 13 -23 2 -24 -1 -20
-33 3 -28 2 -33 -9 -24 -9 7 -13 28 -11 56 2 41 -13 92 -16 55 -1 -8 -1 -22 0
-30 2 -13 1 -13 -8 0 -14 20 -14 26 5 44 27 27 33 21 35 -35 0 -11 12 -15 44
-15 24 0 42 3 39 7 -2 4 1 11 7 14 7 5 9 -1 7 -16 -2 -17 -9 -23 -23 -22 -11
1 -14 0 -7 -3 6 -3 12 -10 12 -15 0 -6 -6 -9 -12 -8 -25 3 -38 -1 -38 -12 0
-8 5 -8 15 1 10 8 15 9 15 2 0 -6 -8 -16 -17 -21 -10 -6 -14 -11 -9 -11 6 0
20 10 33 22 13 12 23 16 23 10 0 -6 -10 -20 -22 -32 -12 -11 -16 -20 -10 -20
7 0 22 16 33 35 12 19 28 35 37 36 11 0 13 2 4 6 -7 3 -19 -1 -27 -7 -11 -9
-15 -9 -15 -1 0 6 7 14 15 17 8 4 12 10 9 15 -3 6 0 17 8 26 7 10 8 14 1 10
-6 -4 -18 -4 -27 -1 -13 5 -14 10 -5 20 9 11 15 11 34 -4 17 -12 20 -20 13
-30 -8 -9 -6 -18 8 -33 17 -19 17 -20 -4 -26 -20 -5 -26 -15 -23 -35 0 -5 -3
-8 -9 -8 -5 0 -10 -5 -10 -11 0 -8 5 -8 15 1 12 10 18 10 30 0 10 -9 15 -9 15
-1 0 6 -5 11 -11 11 -5 0 -7 4 -4 10 4 6 -1 7 -12 4 -12 -4 -10 0 7 14 13 11
28 18 33 15 5 -3 4 -9 -3 -13 -10 -6 -10 -12 0 -26 9 -16 11 -16 6 -2 -8 28
10 30 23 2 6 -14 16 -22 21 -19 6 3 10 -3 10 -14 0 -12 -6 -20 -12 -19 -7 2
-14 -7 -16 -20 -2 -13 -8 -20 -14 -16 -7 4 -8 2 -4 -5 10 -16 26 -4 26 20 0
10 6 18 13 17 7 -2 12 7 12 20 0 12 -4 23 -10 23 -5 1 -17 14 -26 28 -9 14
-27 37 -39 50 -18 18 -20 25 -10 31 13 8 57 -13 71 -34 4 -5 12 -5 18 -2 17
11 13 -10 -4 -24 -8 -7 -15 -18 -15 -24 0 -7 3 -7 8 -1 11 15 42 15 42 -1 0
-17 16 -18 26 -2 4 6 3 8 -3 5 -6 -4 -13 0 -17 8 -3 9 -12 12 -23 8 -16 -6
-16 -5 -4 10 10 13 17 15 27 6 8 -6 14 -8 14 -3 0 4 7 -1 16 -12 8 -10 12 -13
8 -5 -5 11 -3 13 10 8 10 -4 29 -10 42 -13 14 -4 21 -11 17 -18 -4 -6 0 -5 9
2 13 10 22 11 37 2 12 -6 21 -8 21 -4 0 3 8 0 17 -7 9 -8 14 -9 11 -4 -5 7 19
11 70 11 143 0 244 24 336 78 57 33 120 96 138 137 7 16 16 29 19 29 3 0 15
-19 25 -42 27 -59 25 -176 -4 -238 -30 -64 -115 -146 -192 -184 -71 -36 -224
-81 -246 -72 -7 3 -16 1 -20 -5 -4 -7 -10 -6 -19 1 -10 8 -15 8 -21 -1 -5 -8
-38 -10 -123 -5 -64 4 -127 8 -141 10 -14 2 -33 4 -43 5 -11 1 -16 6 -11 14 5
9 4 9 -5 1 -9 -9 -23 -9 -48 -2 -20 5 -43 11 -52 13 -9 2 -29 9 -46 16 -16 6
-39 14 -50 16 -10 2 -22 8 -26 14 -3 6 -9 10 -13 10 -20 -3 -26 0 -20 11 4 6
3 8 -4 4 -12 -7 -58 10 -84 32 -10 9 -18 12 -18 8 0 -4 -6 -2 -12 4 -7 5 -41
31 -75 56 -35 25 -63 50 -63 55 0 6 -6 7 -12 3 -7 -4 -10 -4 -6 1 4 4 -9 23
-30 42 -33 31 -35 36 -23 55 12 19 11 23 -5 35 -10 7 -14 13 -9 13 5 0 4 5 -2
11 -14 14 -4 52 12 45 7 -2 23 6 35 19 12 13 30 22 40 20 10 -2 24 3 31 11 8
10 15 11 24 4 9 -8 14 -6 18 4 4 9 2 18 -4 22 -7 4 -6 10 1 19 6 7 10 17 9 21
-2 13 0 24 6 24 3 0 4 -3 4 -7z m47 -91 c15 -8 24 -8 32 0 10 10 23 -5 33 -37
2 -5 9 -9 15 -7 6 1 18 -5 25 -15 8 -9 9 -14 4 -11 -6 4 -18 -7 -27 -23 -10
-16 -13 -29 -7 -29 6 0 7 -5 3 -11 -4 -8 -9 -7 -15 2 -4 8 -3 19 3 26 7 9 7
13 -1 13 -7 0 -9 5 -5 13 4 6 -2 3 -15 -7 -21 -19 -22 -19 -39 -1 -16 17 -16
18 1 11 10 -3 28 0 39 8 22 16 10 29 -19 20 -16 -6 -16 -5 2 9 11 9 18 17 15
17 -33 8 -38 7 -34 -5 6 -14 -12 -15 -34 -1 -24 15 -26 -4 -3 -34 12 -17 17
-30 12 -30 -5 0 -19 14 -31 30 -12 17 -27 30 -33 30 -8 0 -8 -3 -2 -8 13 -9
19 -46 6 -38 -5 3 -17 -1 -25 -10 -9 -9 -16 -11 -16 -4 0 6 -4 9 -9 5 -5 -3
-13 0 -17 6 -4 8 -3 9 4 5 7 -4 12 -2 12 3 0 6 3 10 8 10 17 -3 32 2 32 10 0
10 -26 9 -36 -2 -11 -10 -24 -8 -24 4 0 5 4 8 9 5 5 -4 11 -1 13 6 3 7 18 13
34 13 37 1 55 12 48 30 -6 15 11 15 42 -3z m154 -13 c0 -5 4 -8 8 -5 13 8 42
-32 36 -49 -8 -20 -24 -9 -18 13 5 15 4 15 -6 2 -9 -12 -10 -11 -6 6 4 14 2
21 -8 21 -11 0 -12 -6 -5 -24 12 -32 12 -33 -6 -27 -8 4 -13 10 -10 14 3 5 1
11 -4 14 -11 7 -2 46 10 46 5 0 9 -5 9 -11z m-160 -40 c0 11 3 11 15 1 8 -6
20 -8 26 -4 7 4 9 3 5 -4 -10 -17 -57 -7 -68 14 -9 18 -8 18 6 0 10 -12 16
-15 16 -7z m230 -17 c0 -5 -3 -12 -7 -16 -4 -4 -8 -15 -8 -23 0 -9 -7 -19 -15
-21 -13 -5 -13 -3 -1 12 12 14 12 16 -3 10 -9 -3 -16 -10 -16 -15 0 -15 -17
-10 -24 7 -4 10 -2 13 7 9 6 -4 4 0 -6 8 -16 14 -16 15 8 15 13 0 22 -5 19
-10 -3 -5 3 -4 14 3 12 7 18 17 16 21 -3 4 0 8 5 8 6 0 11 -4 11 -8z m-247
-48 c-8 -21 -33 3 -26 24 4 15 3 15 -6 2 -6 -8 -11 -10 -11 -4 0 20 13 24 31
8 10 -9 15 -22 12 -30z m-3 -19 c12 7 23 -13 14 -27 -5 -8 -11 -6 -20 6 -6 9
-15 13 -18 8 -3 -6 1 -12 9 -16 8 -3 12 -12 9 -20 -3 -8 -12 -12 -21 -9 -12 5
-12 8 -1 15 10 8 9 9 -3 5 -13 -4 -16 0 -15 19 0 13 6 24 11 24 6 0 4 4 -4 9
-22 14 -43 2 -36 -20 4 -11 3 -19 -2 -18 -4 1 -17 1 -28 0 -16 -1 -17 -3 -5
-11 8 -5 17 -6 20 -2 10 13 30 12 30 -2 0 -10 -9 -13 -31 -11 -37 5 -42 9 -46
37 -3 18 -1 19 12 8 13 -10 18 -11 28 -1 9 10 8 15 -7 27 -19 13 -18 14 9 12
16 -2 30 3 33 10 2 7 14 0 29 -18 14 -17 29 -28 33 -25z m67 36 c14 12 16 12
11 -1 -9 -25 9 -48 37 -45 26 3 27 -2 10 -61 -4 -12 -2 -25 4 -28 19 -12 12
-24 -33 -55 l-45 -29 -16 24 c-13 20 -14 28 -4 40 6 8 18 14 25 14 8 0 14 4
14 10 0 5 -6 7 -13 4 -8 -3 -14 2 -14 11 0 9 6 14 13 11 9 -3 11 1 7 12 -6 14
-4 15 9 4 8 -6 14 -23 13 -36 -2 -19 1 -23 13 -19 10 5 13 3 8 -6 -5 -7 -16
-11 -26 -8 -13 3 -17 0 -13 -9 4 -11 10 -11 26 -2 29 14 28 13 21 32 -3 9 -10
13 -15 10 -17 -10 -9 15 9 26 14 9 14 11 1 7 -17 -6 -39 10 -39 27 0 6 5 5 12
-2 16 -16 25 -15 32 4 5 14 4 15 -8 5 -11 -9 -17 -6 -30 14 -17 25 -36 33 -36
15 0 -5 5 -9 11 -7 6 1 13 -3 16 -9 2 -7 -4 -11 -14 -10 -14 1 -18 -6 -17 -32
1 -20 -3 -31 -10 -29 -6 2 -9 13 -8 23 2 10 1 16 -3 12 -3 -3 -8 -14 -9 -24
-2 -10 -8 -20 -15 -22 -10 -3 -10 0 -1 19 7 13 19 32 27 41 10 11 12 22 5 35
-13 26 -4 47 14 32 11 -9 18 -8 31 2z m-167 -31 c0 -5 -5 -10 -11 -10 -5 0 -7
5 -4 10 3 6 8 10 11 10 2 0 4 -4 4 -10z m47 -12 c2 -17 0 -19 -7 -8 -5 8 -6
18 -4 22 8 12 10 10 11 -14z m-92 -8 c3 -5 1 -10 -4 -10 -6 0 -11 5 -11 10 0
6 2 10 4 10 3 0 8 -4 11 -10z m205 -20 c0 -5 -4 -10 -10 -10 -5 0 -10 5 -10
10 0 6 5 10 10 10 6 0 10 -4 10 -10z m-83 -34 c3 -3 3 -9 -1 -13 -4 -4 -11 -1
-16 7 -7 11 -10 12 -10 2 0 -7 -4 -10 -10 -7 -6 4 -7 -1 -3 -11 4 -12 8 -14
11 -5 3 9 9 8 27 -3 20 -13 24 -13 29 -1 3 9 12 12 21 9 28 -11 -2 -29 -50
-29 -24 0 -42 2 -39 4 2 3 -6 16 -18 29 -13 14 -17 22 -10 18 6 -4 12 -3 12 3
0 10 46 8 57 -3z m1553 -126 c0 -5 -4 -10 -10 -10 -5 0 -10 5 -10 10 0 6 5 10
10 10 6 0 10 -4 10 -10z m-144 -15 c5 -12 10 -13 20 -4 15 13 17 9 8 -15 -3
-9 -9 -14 -13 -12 -4 3 -6 -14 -4 -37 5 -67 3 -97 -7 -97 -15 0 -19 14 -10 31
7 12 6 22 -5 33 -16 16 -20 31 -6 22 11 -7 9 64 -2 82 -5 7 -4 12 3 12 6 0 13
-7 16 -15z m-20 -34 c-2 -15 -6 -34 -11 -40 -4 -7 1 -21 11 -32 9 -10 13 -19
7 -19 -5 0 -10 -6 -11 -12 0 -7 -3 -22 -6 -33 -2 -11 -5 -22 -5 -25 -1 -3 -6
2 -11 10 -9 13 -10 13 -10 0 0 -13 -1 -13 -10 0 -14 22 -12 28 8 26 9 0 17 6
17 14 0 8 3 18 7 21 5 3 2 14 -6 24 -13 18 -15 18 -45 -13 -18 -17 -29 -36
-26 -42 4 -6 11 -8 16 -5 5 4 9 1 9 -4 0 -6 -2 -11 -4 -11 -2 0 -10 -2 -18 -5
-27 -11 -20 44 10 72 15 13 27 28 27 31 0 7 47 72 52 72 1 0 1 -13 -1 -29z
m91 -3 c1 -10 -4 -18 -10 -19 -7 0 -20 -2 -29 -4 -14 -3 -15 1 -6 20 12 27 43
29 45 3z m40 -32 c-3 -8 1 -20 9 -26 10 -9 14 -9 14 -1 0 6 5 11 10 11 16 0
11 -17 -7 -24 -21 -9 -46 16 -37 37 3 9 8 17 11 17 3 0 3 -6 0 -14z m78 -25
c-3 -6 -11 -11 -17 -11 -6 0 -6 6 2 15 14 17 26 13 15 -4z m-136 -12 c7 10 11
9 22 -6 17 -24 54 -45 63 -36 9 9 86 11 80 2 -2 -4 0 -10 6 -14 5 -3 15 -15
20 -26 17 -31 -7 -23 -25 9 -15 26 -15 26 -9 2 4 -14 13 -29 20 -33 8 -4 14
-13 14 -19 0 -7 -5 -6 -15 2 -15 13 -20 5 -16 -27 1 -6 -3 -14 -9 -18 -5 -3
-10 1 -10 9 0 9 -5 16 -11 16 -6 0 -4 6 4 14 18 19 11 59 -14 74 -13 8 -19 9
-19 1 0 -5 -4 -7 -10 -4 -5 3 -10 1 -10 -6 0 -7 -8 -5 -20 6 -11 10 -20 15
-20 10 0 -4 -8 3 -18 15 -17 21 -18 21 -32 4 -14 -17 -13 -18 2 -6 14 11 18
10 27 -7 15 -26 14 -31 -4 -25 -8 4 -13 9 -11 13 3 4 -4 7 -15 7 -17 0 -18 -2
-5 -11 10 -8 12 -16 5 -26 -7 -12 -9 -12 -9 0 0 8 -3 12 -6 8 -10 -10 6 -26
21 -21 8 4 12 10 9 15 -3 5 -1 9 4 9 6 0 13 -7 16 -16 9 -22 8 -24 -8 -18 -19
7 -30 -14 -17 -30 6 -7 8 -16 4 -19 -9 -10 -25 -9 -19 1 3 5 -2 21 -10 37 -13
26 -13 79 0 92 3 3 1 15 -5 27 -10 21 -10 21 6 1 13 -16 17 -17 24 -6z m-99
-4 c0 -8 -4 -15 -10 -15 -5 0 -10 7 -10 15 0 8 5 15 10 15 6 0 10 -7 10 -15z
m322 -3 c-8 -2 -7 -10 4 -28 9 -13 12 -24 8 -24 -16 0 -30 15 -28 30 3 37 5
41 16 34 9 -6 9 -9 0 -12z m71 2 c15 2 30 -1 33 -5 3 -5 0 -9 -6 -9 -6 0 -8
-5 -4 -12 4 -7 3 -8 -5 -4 -15 10 -79 18 -66 8 16 -11 12 -45 -5 -50 -12 -4
-12 -2 -3 8 8 9 9 19 3 31 -13 23 -2 53 14 40 6 -5 24 -8 39 -7z m-403 -24 c8
-5 11 -12 7 -17 -5 -4 -12 -1 -17 7 -6 8 -10 10 -10 4 0 -6 -7 -11 -15 -11
-18 0 -20 13 -2 20 18 8 21 8 37 -3z m410 -16 c11 -12 11 -15 0 -12 -7 2 -15
-3 -18 -11 -3 -9 0 -11 9 -6 8 4 6 -1 -4 -11 -10 -10 -30 -19 -45 -19 -16 0
-26 -5 -24 -12 1 -7 -3 -13 -10 -13 -6 0 -8 -3 -5 -6 4 -4 18 1 32 10 14 9 25
12 25 6 0 -6 -7 -13 -15 -16 -8 -4 -13 -10 -10 -14 3 -5 -3 -15 -13 -22 -10
-7 -21 -21 -25 -31 -3 -9 -12 -16 -19 -15 -7 2 -11 -4 -10 -12 2 -8 1 -12 -3
-8 -9 9 -43 -25 -37 -36 3 -5 0 -6 -6 -2 -7 4 -12 2 -12 -4 0 -6 -11 -15 -25
-22 -13 -6 -22 -16 -18 -22 3 -6 2 -8 -2 -3 -5 4 -22 -5 -38 -20 -17 -16 -27
-23 -23 -16 3 6 1 13 -5 15 -7 2 -13 16 -15 31 -1 15 1 25 5 23 11 -7 36 12
28 21 -5 4 -12 1 -17 -7 -6 -9 -10 -10 -10 -3 0 20 22 27 35 10 7 -9 14 -14
17 -11 4 3 9 0 14 -7 4 -8 3 -10 -4 -5 -7 4 -12 2 -12 -3 0 -6 -3 -10 -7 -10
-29 5 -40 -18 -18 -38 4 -4 6 -3 2 2 -3 6 -2 17 4 25 6 10 9 11 9 3 0 -9 6 -8
19 4 11 9 17 23 13 32 -5 14 -4 14 11 2 19 -15 33 -9 22 8 -3 6 -11 9 -16 6
-11 -7 -11 -3 -3 19 3 9 10 16 16 16 5 0 7 -4 4 -8 -2 -4 -1 -14 3 -21 6 -9
11 -10 15 -2 4 6 3 11 -2 11 -5 0 -9 7 -9 15 0 20 16 19 24 -1 5 -14 8 -12 19
7 7 13 11 31 8 41 -3 9 1 20 7 24 7 4 10 3 6 -2 -3 -5 1 -18 9 -29 8 -10 14
-14 14 -8 0 7 -4 14 -10 18 -5 3 -7 12 -4 20 4 8 10 12 15 9 5 -3 7 -10 4 -15
-3 -5 1 -6 9 -3 19 7 21 25 4 22 -8 -2 -12 5 -10 17 1 11 3 32 3 48 0 15 5 27
11 27 5 0 8 -6 5 -13 -6 -16 22 -19 41 -4 7 6 11 16 8 23 -3 7 0 15 7 18 7 2
13 5 13 5 1 1 7 -6 14 -15z m-491 -25 c-18 -11 21 -20 41 -9 13 7 19 6 24 -6
3 -8 10 -12 16 -9 12 8 13 -5 1 -24 -7 -11 -10 -9 -15 7 -6 18 -13 21 -49 16
-23 -2 -48 -5 -54 -6 -13 -1 -17 -12 -13 -37 1 -13 -1 -13 -14 -2 -13 11 -14
17 -4 30 12 14 11 14 -4 2 -10 -7 -15 -17 -12 -22 3 -5 -2 -6 -11 -3 -11 5
-16 2 -15 -7 4 -25 0 -43 -7 -35 -10 10 -14 46 -4 46 4 0 21 11 36 24 16 14
32 23 36 20 4 -2 10 3 13 12 3 8 10 12 16 9 5 -3 10 2 10 12 0 15 2 16 10 3 6
-9 5 -17 -1 -21z m253 -21 c-16 -16 -35 3 -26 26 6 16 8 16 22 2 13 -12 14
-18 4 -28z m-116 20 c4 -6 -1 -17 -12 -25 -18 -13 -17 -13 6 -11 19 2 25 -2
24 -14 -1 -10 2 -18 7 -18 5 0 8 -5 7 -11 -4 -16 14 -21 32 -9 12 7 12 12 2
22 -16 16 -16 30 1 26 23 -4 67 12 67 26 0 18 31 29 44 16 7 -7 5 -16 -8 -28
-17 -16 -18 -16 -11 8 7 24 7 24 -8 5 -11 -15 -12 -22 -4 -28 8 -5 7 -7 -3 -6
-8 1 -24 1 -35 -1 l-20 -1 20 -8 c11 -5 27 -6 35 -3 13 5 13 3 1 -11 -10 -13
-17 -15 -27 -6 -11 9 -18 8 -29 -1 -8 -7 -13 -16 -10 -20 11 -17 -6 -35 -33
-36 -18 -1 -29 4 -29 12 0 8 7 12 16 9 9 -2 23 0 31 6 12 8 11 9 -6 4 -29 -8
-56 20 -49 49 2 11 2 15 -1 9 -4 -9 -11 -10 -24 -3 -13 7 -19 6 -23 -4 -4 -10
0 -12 14 -9 11 3 19 0 19 -8 0 -7 -3 -9 -7 -6 -3 4 -12 2 -19 -4 -21 -17 -26
7 -9 41 10 19 20 28 28 23 7 -4 7 0 -2 10 -8 10 -9 17 -3 17 6 0 14 -5 18 -12z
m-66 -66 c13 -21 25 -30 33 -25 18 11 38 13 31 2 -3 -5 1 -9 8 -9 9 0 9 -3 -2
-10 -11 -7 -11 -10 -2 -10 7 0 11 -4 8 -8 -2 -4 0 -14 5 -22 8 -13 10 -13 19
0 5 8 10 11 10 5 0 -5 -4 -16 -9 -23 -6 -10 -15 -4 -35 22 -15 20 -22 36 -16
36 6 0 8 5 4 11 -4 7 -13 1 -23 -15 -10 -14 -21 -23 -24 -20 -4 4 -1 14 6 23
11 14 10 14 -5 2 -10 -7 -16 -17 -13 -21 6 -9 -25 -23 -33 -15 -3 3 0 5 7 5 7
0 10 4 6 9 -3 5 4 16 16 24 11 8 16 18 11 21 -6 3 -13 0 -16 -6 -3 -7 -3 -2 0
12 6 24 6 24 -9 5 -11 -15 -12 -22 -4 -27 7 -4 10 -8 7 -9 -3 0 -13 -2 -22 -4
-23 -4 -22 2 3 45 12 19 15 29 8 23 -9 -9 -16 -10 -26 -1 -11 9 -12 7 -6 -8 6
-16 5 -17 -9 -6 -20 16 -29 3 -22 -33 4 -24 3 -27 -10 -16 -20 17 -16 53 8 67
36 21 75 11 96 -24z m250 23 c-7 -8 -17 -15 -22 -15 -6 0 -5 7 2 15 7 8 17 15
22 15 6 0 5 -7 -2 -15z m-305 -27 c4 4 3 -3 -4 -15 -6 -12 -8 -28 -5 -36 8
-21 -31 -28 -53 -10 -10 8 -12 11 -4 7 10 -5 12 -3 7 5 -6 8 -12 9 -20 2 -7
-6 -16 -7 -20 -3 -4 4 -7 2 -6 -3 5 -21 0 -36 -10 -30 -5 3 -7 13 -4 23 5 14
4 15 -5 2 -9 -13 -11 -13 -11 0 0 12 -2 13 -9 1 -7 -11 -10 -9 -16 8 -3 12
-11 18 -17 15 -7 -4 -6 -9 2 -14 9 -5 9 -9 1 -14 -6 -4 -11 -1 -11 6 0 9 -3 9
-10 -2 -6 -10 -10 -11 -10 -2 0 6 -5 12 -11 12 -8 0 -8 -4 0 -14 9 -10 7 -17
-6 -27 -15 -12 -16 -12 -8 1 7 12 6 13 -6 3 -12 -10 -20 -9 -40 3 -23 15 -23
15 2 -8 l25 -24 -23 -18 c-31 -23 -42 -13 -17 16 l18 23 -24 -22 c-18 -17 -21
-26 -13 -34 8 -8 17 -9 26 -3 7 5 4 1 -6 -8 -11 -10 -15 -18 -10 -18 5 0 15 6
22 13 8 6 11 7 8 2 -3 -7 11 -11 38 -11 27 0 41 4 38 11 -4 5 -3 7 1 3 4 -3 8
-10 8 -15 0 -12 19 -33 30 -33 5 0 7 4 4 9 -7 11 13 9 32 -2 7 -5 10 -13 7
-18 -3 -5 2 -6 12 -3 16 6 15 4 -2 -10 -11 -10 -14 -15 -8 -11 9 4 11 1 6 -11
-5 -14 -3 -16 11 -11 11 4 15 3 11 -4 -4 -6 -13 -8 -20 -5 -8 3 -19 -3 -27
-12 -12 -16 -11 -16 7 -3 19 14 19 14 3 -4 -21 -23 -36 -12 -17 12 12 17 12
17 -6 1 -15 -14 -16 -21 -7 -30 8 -8 15 -8 29 3 17 13 17 13 3 -6 -14 -19 -14
-19 4 -5 16 12 18 12 11 1 -6 -10 -4 -12 4 -6 10 6 11 3 1 -14 -6 -12 -15 -19
-20 -16 -5 3 -11 1 -15 -5 -4 -6 -10 -8 -15 -5 -5 3 -11 1 -15 -5 -3 -5 -20
-8 -36 -5 -17 3 -28 2 -25 -3 8 -13 -37 -12 -53 1 -12 10 -14 9 -8 -6 4 -10 3
-16 -2 -12 -5 3 -12 1 -16 -5 -3 -5 -12 -10 -18 -10 -8 0 -8 3 -2 8 16 11 16
30 0 36 -9 3 -12 0 -8 -10 3 -7 0 -14 -7 -14 -6 0 -8 -6 -4 -12 6 -11 4 -11
-7 0 -7 6 -20 12 -29 12 -12 0 -12 -2 -2 -9 20 -12 -9 -17 -113 -16 -80 1 -90
3 -89 18 1 10 -3 16 -10 14 -6 -2 -10 -12 -10 -21 2 -13 -1 -14 -12 -5 -11 9
-14 8 -14 -1 0 -9 -7 -7 -22 6 -16 14 -20 15 -16 4 4 -11 0 -16 -13 -16 -16 0
-16 3 -5 16 21 23 12 61 -20 87 -31 25 -44 29 -44 14 0 -5 9 -13 20 -16 11 -4
17 -11 14 -17 -4 -6 -10 -5 -15 3 -5 8 -9 10 -9 5 0 -6 -6 -1 -14 10 -21 28 6
41 40 20 13 -9 24 -12 24 -6 0 5 -11 17 -24 25 -19 12 -30 14 -44 6 -11 -6
-22 -7 -26 -4 -3 3 -6 1 -6 -5 0 -7 -5 -12 -10 -12 -6 0 -5 8 2 20 9 14 19 18
33 14 19 -6 19 -5 3 12 -15 15 -19 15 -34 4 -14 -12 -18 -12 -30 5 -8 10 -14
22 -14 25 0 4 -10 6 -21 6 -21 -1 -35 27 -23 45 6 11 34 0 34 -13 0 -6 -6 -6
-14 2 -12 9 -15 8 -13 -10 1 -15 6 -20 20 -16 10 2 21 -2 24 -10 3 -8 9 -12
13 -9 5 3 11 1 15 -4 3 -6 12 -8 19 -5 7 3 21 -2 30 -12 9 -9 20 -13 23 -10 4
4 -5 18 -20 32 -15 14 -27 29 -27 35 0 6 -4 7 -10 4 -6 -3 -7 1 -4 10 5 13 10
10 24 -13 19 -30 40 -49 40 -36 0 4 -7 16 -17 26 -9 10 -11 18 -6 18 6 0 14
-7 17 -16 4 -10 13 -13 26 -9 12 4 20 2 20 -5 0 -6 -4 -9 -9 -5 -11 6 -25 -12
-26 -37 -1 -13 3 -17 16 -13 9 3 20 1 24 -5 3 -5 11 -10 17 -10 7 0 7 4 1 13
-9 10 -10 39 -4 90 1 4 6 7 12 7 5 0 8 -4 4 -9 -3 -5 -1 -12 4 -15 5 -3 11 0
14 8 3 8 -5 18 -19 25 -31 14 -32 14 -30 -1 0 -7 -3 -14 -8 -15 -5 -1 -12 -7
-16 -13 -5 -9 -9 -9 -14 -1 -6 10 5 15 26 12 4 0 6 8 5 19 -1 11 -7 20 -14 20
-7 0 -12 -5 -11 -11 2 -6 -4 -14 -12 -16 -12 -4 -12 -3 -2 5 8 5 13 12 13 16
-3 23 0 26 18 16 26 -13 34 -13 25 2 -4 7 -3 8 5 4 6 -4 9 -11 6 -16 -3 -4 2
-11 11 -14 11 -4 15 -2 11 8 -8 19 20 29 44 16 22 -12 26 -22 6 -14 -8 3 -14
-2 -14 -11 0 -20 11 -19 32 1 13 14 14 19 3 25 -9 6 -6 8 9 6 12 0 20 -3 18
-6 -7 -6 15 -31 27 -31 6 0 5 7 -2 15 -16 20 -9 27 30 30 25 2 28 0 19 -11 -8
-9 -8 -14 -1 -14 6 0 18 10 26 22 11 15 16 18 16 8 0 -13 2 -13 10 0 9 13 10
13 10 0 0 -13 2 -13 9 -1 9 14 25 20 66 24 11 1 23 6 27 12 5 6 11 6 19 -2 6
-6 18 -9 27 -6 11 5 13 3 7 -7 -5 -9 -4 -11 4 -6 15 10 3 29 -15 22 -8 -3 -14
-2 -14 3 0 8 27 19 41 17 3 -1 13 5 22 12 9 8 20 11 26 8 5 -3 12 1 15 10 3 8
10 12 16 9 6 -4 8 -10 5 -15 -6 -9 12 -23 33 -26 7 -2 11 6 8 21 -3 14 0 22 7
21 7 -1 12 -6 12 -11 0 -6 -4 -9 -8 -7 -5 1 -6 -2 -2 -7 3 -6 12 -8 19 -5 8 3
21 -4 29 -16 17 -25 27 -9 23 34 -3 19 0 24 9 16 6 -5 15 -6 20 -2z m355 2 c0
-5 -2 -10 -4 -10 -3 0 -8 5 -11 10 -3 6 -1 10 4 10 6 0 11 -4 11 -10z m-50
-20 c6 -11 7 -20 3 -20 -4 0 -2 -4 5 -8 7 -5 10 -16 6 -26 -10 -27 -34 0 -29
34 3 29 3 29 -21 14 -21 -14 -27 -14 -42 -3 -15 13 -16 12 -4 -3 7 -9 9 -18 5
-20 -4 -3 -2 -3 5 -2 16 4 15 0 -3 -39 -14 -29 -14 -30 0 -13 8 11 15 24 15
30 0 5 2 7 5 4 11 -11 -19 -59 -34 -55 -9 2 -15 8 -14 15 2 7 -10 5 -32 -6
-19 -9 -35 -21 -35 -25 0 -5 3 -6 8 -4 4 3 8 -6 8 -19 1 -13 -3 -24 -10 -24
-6 0 -5 -4 3 -9 8 -5 16 -17 17 -26 2 -12 -3 -16 -18 -12 -14 4 -18 2 -14 -9
4 -12 1 -14 -14 -9 -11 4 -19 3 -18 -2 2 -4 -1 -9 -6 -10 -5 -1 -12 -6 -16
-12 -3 -6 -17 -14 -30 -16 -13 -2 -26 -9 -30 -15 -4 -6 -15 -8 -25 -4 -13 5
-16 4 -11 -5 4 -6 -9 -2 -28 9 -20 11 -36 16 -36 11 0 -6 9 -13 20 -16 11 -3
20 -11 20 -17 0 -6 -3 -8 -7 -5 -3 4 -13 1 -21 -6 -13 -10 -15 -9 -9 5 3 9 -1
22 -9 29 -12 10 -12 14 6 26 20 14 18 39 -2 27 -6 -4 -6 1 1 14 9 17 6 23 -17
38 -15 10 -30 17 -34 16 -5 -1 -8 2 -8 8 0 14 13 13 28 -2 9 -9 12 -9 12 1 0
7 5 9 11 5 8 -4 7 -9 -2 -15 -10 -6 -10 -9 -2 -9 6 0 14 4 18 10 3 5 12 7 20
3 18 -6 19 8 3 27 -10 11 -9 11 6 0 13 -10 17 -10 12 -2 -4 6 -5 12 -2 12 18
0 13 -24 -10 -45 -16 -14 -20 -23 -11 -19 10 3 17 1 17 -6 0 -6 -4 -9 -9 -5
-5 3 -13 0 -17 -6 -4 -7 -3 -9 4 -5 6 3 13 2 17 -4 3 -5 1 -10 -5 -10 -6 0 -8
-5 -4 -11 4 -8 9 -7 15 2 5 8 9 10 9 5 0 -5 -7 -17 -16 -27 -13 -14 -13 -17
-1 -15 8 1 25 9 38 19 14 10 17 14 7 11 -20 -7 -25 11 -6 22 7 5 8 3 3 -5 -6
-10 -3 -11 14 -2 18 10 20 9 14 -6 -5 -12 -2 -15 9 -11 9 4 21 1 28 -5 10 -9
11 -9 5 2 -6 10 -4 12 5 6 9 -6 11 -4 5 5 -6 9 -4 11 5 5 9 -6 11 -4 5 5 -5 9
-4 11 3 6 7 -4 12 -2 12 4 0 6 4 9 9 5 5 -3 12 -1 16 5 4 6 10 8 15 5 5 -3 12
0 16 6 4 8 3 9 -4 5 -7 -4 -12 -4 -13 1 0 4 -2 16 -4 26 -2 9 1 14 7 11 6 -4
6 2 -1 14 -6 11 -8 28 -5 36 7 18 -7 21 -22 6 -6 -6 -14 -2 -22 11 -12 19 -11
20 10 14 20 -5 21 -5 5 5 -18 12 -31 7 -33 -11 -1 -5 -2 -12 -3 -16 0 -4 -8 2
-17 13 -8 10 -13 14 -10 7 7 -12 -11 -12 -31 0 -8 5 -13 3 -13 -5 0 -10 -2
-10 -9 1 -6 10 -10 10 -16 1 -6 -9 -10 -9 -16 1 -7 11 -9 11 -9 1 0 -7 -4 -11
-9 -7 -6 3 -8 -7 -5 -22 l4 -28 -15 28 c-9 15 -18 27 -21 27 -3 0 -2 -5 1 -10
4 -6 1 -9 -7 -8 -8 2 -12 -5 -10 -17 2 -12 0 -16 -5 -9 -11 15 -41 13 -47 -3
-4 -10 -1 -11 14 -3 12 7 21 7 25 0 6 -9 -7 -14 -27 -11 -4 0 -5 -6 -2 -14 4
-8 1 -15 -6 -15 -6 0 -9 4 -6 9 3 5 -1 14 -8 20 -8 7 -17 8 -20 3 -3 -5 -17
-8 -32 -8 -30 2 -42 31 -17 40 8 3 11 11 7 17 -4 7 -3 9 3 6 6 -4 18 2 27 12
17 19 61 22 86 6 23 -15 42 -15 36 0 -8 21 5 25 29 9 28 -18 46 -15 63 11 12
20 12 20 10 0 -2 -14 3 -20 20 -21 12 -1 22 3 22 7 0 5 3 8 8 8 21 -4 32 2 27
14 -4 6 9 -6 28 -28 l34 -39 14 26 c8 15 17 27 22 27 4 1 11 1 16 1 5 0 8 11
6 25 -3 30 10 41 29 26 10 -8 17 -7 26 4 17 20 27 19 40 -5z m-1410 -16 c0 -8
-19 -13 -24 -6 -3 5 1 9 9 9 8 0 15 -2 15 -3z m1383 -22 c-6 -23 -23 -21 -23
4 0 8 5 12 10 9 6 -3 10 -1 10 6 0 7 2 10 5 8 2 -3 2 -15 -2 -27z m-1488 -2
c3 -5 1 -10 -4 -10 -6 0 -11 5 -11 10 0 6 2 10 4 10 3 0 8 -4 11 -10z m202
-35 c0 -8 -4 -12 -9 -9 -5 3 -6 10 -3 15 9 13 12 11 12 -6z m47 0 c11 -8 16
-15 10 -15 -5 0 -18 7 -28 15 -11 8 -16 15 -10 15 5 0 18 -7 28 -15z m-139 -5
c3 -6 -1 -7 -9 -4 -18 7 -21 14 -7 14 6 0 13 -4 16 -10z m367 -18 c-7 -2 -9
-9 -5 -15 4 -7 -1 -6 -10 2 -20 16 -13 33 10 24 11 -4 13 -8 5 -11z m-492 4
c0 -3 -4 -8 -10 -11 -5 -3 -10 -1 -10 4 0 6 5 11 10 11 6 0 10 -2 10 -4z m253
-22 c-7 -19 -10 -18 -16 5 -3 13 -1 18 9 14 7 -2 10 -11 7 -19z m137 11 c-10
-12 -9 -16 5 -21 12 -5 24 1 37 17 l20 24 -18 -32 c-18 -32 -18 -32 -46 -15
-15 9 -28 20 -28 25 0 4 5 5 10 2 6 -3 10 -1 10 4 0 6 5 11 11 11 8 0 8 -5 -1
-15z m865 -3 c-4 -12 -3 -13 10 -2 8 7 15 9 15 5 0 -4 8 -1 17 6 9 8 14 9 10
3 -9 -15 17 -26 30 -13 5 5 9 -11 8 -43 -1 -41 -4 -52 -18 -54 -10 -1 -25 -8
-34 -15 -24 -21 -44 -20 -33 1 5 9 6 20 3 24 -3 3 -1 6 5 6 7 0 12 -4 12 -10
0 -5 5 -10 11 -10 5 0 8 4 5 9 -3 5 2 8 12 7 9 0 16 5 15 12 -2 6 2 12 8 12 5
0 7 5 3 11 -4 8 -9 7 -15 -2 -5 -8 -9 -12 -10 -9 0 3 -2 13 -4 23 -3 14 1 16
18 11 12 -3 19 -3 15 1 -10 11 -58 15 -58 5 0 -15 -32 -4 -42 14 -8 14 -12 15
-24 5 -12 -10 -12 -14 -2 -21 10 -7 10 -9 -2 -5 -8 2 -14 13 -13 23 1 18 1 18
-12 1 -10 -14 -14 -15 -18 -3 -8 20 -3 22 48 22 36 0 44 -3 40 -14z m-1119
-10 c-3 -3 0 -12 6 -21 10 -13 10 -14 -2 -4 -16 15 -23 46 -8 37 5 -3 7 -9 4
-12z m152 -6 c-10 -7 -14 -17 -10 -21 4 -5 1 -5 -6 -1 -11 6 -10 12 5 26 10 9
20 15 23 13 3 -3 -3 -10 -12 -17z m52 9 c0 -8 -4 -15 -10 -15 -5 0 -7 7 -4 15
4 8 8 15 10 15 2 0 4 -7 4 -15z m796 -2 c-3 -3 5 -14 17 -24 18 -14 19 -17 5
-15 -10 1 -20 5 -24 8 -3 4 -13 4 -22 0 -15 -5 -15 -3 -4 11 8 9 11 21 7 26
-4 7 0 8 10 5 9 -4 14 -9 11 -11z m-960 -9 c-1 -8 -6 -17 -12 -21 -5 -4 -6 -4
-2 1 4 5 3 14 -2 21 -7 8 -5 12 4 12 8 0 13 -6 12 -13z m294 1 c7 -9 8 -15 2
-15 -5 0 -12 7 -16 15 -3 8 -4 15 -2 15 2 0 9 -7 16 -15z m808 -19 c19 3 23 2
12 -5 -8 -5 -18 -7 -22 -5 -4 3 -8 0 -8 -6 0 -7 8 -9 19 -5 10 3 23 -1 30 -9
11 -13 8 -15 -21 -13 -22 1 -32 -2 -30 -10 2 -12 -11 -18 -32 -14 -4 1 -14 -4
-22 -10 -8 -6 -14 -10 -15 -8 -7 32 -2 54 17 72 12 11 20 28 17 36 -3 9 2 6
11 -6 12 -16 24 -20 44 -17z m-958 -6 c6 -11 7 -20 2 -20 -6 0 -12 9 -15 20
-3 11 -3 20 -1 20 2 0 8 -9 14 -20z m-92 -4 c-10 -7 -14 -17 -10 -21 4 -5 1
-5 -5 -1 -18 10 -16 24 5 29 27 7 28 7 10 -7z m-111 -11 c0 -8 -4 -12 -9 -9
-4 3 -8 9 -8 15 0 5 4 9 8 9 5 0 9 -7 9 -15z m323 -17 c0 -5 -11 -1 -25 8 -14
9 -25 18 -25 20 0 2 11 -2 25 -8 14 -6 25 -15 25 -20z m-260 -4 c-6 -6 -7 -14
-3 -17 3 -4 3 -7 0 -7 -3 0 -11 8 -16 18 -7 14 -6 18 9 18 13 0 16 -4 10 -12z
m77 -15 c0 -21 -3 -26 -9 -16 -4 9 -5 22 -2 31 9 23 11 20 11 -15z m40 12 c0
-11 -5 -17 -9 -15 -4 3 -8 0 -8 -7 0 -7 -3 -10 -6 -7 -4 5 16 48 23 48 1 0 1
-9 0 -19z m-197 -11 c0 -5 -5 -10 -11 -10 -5 0 -7 5 -4 10 3 6 8 10 11 10 2 0
4 -4 4 -10z m51 -7 c13 -16 12 -17 -3 -4 -10 7 -18 15 -18 17 0 8 8 3 21 -13z
m189 7 c0 -5 -7 -7 -15 -4 -8 4 -15 8 -15 10 0 2 7 4 15 4 8 0 15 -4 15 -10z
m40 -10 c0 -5 -6 -10 -13 -10 -7 0 -13 -9 -13 -20 0 -15 5 -19 21 -15 18 5 18
5 2 -5 -9 -6 -21 -9 -25 -6 -13 8 -7 47 9 57 18 11 19 11 19 -1z m160 0 c0 -5
-4 -10 -10 -10 -5 0 -10 5 -10 10 0 6 5 10 10 10 6 0 10 -4 10 -10z m-317 -17
c-4 -11 -3 -14 5 -9 7 4 12 2 12 -3 0 -6 -4 -11 -9 -11 -14 0 -23 18 -16 30
10 16 15 12 8 -7z m-107 -13 c0 -12 -4 -16 -9 -11 -5 5 -6 14 -3 20 10 15 12
14 12 -9z m61 7 c0 -8 -6 -14 -14 -14 -9 0 -10 4 -2 14 6 7 12 13 14 13 1 0 2
-6 2 -13z m122 -31 c-3 -3 -11 5 -18 17 -13 21 -12 21 5 5 10 -10 16 -20 13
-22z m31 24 c0 -5 -4 -10 -10 -10 -5 0 -10 5 -10 10 0 6 5 10 10 10 6 0 10 -4
10 -10z m80 0 c8 -5 11 -10 5 -10 -5 0 -17 5 -25 10 -8 5 -10 10 -5 10 6 0 17
-5 25 -10z m-117 -50 c-3 -3 -10 2 -16 10 -7 9 -21 14 -32 13 l-20 -3 20 9
c14 6 25 4 36 -8 9 -9 14 -18 12 -21z m-136 16 c0 -8 -6 -12 -15 -9 -11 5 -11
7 0 14 7 5 13 9 14 9 0 0 1 -6 1 -14z m257 -2 c4 -10 2 -13 -6 -8 -8 5 -9 2
-5 -9 9 -24 0 -21 -14 4 -8 15 -8 19 0 15 6 -4 11 -2 11 3 0 16 7 13 14 -5z
m-199 -26 c11 -24 12 -28 2 -16 -8 10 -17 15 -21 11 -4 -4 -4 1 0 11 6 15 4
17 -6 11 -9 -5 -11 -4 -6 3 11 17 14 15 31 -20z m125 22 c0 -5 -7 -7 -15 -4
-8 4 -15 8 -15 10 0 2 7 4 15 4 8 0 15 -4 15 -10z m127 -26 c15 -16 18 -24 9
-21 -9 4 -20 -1 -25 -11 -6 -9 -11 -12 -11 -6 0 5 5 15 12 22 9 9 9 12 -1 12
-7 0 -10 4 -7 9 4 5 0 12 -6 14 -7 3 -9 6 -4 6 5 1 20 -11 33 -25z m-187 -4
c6 -11 7 -20 2 -20 -6 0 -12 9 -15 20 -3 11 -3 20 -1 20 2 0 8 -9 14 -20z m33
0 c-3 -12 -8 -19 -11 -16 -5 6 5 36 12 36 2 0 2 -9 -1 -20z m52 10 c-19 -8
-17 -11 15 -14 8 0 14 -7 13 -13 -5 -22 17 -14 28 10 9 22 9 22 5 -2 -3 -14 0
-31 6 -38 6 -8 8 -16 4 -20 -3 -3 -6 -1 -6 6 0 6 -12 16 -26 21 -14 6 -22 15
-18 21 4 7 0 9 -14 5 -12 -4 -22 -1 -25 8 -7 17 1 26 22 25 12 0 11 -3 -4 -9z
m175 -30 c0 -5 -4 -10 -10 -10 -5 0 -10 5 -10 10 0 6 5 10 10 10 6 0 10 -4 10
-10z m-280 -10 c0 -5 -2 -10 -4 -10 -3 0 -8 5 -11 10 -3 6 -1 10 4 10 6 0 11
-4 11 -10z m80 0 c0 -5 -4 -10 -10 -10 -5 0 -10 5 -10 10 0 6 5 10 10 10 6 0
10 -4 10 -10z m170 0 c0 -5 -5 -10 -11 -10 -5 0 -7 5 -4 10 3 6 8 10 11 10 2
0 4 -4 4 -10z m-35 -9 c-3 -5 3 -12 12 -14 10 -3 6 -4 -8 -4 -18 1 -25 6 -22
14 3 7 9 13 15 13 5 0 7 -4 3 -9z m-87 -10 c9 -5 4 -8 -16 -7 -17 1 -28 4 -25
9 6 9 25 9 41 -2z m152 3 c0 -7 -27 -34 -34 -34 -4 0 -1 9 6 20 12 19 28 27
28 14z"/>
<path d="M440 2059 c0 -5 5 -7 10 -4 6 3 10 8 10 11 0 2 -4 4 -10 4 -5 0 -10
-5 -10 -11z"/>
<path d="M306 1938 c-14 -19 -14 -23 4 -38 19 -17 19 -18 -20 -35 -47 -21 -53
-34 -30 -63 15 -18 20 -19 30 -7 6 8 9 19 5 25 -3 5 -1 10 6 10 8 0 8 5 -2 18
-11 14 -11 15 1 5 19 -17 35 -16 21 1 -9 11 -7 13 11 11 13 -1 23 -3 23 -4 0
-1 13 -4 28 -6 25 -3 27 -2 15 13 -8 10 -1 8 19 -6 39 -27 41 -27 39 1 -1 20
-6 22 -58 22 -41 0 -62 5 -75 18 -9 9 -13 17 -7 17 5 0 10 9 11 20 2 26 -2 25
-21 -2z m-27 -109 c-11 -7 -11 -9 -1 -9 7 0 10 -5 6 -11 -4 -8 -9 -7 -14 2
-10 16 -1 41 12 33 6 -4 5 -10 -3 -15z"/>
<path d="M421 1944 c-7 -8 -10 -18 -7 -21 7 -7 36 16 36 28 0 13 -13 10 -29
-7z"/>
<path d="M334 1830 c0 -29 6 -37 19 -23 4 3 1 13 -6 22 -10 14 -10 14 5 3 9
-7 18 -9 20 -5 3 4 3 3 2 -4 -4 -17 13 -26 19 -10 7 18 -8 41 -21 33 -6 -3
-13 -2 -17 4 -12 19 -21 10 -21 -20z"/>
<path d="M409 1843 c-2 -14 -6 -28 -9 -33 -6 -12 -5 -60 1 -60 16 0 20 22 7
38 -12 15 -11 16 5 3 17 -13 17 -12 12 20 -4 23 -2 29 4 19 5 -8 8 -17 5 -21
-4 -7 26 -22 33 -16 2 2 -6 16 -18 30 -20 26 -38 35 -40 20z"/>
<path d="M310 1816 c0 -9 -9 -25 -20 -36 -12 -12 -18 -25 -15 -30 4 -6 1 -10
-6 -10 -16 0 -3 -13 17 -16 10 -2 13 3 9 15 -3 9 1 26 9 37 14 18 15 18 21 2
8 -20 26 -25 23 -5 -2 6 3 12 11 12 8 0 15 -6 17 -13 1 -7 0 -8 -3 -2 -7 15
-20 12 -20 -5 0 -8 7 -17 15 -20 11 -4 12 -9 3 -19 -9 -10 -7 -17 5 -27 14
-11 15 -10 12 7 -2 13 2 19 14 18 9 -1 19 5 22 12 4 11 -1 13 -21 8 -22 -6
-25 -4 -20 10 4 10 2 26 -4 37 -8 16 -13 18 -24 9 -15 -13 -39 -4 -30 10 3 5
1 11 -5 15 -5 3 -10 -1 -10 -9z"/>
<path d="M436 1783 c-10 -10 -7 -33 5 -33 6 0 8 7 5 17 -6 15 -4 15 14 -2 24
-21 25 -26 6 -19 -9 3 -13 -1 -13 -12 1 -9 -5 -19 -13 -21 -13 -4 -13 -3 0 6
8 5 11 13 7 17 -11 12 -20 -3 -22 -39 -2 -24 1 -34 11 -34 10 0 12 7 8 21 -4
15 -3 17 4 7 7 -9 12 -10 16 -2 4 6 4 11 0 11 -3 0 1 11 10 25 9 14 14 30 11
35 -9 15 -42 30 -49 23z"/>
<path d="M240 1768 c0 -5 -6 -6 -12 -3 -7 4 -4 -1 7 -10 20 -17 20 -17 -3 -10
-21 6 -23 5 -13 -13 6 -11 9 -29 6 -40 -2 -14 1 -19 13 -17 9 2 20 4 25 4 4 1
7 6 7 12 0 6 -9 8 -22 4 -22 -6 -22 -5 -4 6 17 10 22 9 34 -9 20 -30 34 -28
20 3 -6 13 -14 24 -17 23 -21 -2 -30 4 -28 22 1 11 5 20 9 20 4 0 8 4 8 8 0 5
-7 9 -15 9 -8 0 -15 -4 -15 -9z"/>
<path d="M309 1773 c-8 -55 -5 -76 14 -94 11 -10 28 -19 36 -19 13 1 13 2 -1
11 -10 5 -18 15 -18 22 0 7 4 6 10 -3 5 -8 10 -11 10 -5 0 5 7 -1 16 -14 12
-17 13 -26 5 -34 -18 -18 -12 -31 7 -15 9 9 23 13 30 11 11 -4 12 -1 3 16 -7
12 -9 25 -6 30 7 13 -5 41 -18 41 -7 0 -7 -4 1 -12 26 -26 6 -33 -33 -11 -16
9 -17 13 -6 27 9 11 10 16 2 16 -6 0 -20 9 -31 20 -11 11 -20 17 -21 13z m34
-44 c4 8 5 7 3 -1 -2 -7 -9 -12 -16 -10 -8 2 -10 -3 -6 -15 4 -9 4 -14 -1 -10
-4 5 -8 22 -9 40 -2 30 -2 31 11 8 8 -15 14 -20 18 -12z"/>
<path d="M546 1743 c-4 -5 -13 -8 -19 -8 -5 0 -11 -9 -12 -20 -2 -11 -6 -28
-10 -38 -5 -13 -3 -16 8 -11 21 8 31 -14 16 -32 -11 -13 -10 -15 2 -14 29 4
40 0 33 -12 -5 -8 -1 -7 10 2 17 14 17 15 -3 24 -12 5 -20 13 -19 18 4 12 24
9 21 -3 -4 -12 14 -11 22 1 3 6 -1 13 -9 16 -9 3 -16 12 -16 20 0 8 -4 14 -10
14 -5 0 -9 -4 -7 -9 1 -5 -1 -9 -5 -10 -20 -3 -28 0 -28 9 0 6 3 9 8 9 20 -3
24 2 9 14 -16 11 -15 12 9 14 20 1 24 -1 13 -9 -12 -8 -12 -9 1 -5 17 4 20 29
4 34 -5 2 -14 0 -18 -4z"/>
<path d="M481 1693 c9 -10 9 -14 2 -10 -13 8 -39 -30 -29 -40 3 -4 1 -12 -5
-19 -11 -14 -4 -34 12 -34 6 0 7 5 3 12 -4 6 1 17 11 25 17 12 17 13 2 13 -9
0 -17 5 -17 10 0 7 6 7 20 0 14 -7 20 -7 20 0 0 5 -8 10 -17 10 -15 0 -15 1 2
13 18 14 14 37 -7 37 -6 0 -5 -7 3 -17z"/>
<path d="M273 1673 c5 -8 -5 -11 -33 -9 -41 3 -63 -10 -40 -24 9 -5 9 -9 1
-14 -6 -4 -9 -12 -6 -17 4 -5 1 -9 -6 -9 -7 0 -9 -3 -5 -7 9 -10 66 -12 66 -3
0 15 -14 19 -31 9 -17 -8 -18 -7 -9 15 5 13 7 26 4 28 -2 3 3 5 10 5 12 0 13
-5 4 -21 -8 -17 -8 -19 2 -9 7 6 20 9 29 5 14 -5 14 -4 2 11 -8 10 -11 20 -7
24 3 3 6 2 6 -4 0 -5 7 -10 15 -10 8 0 11 5 8 10 -3 6 -1 7 5 3 6 -4 8 -14 5
-24 -6 -15 -5 -15 10 -3 9 7 14 17 11 22 -3 5 0 9 5 9 15 0 14 -13 -1 -29 -11
-10 -10 -12 4 -9 9 1 17 -1 16 -7 0 -5 -5 -9 -10 -7 -6 2 -19 -5 -29 -14 -22
-20 -38 -11 -19 11 7 8 8 15 2 15 -13 0 -23 -26 -16 -43 2 -7 14 -13 24 -14
11 -1 18 2 16 6 -3 4 0 13 5 21 8 13 10 13 18 0 5 -8 7 -18 5 -22 -6 -10 10
-11 19 -1 4 3 2 12 -4 19 -7 8 -6 14 2 20 7 4 9 3 5 -4 -4 -7 1 -10 14 -7 11
2 20 -1 20 -6 0 -6 4 -8 10 -4 5 3 6 13 3 22 -6 15 -5 16 9 3 11 -11 12 -17 4
-22 -8 -6 -7 -8 2 -8 7 0 11 -4 7 -9 -3 -5 0 -13 6 -17 8 -5 9 -3 4 6 -6 9 -4
11 5 5 9 -6 11 -4 5 5 -5 8 -4 11 3 6 6 -4 9 -12 6 -20 -3 -7 2 -13 11 -13 11
0 14 6 9 21 -4 17 -3 18 6 6 8 -12 9 -9 6 14 -3 16 -8 31 -12 35 -4 3 -4 -2
-1 -11 9 -24 -12 -34 -31 -15 -11 12 -12 19 -4 29 7 9 8 19 1 28 -8 12 -9 11
-7 -5 2 -13 -3 -20 -13 -20 -9 0 -23 -6 -31 -12 -11 -10 -17 -10 -26 -1 -15
15 -15 29 -1 26 6 -2 14 4 16 12 4 12 3 12 -5 2 -11 -16 -23 -14 -38 6 -6 8
-16 12 -23 8 -6 -4 -19 -2 -28 6 -10 7 -14 8 -10 1z"/>
<path d="M502 1640 c-15 -24 -16 -40 -1 -40 5 0 8 4 5 9 -3 5 1 14 9 21 8 7
15 16 15 21 0 16 -15 10 -28 -11z"/>
<path d="M289 1603 c-13 -16 -12 -17 4 -4 9 7 17 15 17 17 0 8 -8 3 -21 -13z"/>
<path d="M513 1613 c4 -6 2 -15 -5 -20 -12 -7 -17 -22 -20 -60 -1 -7 -5 -13
-10 -13 -4 0 -8 6 -8 13 0 9 -3 8 -9 -2 -7 -11 -9 -11 -14 0 -2 8 -4 2 -3 -13
0 -14 3 -24 5 -22 2 2 10 -1 18 -8 7 -6 16 -8 20 -4 4 3 -2 13 -13 22 -10 8
-14 13 -7 10 20 -10 43 5 40 27 -1 13 3 21 11 20 6 -2 12 1 12 6 0 5 -6 12
-12 14 -10 4 -10 6 -1 6 7 1 20 -13 29 -30 8 -17 11 -28 5 -25 -6 4 -11 5 -11
2 0 -3 9 -10 21 -16 19 -11 20 -10 9 9 -6 12 -8 21 -5 21 4 0 -1 7 -10 16 -9
9 -13 25 -10 38 2 11 2 15 -1 8 -5 -10 -9 -10 -22 0 -10 9 -13 9 -9 1z"/>
<path d="M364 1582 c3 -6 2 -14 -4 -17 -12 -7 5 -35 21 -35 11 0 7 23 -6 32
-7 5 -6 8 1 8 5 0 19 -7 30 -15 19 -15 19 -15 -1 -8 -18 6 -19 5 -5 -11 8 -10
15 -28 17 -39 2 -16 1 -18 -6 -8 -6 9 -11 10 -15 2 -4 -6 -2 -11 4 -11 6 0 9
-4 6 -9 -3 -5 1 -14 9 -21 22 -18 18 -29 -10 -26 -16 2 -22 -1 -18 -8 3 -6 2
-8 -2 -3 -5 4 -17 -1 -28 -10 -11 -10 -17 -13 -14 -7 4 7 0 18 -9 25 -13 11
-19 8 -39 -17 -14 -16 -24 -32 -25 -37 0 -10 42 -2 69 13 12 6 21 8 21 4 0 -3
6 -1 14 5 11 9 22 4 52 -24 21 -20 30 -33 21 -29 -10 3 -17 1 -17 -6 0 -6 -4
-9 -8 -6 -15 9 -51 -23 -49 -44 1 -13 5 -16 13 -9 7 5 18 8 25 7 8 -2 14 5 14
17 0 16 7 20 40 21 22 1 42 3 45 4 3 1 8 2 13 1 4 0 7 4 7 10 0 8 5 8 15 -1 8
-7 15 -9 15 -5 0 5 9 0 20 -10 11 -10 17 -22 14 -26 -3 -5 0 -9 6 -9 7 0 9 7
5 18 -7 19 0 12 33 -32 12 -16 22 -24 22 -18 0 6 -5 14 -10 17 -6 4 -7 11 -4
17 4 7 2 8 -4 4 -7 -4 -13 -2 -13 3 -3 21 -4 26 -12 39 -5 6 -5 12 -1 12 4 0
-4 12 -19 28 -18 19 -23 32 -17 41 5 9 3 22 -5 35 -8 12 -14 24 -15 29 0 4 -2
7 -5 7 -3 0 -8 0 -11 0 -4 0 -1 -7 6 -15 11 -13 10 -14 -5 -8 -15 5 -17 3 -11
-13 6 -15 4 -16 -5 -7 -13 13 -21 63 -10 63 4 0 8 6 8 13 0 6 4 19 7 28 5 10
2 16 -9 16 -9 0 -14 -6 -11 -14 7 -17 -4 -44 -15 -37 -5 3 -6 -1 -3 -9 7 -19
-14 -33 -28 -19 -6 6 -16 8 -23 6 -8 -3 -12 6 -13 25 -1 26 -32 92 -32 68 0
-4 -10 -3 -21 4 -13 7 -19 7 -15 1z m89 -122 c4 0 5 6 1 13 -6 8 -3 8 9 -1 9
-8 20 -11 25 -8 6 3 17 -6 26 -19 16 -24 44 -27 30 -3 -4 6 1 6 14 -1 20 -11
21 -41 1 -41 -13 0 -11 18 4 23 9 4 9 6 0 6 -28 2 -23 -23 11 -51 21 -17 35
-33 32 -36 -3 -3 -1 -11 5 -18 14 -17 -13 -13 -35 5 -9 7 -16 10 -16 5 0 -4
-5 -3 -12 4 -8 8 -16 8 -32 0 -23 -13 -57 -18 -51 -8 2 4 -14 23 -36 43 -22
20 -35 38 -29 38 5 1 15 3 20 4 6 1 15 3 22 4 6 0 2 11 -10 24 -21 22 -19 48
2 27 5 -5 14 -10 19 -10z m-123 -50 c0 -5 -6 -10 -12 -10 -9 0 -8 -4 2 -10 8
-5 11 -10 5 -11 -5 0 -18 -2 -27 -4 -17 -3 -17 -2 0 21 18 25 32 31 32 14z
m87 -112 c2 -18 0 -20 -7 -8 -9 13 -11 13 -20 0 -6 -9 -10 -10 -10 -3 0 7 8
17 18 22 9 6 17 11 17 11 1 0 2 -10 2 -22z"/>
<path d="M437 1450 c24 -28 19 -49 -12 -44 -15 2 -9 -8 23 -37 40 -38 44 -39
64 -25 16 11 25 13 35 4 7 -6 13 -7 13 -3 0 5 8 1 18 -8 17 -15 19 -15 19 -1
0 8 -16 27 -35 42 -27 21 -37 24 -52 14 -25 -15 -60 9 -43 30 8 9 9 19 3 28
-8 12 -10 13 -10 1 0 -11 -5 -9 -22 5 l-23 19 22 -25z m39 -68 c12 -6 24 -8
28 -5 13 13 37 11 43 -3 3 -8 9 -12 13 -9 4 3 14 -3 21 -13 12 -15 12 -16 -2
-5 -9 7 -19 10 -22 6 -4 -3 -9 1 -13 10 -5 14 -8 14 -26 -3 -23 -21 -40 -17
-71 18 -21 23 -7 24 29 4z"/>
<path d="M454 1382 c16 -25 43 -32 57 -14 12 15 12 16 -2 5 -12 -10 -20 -9
-39 4 -13 9 -20 11 -16 5z"/>
<path d="M489 1455 c-1 -3 -2 -8 -3 -12 -1 -5 -5 -14 -10 -22 -12 -19 16 -35
30 -16 6 8 13 14 15 12 3 -1 -3 5 -13 14 -9 9 -14 19 -11 23 4 3 3 6 0 6 -4 0
-8 -2 -8 -5z"/>
<path d="M229 1566 c-1 -6 -1 -15 0 -20 1 -5 -5 -6 -13 -3 -17 7 -38 -14 -28
-28 4 -6 15 -16 24 -23 15 -12 17 -11 15 7 -1 13 -6 20 -14 17 -7 -3 -15 -2
-17 3 -3 4 0 8 7 8 7 0 20 4 30 8 10 4 17 3 17 -5 0 -6 5 -8 10 -5 6 4 7 11 4
17 -4 7 -2 8 5 4 6 -4 9 -11 6 -16 -3 -5 3 -8 14 -7 11 0 18 4 16 7 -2 3 5 6
16 6 18 0 19 -2 4 -12 -14 -11 -14 -12 1 -18 22 -8 26 -8 19 3 -3 5 -1 13 5
16 6 4 9 1 8 -7 -2 -8 5 -12 17 -10 15 2 17 1 6 -6 -7 -6 -11 -14 -7 -20 3 -6
1 -14 -5 -17 -5 -4 -8 -14 -4 -24 3 -9 -4 -5 -17 9 -13 14 -20 21 -15 16 14
-20 7 -29 -9 -10 -8 10 -12 12 -8 4 4 -8 4 -12 -1 -8 -10 10 -37 -11 -29 -23
3 -5 0 -10 -5 -10 -20 -3 -26 -4 -37 -12 -7 -4 -18 0 -25 9 -10 12 -10 15 0
12 8 -2 15 5 16 16 3 14 1 16 -8 7 -14 -14 -27 -14 -27 0 0 5 4 8 9 4 5 -3 12
-1 16 5 4 6 10 8 15 5 4 -3 11 2 14 10 4 13 2 13 -14 5 -12 -7 -21 -7 -25 0
-3 5 -12 10 -18 10 -8 0 -8 -3 2 -9 8 -5 9 -11 3 -15 -13 -8 -12 -46 1 -46 5
0 4 -6 -2 -14 -8 -10 -9 -16 -1 -21 5 -3 8 -17 6 -30 -3 -14 0 -27 5 -31 5 -3
7 -9 4 -13 -2 -5 2 -17 11 -27 14 -18 15 -18 5 3 -7 13 -7 24 -2 28 6 3 8 14
6 24 -2 10 1 24 6 32 7 12 9 12 9 0 0 -8 14 4 31 27 35 47 36 48 59 27 15 -14
19 -14 29 -1 7 8 19 12 27 9 18 -7 18 2 -1 31 -14 21 -14 25 0 36 15 13 11 35
-6 25 -5 -4 -23 4 -40 16 -23 16 -33 19 -42 10 -13 -13 -31 -15 -22 -2 3 6 -8
8 -26 6 -28 -4 -30 -3 -14 9 15 11 16 13 1 13 -9 0 -17 -5 -17 -11z m165 -114
c3 -5 -1 -9 -9 -9 -8 0 -12 4 -9 9 3 4 7 8 9 8 2 0 6 -4 9 -8z m-150 -55 c3 4
13 8 22 9 12 2 13 -1 3 -12 -6 -7 -15 -11 -20 -9 -11 7 -27 -25 -24 -48 2 -9
-1 -15 -5 -12 -5 3 -7 16 -4 30 2 13 0 27 -6 30 -6 4 -8 11 -4 16 4 6 10 6 18
0 7 -6 16 -8 20 -4z"/>
<path d="M235 1513 c1 -10 9 -17 17 -15 11 1 16 -6 16 -22 0 -14 -5 -24 -11
-23 -6 1 -11 -2 -12 -8 0 -5 -4 -17 -10 -25 -8 -13 -7 -13 8 -1 9 7 17 10 17
7 0 -4 14 9 31 29 29 33 33 35 49 20 20 -18 34 -7 19 15 -6 11 -9 11 -9 2 0
-9 -7 -8 -27 5 -14 10 -36 18 -47 18 -12 0 -26 4 -33 8 -7 4 -10 1 -8 -10z
m65 -37 c-17 -22 -32 -9 -19 16 8 14 14 17 22 9 7 -7 6 -15 -3 -25z"/>
<path d="M286 1483 c-6 -14 -5 -15 5 -6 7 7 10 15 7 18 -3 3 -9 -2 -12 -12z"/>
<path d="M393 1365 c0 -8 4 -12 9 -9 4 3 8 9 8 15 0 5 -4 9 -8 9 -5 0 -9 -7
-9 -15z"/>
<path d="M674 1208 c-4 -7 -4 -10 1 -6 4 4 15 2 24 -5 14 -11 14 -10 2 6 -16
20 -18 21 -27 5z"/>
<path d="M1693 1761 c0 -11 5 -18 9 -15 4 3 5 11 1 19 -7 21 -12 19 -10 -4z"/>
<path d="M1730 1769 c0 -5 5 -7 10 -4 6 3 10 8 10 11 0 2 -4 4 -10 4 -5 0 -10
-5 -10 -11z"/>
<path d="M1810 1749 c0 -5 5 -7 10 -4 6 3 10 8 10 11 0 2 -4 4 -10 4 -5 0 -10
-5 -10 -11z"/>
<path d="M1850 1749 c0 -5 5 -7 10 -4 6 3 10 8 10 11 0 2 -4 4 -10 4 -5 0 -10
-5 -10 -11z"/>
<path d="M1653 1721 c0 -11 5 -18 9 -15 4 3 5 11 1 19 -7 21 -12 19 -10 -4z"/>
<path d="M1590 1706 c0 -2 8 -10 18 -17 15 -13 16 -12 3 4 -13 16 -21 21 -21
13z"/>
<path d="M1306 1692 c-3 -5 1 -9 9 -9 8 0 12 4 9 9 -3 4 -7 8 -9 8 -2 0 -6 -4
-9 -8z"/>
<path d="M1930 1691 c0 -6 4 -13 10 -16 6 -3 7 1 4 9 -7 18 -14 21 -14 7z"/>
<path d="M2034 1686 c1 -8 5 -18 8 -22 4 -3 5 1 4 10 -1 8 -5 18 -8 22 -4 3
-5 -1 -4 -10z"/>
<path d="M1656 1672 c-2 -4 -1 -14 4 -22 7 -11 9 -9 7 8 -1 24 -3 26 -11 14z"/>
<path d="M1775 1670 c-3 -5 -1 -10 4 -10 6 0 11 5 11 10 0 6 -2 10 -4 10 -3 0
-8 -4 -11 -10z"/>
<path d="M1536 1648 c3 -5 10 -6 15 -3 13 9 11 12 -6 12 -8 0 -12 -4 -9 -9z"/>
<path d="M1930 1650 c0 -5 5 -10 11 -10 5 0 7 5 4 10 -3 6 -8 10 -11 10 -2 0
-4 -4 -4 -10z"/>
<path d="M2029 1633 c-13 -16 -12 -17 4 -4 9 7 17 15 17 17 0 8 -8 3 -21 -13z"/>
<path d="M1576 1632 c-3 -5 1 -9 9 -9 8 0 12 4 9 9 -3 4 -7 8 -9 8 -2 0 -6 -4
-9 -8z"/>
<path d="M1537 1605 c-4 -8 -3 -16 1 -19 4 -3 9 4 9 15 2 23 -3 25 -10 4z"/>
<path d="M1710 1606 c7 -7 13 -7 20 0 6 6 3 10 -10 10 -13 0 -16 -4 -10 -10z"/>
<path d="M2035 1610 c-3 -5 3 -7 12 -5 10 1 25 -2 33 -8 12 -9 13 -9 3 3 -15
16 -41 22 -48 10z"/>
<path d="M2117 1578 c19 -21 31 -25 14 -5 -6 8 -9 16 -6 19 3 2 -2 5 -10 5
-13 0 -13 -3 2 -19z"/>
<path d="M1590 1572 c0 -5 7 -9 15 -9 8 0 12 4 9 9 -3 4 -9 8 -15 8 -5 0 -9
-4 -9 -8z"/>
<path d="M1705 1570 c-3 -6 1 -7 9 -4 18 7 21 14 7 14 -6 0 -13 -4 -16 -10z"/>
<path d="M1886 1568 c3 -5 10 -6 15 -3 13 9 11 12 -6 12 -8 0 -12 -4 -9 -9z"/>
<path d="M1955 1570 c-3 -5 -1 -10 4 -10 6 0 11 5 11 10 0 6 -2 10 -4 10 -3 0
-8 -4 -11 -10z"/>
<path d="M2059 1563 c-13 -16 -12 -17 4 -4 14 11 20 11 35 0 15 -13 16 -12 3
4 -7 9 -17 17 -21 17 -4 0 -14 -8 -21 -17z"/>
<path d="M1910 1556 c0 -2 7 -7 16 -10 8 -3 12 -2 9 4 -6 10 -25 14 -25 6z"/>
<path d="M1985 1549 c-3 -4 2 -6 10 -5 21 3 28 13 10 13 -9 0 -18 -4 -20 -8z"/>
<path d="M1899 1523 c-13 -16 -12 -17 4 -4 9 7 17 15 17 17 0 8 -8 3 -21 -13z"/>
<path d="M2166 1528 c3 -5 9 -7 12 -4 3 3 12 0 21 -6 13 -10 14 -10 4 2 -15
16 -46 23 -37 8z"/>
<path d="M1960 1505 c-7 -9 -11 -17 -9 -20 3 -2 10 5 17 15 14 24 10 26 -8 5z"/>
<path d="M2031 1503 c7 -12 15 -20 18 -17 3 2 -3 12 -13 22 -17 16 -18 16 -5
-5z"/>
<path d="M1774 1499 c-3 -6 -2 -15 3 -20 5 -5 9 -1 9 11 0 23 -2 24 -12 9z"/>
<path d="M1877 1482 c-15 -16 -15 -19 -2 -19 8 0 13 3 10 5 -3 3 0 11 6 19 17
20 5 16 -14 -5z"/>
<path d="M1994 1474 c7 -38 14 -40 12 -5 0 17 -4 31 -9 31 -4 0 -5 -12 -3 -26z"/>
<path d="M2079 1478 c-1 -2 -2 -14 -3 -28 0 -14 -5 -32 -10 -40 -7 -12 -7 -13
5 -2 8 7 14 26 15 42 1 25 -2 38 -7 28z"/>
<path d="M2108 1473 c7 -3 16 -2 19 1 4 3 -2 6 -13 5 -11 0 -14 -3 -6 -6z"/>
<path d="M1835 1459 c-4 -6 -5 -12 -2 -15 2 -3 7 2 10 11 7 17 1 20 -8 4z"/>
<path d="M1930 1466 c0 -2 8 -10 18 -17 15 -13 16 -12 3 4 -13 16 -21 21 -21
13z"/>
<path d="M2135 1459 c-4 -6 -5 -12 -2 -15 2 -3 7 2 10 11 7 17 1 20 -8 4z"/>
<path d="M1764 1452 c4 -3 14 -7 22 -8 9 -1 13 0 10 4 -4 3 -14 7 -22 8 -9 1
-13 0 -10 -4z"/>
<path d="M2151 1442 c-7 -14 -6 -19 4 -19 7 0 11 7 7 15 -4 11 -1 13 8 7 9 -5
11 -4 6 3 -10 16 -14 15 -25 -6z"/>
<path d="M1931 1417 c-8 -10 -7 -14 2 -14 8 0 14 6 14 14 0 7 -1 13 -2 13 -2
0 -8 -6 -14 -13z"/>
<path d="M1998 1423 c7 -3 16 -2 19 1 4 3 -2 6 -13 5 -11 0 -14 -3 -6 -6z"/>
<path d="M1866 1412 c-3 -5 1 -9 9 -9 8 0 12 4 9 9 -3 4 -7 8 -9 8 -2 0 -6 -4
-9 -8z"/>
<path d="M2115 1410 c-3 -5 -1 -10 4 -10 6 0 11 5 11 10 0 6 -2 10 -4 10 -3 0
-8 -4 -11 -10z"/>
<path d="M2187 1401 c-3 -13 -1 -18 9 -14 7 2 10 11 7 19 -7 19 -10 18 -16 -5z"/>
<path d="M2270 1410 c0 -5 5 -10 11 -10 5 0 7 5 4 10 -3 6 -8 10 -11 10 -2 0
-4 -4 -4 -10z"/>
<path d="M2035 1390 c-3 -5 -4 -10 0 -10 3 0 1 -10 -5 -22 -10 -21 -10 -21 3
-6 8 10 16 15 19 12 3 -2 8 2 11 10 4 11 1 13 -10 9 -11 -4 -14 -2 -9 5 4 7 5
12 2 12 -3 0 -8 -4 -11 -10z"/>
<path d="M2297 1369 c4 -13 8 -18 11 -10 2 7 -1 18 -6 23 -8 8 -9 4 -5 -13z"/>
<path d="M2079 1363 c-13 -16 -12 -17 4 -4 9 7 17 15 17 17 0 8 -8 3 -21 -13z"/>
<path d="M2150 1358 c-12 -22 -12 -22 6 -6 10 10 15 20 12 24 -4 3 -12 -5 -18
-18z"/>
<path d="M2210 1370 c0 -5 5 -10 10 -10 6 0 10 5 10 10 0 6 -4 10 -10 10 -5 0
-10 -4 -10 -10z"/>
<path d="M2240 1360 c-6 -11 -8 -20 -6 -20 3 0 10 9 16 20 6 11 8 20 6 20 -3
0 -10 -9 -16 -20z"/>
<path d="M2098 1338 c5 -5 16 -8 23 -6 8 3 3 7 -10 11 -17 4 -21 3 -13 -5z"/>
<path d="M2275 1340 c-3 -5 -2 -18 4 -27 7 -14 9 -12 8 10 -2 30 -3 31 -12 17z"/>
<path d="M2065 1329 c-4 -6 -5 -12 -2 -15 2 -3 7 2 10 11 7 17 1 20 -8 4z"/>
<path d="M2190 1331 c0 -6 4 -13 10 -16 6 -3 7 1 4 9 -7 18 -14 21 -14 7z"/>
<path d="M2156 1317 c3 -10 9 -15 12 -12 3 3 0 11 -7 18 -10 9 -11 8 -5 -6z"/>
<path d="M2230 1320 c8 -5 20 -10 25 -10 6 0 3 5 -5 10 -8 5 -19 10 -25 10 -5
0 -3 -5 5 -10z"/>
<path d="M2000 1300 c-6 -11 -8 -20 -6 -20 3 0 10 9 16 20 6 11 8 20 6 20 -3
0 -10 -9 -16 -20z"/>
<path d="M2125 1310 c-8 -13 3 -30 18 -29 9 0 9 2 0 6 -7 2 -13 9 -13 14 0 6
5 7 12 3 7 -4 8 -3 4 4 -9 15 -13 15 -21 2z"/>
<path d="M2184 1300 c1 -7 6 -12 11 -12 6 -1 16 -8 23 -17 11 -14 11 -13 2 7
-6 12 -15 20 -20 17 -4 -3 -11 0 -13 5 -4 7 -5 6 -3 0z"/>
<path d="M2300 1304 c0 -5 7 -18 15 -28 8 -11 15 -16 15 -10 0 5 -7 18 -15 28
-8 11 -15 16 -15 10z"/>
<path d="M1906 1287 c3 -10 9 -15 12 -12 3 3 0 11 -7 18 -10 9 -11 8 -5 -6z"/>
<path d="M2026 1287 c3 -10 9 -15 12 -12 3 3 0 11 -7 18 -10 9 -11 8 -5 -6z"/>
<path d="M1950 1271 c0 -10 29 -36 34 -30 1 2 -6 12 -16 22 -10 9 -18 13 -18
8z"/>
<path d="M2110 1271 c0 -6 4 -13 10 -16 6 -3 7 1 4 9 -7 18 -14 21 -14 7z"/>
<path d="M2180 1262 c9 -19 30 -23 30 -5 0 4 -3 3 -7 0 -3 -4 -12 1 -20 11
-13 15 -13 15 -3 -6z"/>
<path d="M2262 1267 c10 -8 14 -18 10 -22 -4 -5 -1 -5 6 -1 17 10 15 14 -10
26 -21 10 -21 10 -6 -3z"/>
<path d="M2299 1265 c17 -33 31 -51 31 -40 0 6 -10 21 -21 35 -13 17 -17 18
-10 5z"/>
<path d="M1996 1257 c3 -10 9 -15 12 -12 3 3 0 11 -7 18 -10 9 -11 8 -5 -6z"/>
<path d="M2140 1266 c0 -2 7 -7 16 -10 8 -3 12 -2 9 4 -6 10 -25 14 -25 6z"/>
<path d="M2215 1241 c-8 -14 10 -22 31 -14 11 4 15 3 10 -5 -3 -6 -2 -13 3
-16 5 -4 8 2 6 11 -1 12 -10 17 -24 16 -13 -2 -20 1 -16 7 3 6 4 10 1 10 -3 0
-7 -4 -11 -9z"/>
<path d="M2110 1229 c0 -5 5 -7 10 -4 6 3 10 8 10 11 0 2 -4 4 -10 4 -5 0 -10
-5 -10 -11z"/>
<path d="M2184 1226 c11 -9 16 -16 10 -16 -5 0 -1 -7 9 -14 10 -8 18 -18 17
-22 -1 -5 3 -9 10 -10 6 -2 7 -1 0 3 -5 2 -8 9 -4 14 3 5 -2 12 -10 15 -9 3
-14 10 -11 15 3 4 -5 13 -17 19 -22 11 -22 10 -4 -4z"/>
<path d="M2285 1230 c-6 -9 -4 -11 5 -5 10 6 12 3 8 -13 -4 -12 -1 -25 4 -29
6 -3 8 -1 4 5 -3 5 -1 12 4 14 7 2 6 10 -3 22 -11 15 -16 16 -22 6z"/>
<path d="M2030 1221 c0 -10 19 -25 25 -20 1 2 -3 10 -11 17 -8 7 -14 8 -14 3z"/>
<path d="M2091 1213 c-1 -25 14 -39 25 -22 4 7 3 9 -4 5 -6 -3 -12 3 -15 16
-4 23 -4 23 -6 1z"/>
<path d="M2130 1210 c0 -5 5 -10 10 -10 6 0 10 5 10 10 0 6 -4 10 -10 10 -5 0
-10 -4 -10 -10z"/>
<path d="M1950 1200 c-9 -6 -10 -10 -3 -10 6 0 15 5 18 10 8 12 4 12 -15 0z"/>
<path d="M1985 1197 c-14 -11 -15 -16 -5 -22 9 -5 11 -4 6 3 -4 7 -1 12 8 12
9 0 16 5 16 10 0 13 -3 13 -25 -3z"/>
<path d="M2236 1197 c3 -10 9 -15 12 -12 3 3 0 11 -7 18 -10 9 -11 8 -5 -6z"/>
<path d="M2070 1191 c0 -6 4 -13 10 -16 6 -3 7 1 4 9 -7 18 -14 21 -14 7z"/>
<path d="M2150 1189 c-12 -8 -11 -9 5 -5 16 5 21 1 22 -14 1 -11 -3 -19 -9
-17 -6 1 -13 -5 -15 -13 -4 -12 -3 -12 5 -2 5 8 13 13 18 13 12 -1 11 42 -1
46 -6 1 -17 -2 -25 -8z"/>
<path d="M2324 1189 c-4 -7 -3 -9 4 -5 7 4 10 -1 9 -14 -1 -21 -12 -27 -20
-10 -3 6 -4 5 -3 -2 4 -22 29 -15 32 9 4 25 -11 39 -22 22z"/>
<path d="M2260 1180 c0 -5 0 -13 -1 -17 0 -5 -11 -14 -25 -21 -13 -7 -22 -18
-18 -23 8 -13 -28 -8 -39 6 -5 6 -7 4 -4 -5 4 -15 42 -21 42 -7 0 5 11 14 24
22 21 10 41 55 26 55 -3 0 -5 -4 -5 -10z"/>
<path d="M2013 1173 c9 -8 47 -11 47 -4 0 5 -11 9 -25 9 -14 0 -24 -2 -22 -5z"/>
<path d="M2111 1170 c-9 -5 -4 -7 13 -7 29 0 32 2 13 10 -8 3 -20 2 -26 -3z"/>
<path d="M2281 1164 c0 -11 3 -14 6 -6 3 7 2 16 -1 19 -3 4 -6 -2 -5 -13z"/>
<path d="M1990 1151 c0 -6 7 -8 15 -4 10 3 15 0 13 -8 -2 -9 5 -13 20 -12 13
2 21 -1 17 -7 -8 -13 20 -24 41 -16 16 6 16 8 0 25 -9 9 -13 21 -9 24 3 4 1 7
-5 7 -16 0 -15 -10 5 -32 15 -17 15 -18 -5 -18 -12 0 -21 6 -19 13 1 7 -7 11
-20 10 -13 -2 -22 2 -20 9 1 7 -6 14 -15 16 -10 2 -18 -1 -18 -7z"/>
<path d="M2196 1143 c-6 -14 -5 -15 5 -6 7 7 10 15 7 18 -3 3 -9 -2 -12 -12z"/>
<path d="M2120 1135 c0 -8 4 -15 10 -15 5 0 7 7 4 15 -4 8 -8 15 -10 15 -2 0
-4 -7 -4 -15z"/>
<path d="M2251 1122 c-9 -7 -10 -11 -4 -7 7 3 23 8 34 10 30 6 36 14 9 12 -12
-1 -30 -8 -39 -15z"/>
<path d="M1996 1117 c3 -10 9 -15 12 -12 3 3 0 11 -7 18 -10 9 -11 8 -5 -6z"/>
<path d="M2154 1096 c3 -16 8 -31 11 -35 3 -3 4 7 1 23 -3 16 -8 31 -11 35 -3
3 -4 -7 -1 -23z"/>
<path d="M2299 1118 c-7 -24 -7 -48 0 -52 11 -7 53 33 46 45 -5 8 -44 14 -46
7z m41 -11 c0 -2 -9 -12 -19 -22 -19 -16 -20 -16 -18 4 1 13 8 21 19 21 10 0
18 -2 18 -3z"/>
<path d="M2270 1101 c0 -7 -4 -9 -10 -6 -6 4 -7 -1 -4 -12 5 -16 4 -16 -10 1
-9 11 -16 15 -16 9 0 -6 6 -16 14 -22 12 -10 17 -8 26 9 6 12 9 24 6 28 -3 3
-6 0 -6 -7z"/>
<path d="M2035 1090 c27 -12 43 -12 25 0 -8 5 -22 9 -30 9 -10 0 -8 -3 5 -9z"/>
<path d="M2118 1093 c7 -3 16 -2 19 1 4 3 -2 6 -13 5 -11 0 -14 -3 -6 -6z"/>
<path d="M2104 1076 c10 -9 23 -13 29 -9 5 3 6 -3 3 -15 -10 -29 6 -34 40 -11
16 10 25 19 21 19 -4 0 -19 -7 -32 -16 -24 -16 -25 -15 -23 2 2 11 -1 21 -7
22 -5 2 -19 8 -30 14 -19 9 -19 9 -1 -6z"/>
<path d="M2200 1075 c14 -8 21 -15 15 -15 -5 0 -2 -7 8 -14 12 -9 14 -16 8
-21 -6 -3 -11 -11 -11 -18 0 -12 29 23 30 36 0 4 -7 7 -16 7 -8 0 -13 4 -9 9
3 6 -3 15 -14 20 -30 16 -40 12 -11 -4z"/>
<path d="M2000 1060 c-14 -11 -20 -20 -15 -19 13 0 50 28 44 33 -2 3 -15 -4
-29 -14z"/>
<path d="M2350 1074 c0 -3 7 -12 15 -20 16 -17 18 -14 9 10 -6 15 -24 23 -24
10z"/>
<path d="M2027 1047 c-10 -10 -17 -20 -15 -22 6 -6 40 24 37 32 -2 5 -12 0
-22 -10z"/>
<path d="M2070 1060 c0 -5 5 -10 10 -10 6 0 10 5 10 10 0 6 -4 10 -10 10 -5 0
-10 -4 -10 -10z"/>
<path d="M2265 1050 c-3 -6 1 -7 9 -4 18 7 21 14 7 14 -6 0 -13 -4 -16 -10z"/>
<path d="M2330 1050 c8 -5 20 -10 25 -10 6 0 3 5 -5 10 -8 5 -19 10 -25 10 -5
0 -3 -5 5 -10z"/>
<path d="M2300 1041 c0 -7 -3 -10 -8 -7 -11 7 -47 -23 -37 -31 4 -5 10 -2 12
5 3 6 8 10 13 7 10 -6 35 23 26 32 -3 3 -6 1 -6 -6z"/>
<path d="M2057 1033 c-4 -3 -7 -13 -7 -22 1 -13 3 -13 11 2 11 19 8 33 -4 20z"/>
<path d="M2085 1030 c-6 -9 -4 -11 5 -5 8 5 11 3 8 -6 -3 -8 -11 -13 -17 -11
-6 1 -11 -2 -11 -8 0 -13 17 -13 25 1 5 6 12 4 20 -7 12 -16 14 -16 40 4 15
12 23 22 17 22 -6 0 -14 -5 -17 -10 -5 -8 -11 -7 -21 1 -8 6 -14 8 -14 3 0 -4
-6 0 -13 11 -11 14 -16 15 -22 5z m50 -30 c3 -5 1 -10 -4 -10 -6 0 -11 5 -11
10 0 6 2 10 4 10 3 0 8 -4 11 -10z"/>
<path d="M2190 1030 c0 -5 5 -10 10 -10 6 0 10 5 10 10 0 6 -4 10 -10 10 -5 0
-10 -4 -10 -10z"/>
<path d="M2316 1025 c-9 -26 -7 -32 5 -12 6 10 9 21 6 23 -2 3 -7 -2 -11 -11z"/>
<path d="M2344 1016 c-16 -13 -17 -17 -5 -28 12 -11 13 -10 7 6 -5 14 -2 17 9
12 9 -3 14 -2 10 3 -3 5 1 12 7 14 7 3 8 6 2 6 -5 1 -19 -5 -30 -13z"/>
<path d="M1980 1010 c0 -6 5 -8 10 -5 6 3 10 2 10 -4 0 -5 -5 -12 -10 -14 -6
-3 -5 -4 2 -3 17 3 17 28 1 34 -7 2 -13 -1 -13 -8z"/>
<path d="M2159 983 c-13 -15 -12 -15 9 -4 23 12 28 21 13 21 -5 0 -15 -7 -22
-17z"/>
<path d="M2283 993 c-7 -3 -13 -14 -12 -26 0 -21 1 -20 10 3 8 20 12 22 19 10
6 -9 6 -16 0 -18 -6 -2 -10 -8 -10 -13 0 -5 9 -4 20 3 11 7 20 17 20 22 0 5
-3 6 -7 3 -3 -4 -11 -1 -17 7 -6 8 -17 12 -23 9z"/>
<path d="M2230 983 c8 -3 19 -11 23 -17 6 -7 7 -6 4 4 -2 8 -12 16 -23 17 -13
2 -15 1 -4 -4z"/>
<path d="M2346 963 c-12 -17 -15 -28 -8 -35 15 -15 36 0 23 16 -7 9 -7 16 1
24 6 6 10 14 7 16 -2 2 -12 -7 -23 -21z m9 -23 c3 -5 1 -10 -4 -10 -6 0 -11 5
-11 10 0 6 2 10 4 10 3 0 8 -4 11 -10z"/>
<path d="M2085 970 c-4 -6 1 -7 12 -3 16 6 16 5 4 -10 -16 -20 -5 -23 14 -3
12 12 12 15 -1 20 -21 8 -22 8 -29 -4z"/>
<path d="M2165 965 c-16 -8 -23 -14 -15 -14 8 0 26 6 40 14 32 18 15 18 -25 0z"/>
<path d="M1972 948 c-7 -7 -12 -16 -12 -21 0 -5 7 -1 16 8 9 9 19 13 22 10 4
-3 0 -11 -8 -16 -13 -9 -13 -10 0 -6 17 4 20 29 5 34 -6 2 -16 -2 -23 -9z"/>
<path d="M2119 938 c-1 -7 0 -20 1 -28 2 -12 -2 -11 -18 3 -16 15 -22 16 -28
5 -4 -7 -4 -10 1 -6 4 4 34 -19 66 -52 33 -32 59 -55 59 -50 0 5 -7 15 -15 24
-21 21 -19 29 6 21 19 -6 20 -5 8 8 -10 11 -18 12 -27 4 -22 -17 -44 16 -43
66 0 19 -8 24 -10 5z"/>
<path d="M2230 940 c0 -5 6 -7 13 -5 6 3 28 -8 47 -25 50 -43 64 -39 34 10
l-15 25 7 -24 6 -24 -34 27 c-36 27 -58 33 -58 16z"/>
<path d="M2016 925 c-3 -8 -1 -15 4 -15 6 0 10 7 10 15 0 8 -2 15 -4 15 -2 0
-6 -7 -10 -15z"/>
<path d="M2140 933 c0 -7 5 -13 11 -13 5 0 7 -4 4 -10 -3 -5 0 -10 7 -10 9 0
9 -3 -2 -10 -9 -6 -10 -10 -3 -10 22 0 23 18 3 41 -11 13 -19 18 -20 12z"/>
<path d="M2245 910 c3 -5 8 -10 11 -10 2 0 4 5 4 10 0 6 -5 10 -11 10 -5 0 -7
-4 -4 -10z"/>
<path d="M1966 895 c-3 -8 -1 -15 3 -15 5 0 11 7 15 15 3 8 1 15 -3 15 -5 0
-11 -7 -15 -15z"/>
<path d="M1997 894 c-3 -3 -3 -13 0 -21 5 -12 7 -12 14 -1 15 23 4 40 -14 22z"/>
<path d="M2290 880 c0 -5 5 -10 11 -10 5 0 7 5 4 10 -3 6 -8 10 -11 10 -2 0
-4 -4 -4 -10z"/>
<path d="M1940 870 c0 -5 5 -10 11 -10 5 0 7 5 4 10 -3 6 -8 10 -11 10 -2 0
-4 -4 -4 -10z"/>
<path d="M2103 847 c0 -17 3 -23 8 -15 13 21 21 1 9 -22 -6 -12 -9 -25 -5 -28
3 -3 8 4 12 16 6 25 14 27 31 10 6 -6 13 -10 15 -7 2 2 -13 20 -33 39 l-37 35
0 -28z"/>
<path d="M2265 869 c-4 -6 -5 -12 -2 -15 2 -3 7 2 10 11 7 17 1 20 -8 4z"/>
<path d="M2335 860 c3 -5 8 -10 11 -10 2 0 4 5 4 10 0 6 -5 10 -11 10 -5 0 -7
-4 -4 -10z"/>
<path d="M2280 844 c0 -8 -4 -12 -10 -9 -5 3 -10 1 -10 -4 0 -6 5 -11 11 -11
5 0 8 -4 5 -9 -3 -5 1 -14 9 -21 10 -9 15 -9 15 -1 0 6 -4 11 -9 11 -5 0 -7
14 -5 30 3 17 3 30 0 30 -3 0 -6 -7 -6 -16z"/>
<path d="M2310 853 c5 -2 10 -9 10 -14 0 -6 -4 -7 -10 -4 -5 3 -10 1 -10 -4 0
-6 5 -11 11 -11 5 0 7 -4 4 -10 -3 -5 -2 -10 4 -10 14 0 8 53 -7 56 -7 1 -8 0
-2 -3z"/>
<path d="M2205 830 c3 -5 8 -10 11 -10 2 0 4 5 4 10 0 6 -5 10 -11 10 -5 0 -7
-4 -4 -10z"/>
<path d="M2310 780 c0 -5 5 -10 10 -10 6 0 10 5 10 10 0 6 -4 10 -10 10 -5 0
-10 -4 -10 -10z"/>
<path d="M355 1341 c-3 -6 -15 -8 -27 -6 -11 3 -18 2 -14 -2 3 -3 1 -12 -5
-19 -13 -15 -42 -7 -32 10 4 6 -1 5 -10 -3 -16 -12 -15 -16 11 -47 15 -18 34
-32 43 -31 9 1 24 -5 34 -13 17 -14 17 -14 5 7 -8 12 -24 26 -37 32 -13 6 -23
16 -23 23 0 9 3 9 10 -2 8 -12 13 -11 33 8 13 12 24 29 24 37 0 17 -3 19 -12
6z m-11 -32 c-9 -10 -21 -16 -26 -13 -12 8 8 31 27 31 13 0 13 -3 -1 -18z
m-46 -29 c18 -16 28 -30 24 -30 -5 0 -21 14 -37 30 -16 17 -26 30 -23 30 3 0
19 -13 36 -30z"/>
<path d="M505 1290 c-4 -6 -11 -7 -17 -4 -7 4 -8 2 -4 -5 6 -9 11 -9 22 0 14
11 18 19 10 19 -3 0 -8 -5 -11 -10z"/>
<path d="M546 1243 c-4 -5 -12 -8 -17 -8 -5 0 -9 -3 -9 -7 0 -5 2 -8 5 -8 3 0
9 0 14 0 5 0 11 7 15 15 6 16 3 19 -8 8z"/>
<path d="M880 1045 c23 -31 41 -48 45 -43 3 2 -10 18 -27 34 -18 16 -26 20
-18 9z"/>
<path d="M1090 946 c0 -2 8 -10 18 -17 15 -13 16 -12 3 4 -13 16 -21 21 -21
13z"/>
<path d="M1235 941 c-3 -5 -2 -12 3 -15 5 -3 9 1 9 9 0 17 -3 19 -12 6z"/>
<path d="M794 932 c3 -5 0 -13 -6 -15 -8 -3 -6 -6 5 -6 19 -1 23 14 5 25 -6 4
-8 3 -4 -4z"/>
<path d="M826 932 c-2 -4 4 -8 14 -8 10 0 16 4 14 8 -3 4 -9 8 -14 8 -5 0 -11
-4 -14 -8z"/>
<path d="M890 930 c0 -5 5 -10 10 -10 6 0 10 5 10 10 0 6 -4 10 -10 10 -5 0
-10 -4 -10 -10z"/>
<path d="M992 931 c-11 -6 -10 -10 4 -15 9 -3 19 -4 22 -1 3 3 0 5 -7 5 -7 0
-9 5 -6 10 7 12 4 12 -13 1z"/>
<path d="M1068 923 c-4 -13 0 -19 13 -19 14 0 16 3 6 16 -6 8 -12 16 -13 18
-1 1 -4 -5 -6 -15z"/>
<path d="M876 910 c5 -20 4 -23 -7 -12 -7 6 -22 11 -33 11 -21 -1 -21 -1 -1
-6 11 -3 25 -9 32 -15 16 -13 26 8 13 29 -9 15 -10 14 -4 -7z"/>
<path d="M1120 910 c-9 -6 -10 -10 -3 -10 6 0 15 5 18 10 8 12 4 12 -15 0z"/>
<path d="M757 897 c-3 -8 -2 -20 3 -26 5 -9 8 -4 8 13 0 29 -3 32 -11 13z"/>
<path d="M1155 880 c1 -17 5 -33 8 -36 3 -3 5 8 3 25 -1 17 -5 33 -8 36 -3 3
-4 -8 -3 -25z"/>
<path d="M504 888 c12 -7 21 -7 28 0 6 6 0 10 -18 10 -23 0 -24 -2 -10 -10z"/>
<path d="M780 893 c0 -7 5 -15 11 -19 8 -4 7 -9 -2 -15 -11 -7 -10 -9 4 -9 9
0 17 3 17 8 -1 12 -30 47 -30 35z"/>
<path d="M809 887 c7 -10 22 -17 32 -17 11 0 18 -5 17 -12 -2 -6 10 -13 27
-14 20 -2 25 0 16 5 -8 5 -21 7 -29 3 -10 -3 -13 -1 -8 6 4 7 0 14 -11 18 -10
3 -27 10 -38 16 -18 10 -19 9 -6 -5z"/>
<path d="M950 891 c0 -6 4 -12 8 -15 5 -3 9 1 9 9 0 8 -4 15 -9 15 -4 0 -8 -4
-8 -9z"/>
<path d="M992 891 c-11 -7 -11 -9 0 -14 9 -3 15 1 15 9 0 8 -1 14 -1 14 -1 0
-7 -4 -14 -9z"/>
<path d="M934 872 c3 -5 0 -13 -6 -15 -9 -4 -10 -6 -1 -6 17 -1 25 16 12 25
-7 4 -9 3 -5 -4z"/>
<path d="M1067 862 c3 -7 9 -10 12 -5 3 4 10 11 15 15 4 4 -1 6 -12 5 -12 -1
-18 -6 -15 -15z"/>
<path d="M820 856 c0 -2 8 -10 18 -17 15 -13 16 -12 3 4 -13 16 -21 21 -21 13z"/>
<path d="M954 849 c-4 -7 -3 -9 4 -5 5 3 13 0 15 -6 4 -9 6 -10 6 -1 1 17 -16
25 -25 12z"/>
<path d="M1010 847 c0 -5 7 -6 16 -3 9 4 24 1 33 -6 14 -11 14 -11 3 4 -14 17
-52 21 -52 5z"/>
<path d="M1230 856 c0 -2 7 -7 16 -10 8 -3 12 -2 9 4 -6 10 -25 14 -25 6z"/>
<path d="M710 840 c0 -5 5 -10 10 -10 6 0 10 5 10 10 0 6 -4 10 -10 10 -5 0
-10 -4 -10 -10z"/>
<path d="M799 823 c-13 -16 -12 -17 4 -4 15 12 17 11 18 -10 1 -19 2 -20 6 -5
7 27 -11 40 -28 19z"/>
<path d="M880 821 c0 -10 19 -25 25 -20 1 2 -3 10 -11 17 -8 7 -14 8 -14 3z"/>
<path d="M917 819 c7 -7 15 -10 18 -7 3 3 -2 9 -12 12 -14 6 -15 5 -6 -5z"/>
<path d="M1150 826 c0 -2 8 -10 18 -17 15 -13 16 -12 3 4 -13 16 -21 21 -21
13z"/>
<path d="M630 808 c0 -11 12 -10 30 2 12 7 10 9 -8 7 -12 0 -22 -5 -22 -9z"/>
<path d="M685 805 c-16 -8 -23 -14 -14 -15 8 0 24 7 35 15 23 18 18 18 -21 0z"/>
<path d="M734 811 c3 -5 -1 -11 -9 -15 -8 -3 -15 -10 -15 -16 0 -5 9 -2 20 7
22 19 26 33 9 33 -5 0 -8 -4 -5 -9z"/>
<path d="M973 805 c0 -7 7 -11 15 -7 9 3 13 1 9 -5 -3 -5 0 -10 8 -10 17 0 10
14 -14 26 -13 7 -18 6 -18 -4z"/>
<path d="M1074 806 c1 -8 5 -18 8 -22 4 -3 5 1 4 10 -1 8 -5 18 -8 22 -4 3 -5
-1 -4 -10z"/>
<path d="M779 798 c0 -2 -2 -14 -5 -28 -3 -18 -2 -21 5 -10 5 8 7 18 4 24 -4
5 1 7 10 3 10 -3 17 -2 17 3 0 8 -28 15 -31 8z"/>
<path d="M870 790 c0 -5 5 -10 11 -10 5 0 7 5 4 10 -3 6 -8 10 -11 10 -2 0 -4
-4 -4 -10z"/>
<path d="M913 792 c-9 -6 -7 -11 7 -19 14 -10 19 -9 24 2 3 10 0 12 -11 8 -11
-4 -14 -2 -9 5 8 14 6 15 -11 4z"/>
<path d="M1110 790 c0 -5 5 -10 11 -10 5 0 7 5 4 10 -3 6 -8 10 -11 10 -2 0
-4 -4 -4 -10z"/>
<path d="M750 781 c0 -7 -4 -9 -10 -6 -6 4 -7 -1 -3 -11 6 -15 7 -15 15 1 6 9
7 19 4 22 -3 4 -6 1 -6 -6z"/>
<path d="M850 775 c0 -8 4 -15 10 -15 5 0 7 7 4 15 -4 8 -8 15 -10 15 -2 0 -4
-7 -4 -15z"/>
<path d="M819 773 c-1 -5 -1 -12 0 -17 1 -5 -5 -6 -14 -3 -8 4 -15 2 -15 -4 0
-18 33 -5 36 14 1 9 0 17 -2 17 -2 0 -5 -3 -5 -7z"/>
<path d="M959 773 c0 -5 -2 -16 -4 -26 -2 -11 -1 -16 3 -13 8 8 14 46 7 46 -3
0 -5 -3 -6 -7z"/>
<path d="M875 750 c-3 -6 1 -7 9 -4 18 7 21 14 7 14 -6 0 -13 -4 -16 -10z"/>
<path d="M1024 752 c4 -3 14 -7 22 -8 9 -1 13 0 10 4 -4 3 -14 7 -22 8 -9 1
-13 0 -10 -4z"/>
<path d="M1194 752 c4 -3 14 -7 22 -8 9 -1 13 0 10 4 -4 3 -14 7 -22 8 -9 1
-13 0 -10 -4z"/>
<path d="M829 733 c-13 -17 -13 -17 6 -3 11 8 22 16 24 17 2 2 0 3 -6 3 -6 0
-17 -8 -24 -17z"/>
<path d="M898 733 c6 -2 12 -9 12 -14 0 -6 -6 -7 -12 -3 -7 4 -9 3 -5 -1 4 -5
14 -10 22 -11 12 -2 12 2 5 17 -6 10 -16 19 -23 18 -9 0 -9 -2 1 -6z"/>
<path d="M996 731 c-3 -5 2 -15 12 -22 15 -12 16 -12 5 2 -7 9 -10 19 -6 22 3
4 4 7 0 7 -3 0 -8 -4 -11 -9z"/>
<path d="M1247 729 c7 -7 15 -10 18 -7 3 3 -2 9 -12 12 -14 6 -15 5 -6 -5z"/>
<path d="M1034 715 c1 -8 8 -21 16 -28 12 -10 12 -9 2 4 -6 9 -9 18 -6 21 3 3
1 9 -4 12 -6 3 -9 -1 -8 -9z"/>
<path d="M1115 700 c-4 -6 -11 -7 -17 -4 -7 4 -8 2 -4 -5 6 -9 11 -9 22 0 14
11 18 19 10 19 -3 0 -8 -5 -11 -10z"/>
<path d="M550 1170 c0 -5 5 -10 10 -10 6 0 10 5 10 10 0 6 -4 10 -10 10 -5 0
-10 -4 -10 -10z"/>
<path d="M655 1119 c-4 -6 -5 -12 -2 -15 2 -3 7 2 10 11 7 17 1 20 -8 4z"/>
<path d="M590 913 c0 -4 5 -15 10 -23 8 -13 10 -13 10 2 0 9 -4 20 -10 23 -5
3 -10 3 -10 -2z"/>
<path d="M1875 770 c-3 -5 -1 -10 4 -10 6 0 11 5 11 10 0 6 -2 10 -4 10 -3 0
-8 -4 -11 -10z"/>
<path d="M1767 646 c-4 -10 -1 -13 8 -9 8 3 12 9 9 14 -7 12 -11 11 -17 -5z"/>
<path d="M1610 549 c0 -5 5 -7 10 -4 6 3 10 8 10 11 0 2 -4 4 -10 4 -5 0 -10
-5 -10 -11z"/>
<path d="M1576 541 c-3 -5 2 -15 12 -22 15 -12 16 -12 5 2 -7 9 -10 19 -6 22
3 4 4 7 0 7 -3 0 -8 -4 -11 -9z"/>
<path d="M1458 499 c-10 -6 -9 -12 2 -26 8 -11 5 -8 -7 5 -20 20 -25 19 -22
-4 0 -4 -5 -10 -11 -14 -9 -5 -9 -9 -1 -14 6 -4 11 -2 11 4 0 6 5 8 11 4 8 -4
7 -9 -2 -16 -11 -8 -11 -9 1 -5 8 2 14 10 12 16 -1 8 4 8 18 -1 16 -10 17 -14
5 -21 -8 -4 -15 -13 -15 -19 0 -7 5 -7 14 1 10 8 16 9 21 1 6 -9 -1 -14 -17
-11 -5 0 -8 -4 -8 -10 0 -6 7 -8 16 -5 9 3 12 2 9 -5 -4 -6 -13 -8 -21 -5 -7
3 -16 1 -19 -4 -8 -13 -25 -13 -25 1 0 5 5 7 10 4 6 -3 10 -2 10 4 0 5 -9 9
-19 8 -16 -1 -18 -5 -10 -19 11 -20 25 -23 34 -8 4 6 11 8 16 4 5 -3 17 0 26
8 14 11 16 11 8 -1 -5 -10 -4 -12 4 -7 6 4 9 12 6 17 -4 5 -1 9 4 9 15 0 14
-13 -1 -30 -11 -11 -9 -11 7 0 19 14 19 14 4 -5 -9 -11 -19 -27 -23 -35 -4 -8
2 -4 13 10 43 54 52 64 45 51 -5 -10 -3 -12 7 -7 8 4 2 -2 -13 -14 -30 -23
-38 -46 -12 -36 10 4 13 2 8 -6 -4 -7 -3 -8 4 -4 17 11 15 29 -3 22 -21 -8
-19 1 3 13 14 7 18 6 19 -9 1 -10 -5 -24 -13 -31 -17 -14 -18 -29 -3 -29 5 0
8 4 5 9 -3 5 2 15 12 22 16 13 16 12 2 -6 -11 -16 -11 -17 0 -7 8 6 19 12 25
12 5 0 3 -5 -5 -11 -13 -10 -13 -10 0 -6 22 7 45 -14 46 -40 1 -13 -3 -20 -7
-17 -5 3 -9 0 -9 -5 0 -14 17 -14 25 -1 4 6 10 8 15 5 20 -13 19 17 -1 34
l-23 18 21 27 c14 17 23 22 26 14 3 -7 4 1 3 19 -3 40 -10 48 -26 28 -11 -13
-14 -12 -30 8 -15 18 -28 22 -72 22 -29 0 -55 5 -56 10 -2 6 -8 16 -14 23 -8
9 -5 19 12 37 13 14 22 25 19 26 -23 5 -60 4 -71 -2z m45 -21 c-12 -14 -19
-15 -29 -7 -19 15 -10 25 20 25 24 0 24 -1 9 -18z m57 -84 c0 -8 -19 -13 -24
-6 -3 5 1 9 9 9 8 0 15 -2 15 -3z m72 -12 c7 -7 8 -12 3 -12 -6 0 -3 -5 5 -10
10 -6 20 -4 31 6 27 25 20 -11 -10 -46 l-26 -30 -24 21 c-13 11 -25 30 -25 42
-1 12 -5 27 -8 33 -10 15 38 12 54 -4z m37 -125 c8 -10 7 -14 -2 -14 -8 0 -14
6 -14 14 0 7 1 13 2 13 2 0 8 -6 14 -13z"/>
<path d="M1476 478 c3 -5 10 -6 15 -3 13 9 11 12 -6 12 -8 0 -12 -4 -9 -9z"/>
<path d="M1594 364 c1 -13 11 -34 23 -45 l20 -21 24 34 c13 18 16 28 8 21 -16
-13 -44 -2 -44 18 0 7 -7 13 -16 14 -11 2 -15 -5 -15 -21z m21 7 c-3 -5 4 -16
16 -25 12 -8 18 -19 14 -26 -10 -16 -44 16 -40 38 5 23 4 22 11 22 3 0 3 -4
-1 -9z"/>
<path d="M1610 346 c0 -2 8 -10 18 -17 15 -13 16 -12 3 4 -13 16 -21 21 -21
13z"/>
<path d="M1305 472 c-3 -3 0 -11 6 -18 16 -19 -10 -29 -28 -11 -14 14 -18 12
-45 -15 -33 -33 -32 -46 2 -28 12 7 20 8 17 3 -4 -5 7 -10 24 -10 18 0 25 3
17 8 -7 4 -9 11 -5 16 5 4 12 1 18 -7 8 -13 11 -13 19 2 7 11 18 15 33 12 12
-3 28 -6 34 -6 9 -1 10 -5 3 -13 -8 -9 -2 -12 24 -11 19 0 32 5 29 9 -3 4 1
16 9 25 12 15 11 16 -4 4 -14 -12 -21 -10 -47 9 -34 25 -39 31 -16 23 8 -4 15
-2 15 4 0 15 -26 9 -48 -11 -24 -22 -32 -21 -27 1 3 17 -17 26 -30 14z m125
-63 c0 -5 -9 0 -20 11 -11 11 -28 17 -40 15 -18 -3 -20 -2 -10 10 11 13 16 12
41 -6 16 -11 29 -25 29 -30z m-147 25 c11 -11 -3 -24 -18 -18 -8 4 -12 10 -9
15 6 11 18 12 27 3z"/>
<path d="M1529 463 c-13 -16 -12 -17 4 -4 16 13 21 21 13 21 -2 0 -10 -8 -17
-17z"/>
<path d="M1193 436 c5 -35 -11 -54 -29 -36 -15 15 -10 -56 5 -74 11 -13 12
-19 2 -29 -10 -9 -11 -8 -5 8 7 17 6 18 -8 7 -13 -10 -17 -10 -22 3 -3 8 -11
15 -17 15 -7 0 -5 -8 5 -19 10 -11 15 -24 12 -29 -3 -5 8 -9 24 -9 16 0 29 3
28 6 -2 22 4 32 16 28 8 -3 17 1 20 10 5 11 2 14 -9 9 -9 -3 -24 0 -34 6 -15
9 -17 15 -8 30 7 10 17 18 23 18 6 0 11 19 10 45 0 25 -4 45 -9 45 -5 0 -7
-15 -4 -34z"/>
<path d="M1327 397 c-11 -11 -25 -16 -37 -12 -10 3 -21 1 -25 -4 -4 -7 1 -9
12 -5 17 5 17 5 1 -6 -10 -6 -18 -15 -18 -20 0 -15 23 -7 38 13 7 9 18 15 24
11 6 -4 6 -10 -1 -17 -16 -16 -14 -32 2 -18 8 6 17 7 21 3 5 -4 7 0 6 8 -4 28
0 41 11 35 6 -4 8 -13 6 -19 -3 -7 1 -13 8 -13 7 0 11 7 8 16 -4 14 -3 14 5 1
12 -16 6 -33 -9 -25 -5 4 -9 2 -9 -3 0 -18 14 -21 31 -6 14 12 18 13 25 2 4
-7 4 -10 -1 -6 -9 9 -35 -9 -35 -24 0 -7 5 -6 13 1 8 6 17 8 20 4 4 -3 7 -1 7
6 0 7 5 9 10 6 6 -3 10 -1 10 4 0 6 8 3 18 -6 10 -10 14 -21 9 -24 -5 -4 -4
-9 2 -13 6 -4 11 -2 11 5 0 7 6 5 13 -6 8 -10 18 -15 24 -12 5 3 10 0 10 -7 0
-9 -7 -12 -15 -8 -12 4 -14 1 -9 -14 7 -19 7 -19 -8 0 -8 10 -12 23 -9 27 3 5
-2 6 -11 2 -12 -4 -13 -8 -5 -13 9 -5 9 -9 1 -14 -6 -4 -11 -2 -11 5 0 16 -13
3 -16 -16 -1 -8 2 -15 7 -15 6 0 7 -5 3 -12 -4 -7 -3 -8 5 -4 6 4 9 11 6 16
-9 14 16 23 28 11 16 -16 30 -14 24 3 -4 10 -1 13 8 9 8 -3 12 -9 9 -14 -11
-18 27 -21 46 -4 15 13 20 14 20 5 0 -9 5 -7 14 5 26 36 -12 66 -52 41 -7 -4
-20 -2 -29 6 -9 7 -18 12 -20 10 -3 -2 -8 -1 -11 3 -4 4 -2 6 3 5 6 -1 17 -2
25 -1 13 1 13 2 0 11 -9 5 -19 5 -26 0 -16 -14 -25 0 -13 21 5 11 6 20 2 20
-28 4 -39 3 -50 -4 -7 -5 -21 -2 -35 7 -12 9 -18 16 -13 16 6 0 2 5 -8 11 -9
6 -15 14 -12 19 3 4 -2 10 -10 13 -10 4 -12 1 -9 -11 5 -15 4 -15 -8 -2 -12
14 -15 14 -31 -3z m167 -62 c-4 -8 -11 -15 -16 -15 -6 0 -5 6 2 15 7 8 14 15
16 15 2 0 1 -7 -2 -15z m123 -80 c1 -11 -1 -14 -4 -7 -3 6 -9 12 -14 12 -5 0
-8 -6 -6 -12 1 -7 -4 -12 -10 -10 -7 1 -13 -2 -13 -8 0 -5 -5 -10 -12 -10 -6
0 -8 3 -5 6 3 4 2 16 -4 28 -10 20 -10 20 5 2 9 -11 17 -17 17 -13 2 9 6 26 8
30 0 1 9 3 19 3 11 0 18 -8 19 -21z"/>
<path d="M1207 374 c-31 -17 -31 -38 -1 -40 10 -1 21 -2 24 -3 11 -5 47 -12
82 -15 29 -3 35 -1 31 10 -4 10 -9 11 -18 4 -6 -5 -15 -7 -19 -3 -7 7 -55 15
-96 15 -21 0 -22 1 -7 9 9 6 22 7 27 4 15 -9 30 4 23 20 -6 18 -11 18 -46 -1z"/>
<path d="M1000 360 c0 -5 5 -10 11 -10 5 0 7 5 4 10 -3 6 -8 10 -11 10 -2 0
-4 -4 -4 -10z"/>
<path d="M1350 331 c0 -6 5 -11 12 -11 6 0 8 -3 4 -7 -4 -5 -28 -8 -54 -8 -45
-1 -46 -1 -48 -34 -2 -30 0 -32 14 -18 12 13 13 19 3 31 -10 12 -9 14 6 12 11
-2 17 -10 15 -22 -3 -15 -1 -16 12 -5 9 7 13 18 9 24 -3 6 -1 7 6 3 9 -6 9
-11 0 -22 -14 -17 2 -19 19 -2 9 9 15 9 24 0 17 -17 33 -15 19 2 -10 12 -9 14
6 11 10 -1 17 -8 15 -15 -2 -7 5 -9 20 -5 20 5 21 4 5 -5 -26 -16 -57 -21 -57
-8 0 6 -3 9 -6 5 -3 -3 -1 -14 5 -24 6 -11 11 -13 11 -5 0 7 5 10 11 6 8 -5 8
-9 -1 -14 -6 -4 -11 -11 -10 -16 1 -5 -4 -10 -12 -12 -9 -2 -8 0 2 7 8 6 13
11 10 12 -28 5 -52 4 -56 -3 -3 -5 -12 -4 -20 3 -11 9 -18 8 -31 -2 -11 -10
-14 -10 -9 -1 4 6 3 12 -1 12 -12 0 -33 -22 -33 -34 0 -6 5 -4 10 4 5 8 10 10
10 4 0 -12 44 -11 74 1 12 5 17 5 13 -1 -10 -16 66 -11 84 6 17 17 21 40 5 40
-6 0 -1 7 12 15 24 17 25 63 1 56 -8 -2 -21 -5 -29 -6 -8 -2 -15 -4 -15 -5 0
-1 -8 -3 -18 -5 -12 -2 -17 1 -13 10 2 7 -2 19 -10 25 -10 9 -14 9 -14 1z
m100 -46 c11 -13 10 -14 -4 -9 -9 3 -16 10 -16 15 0 13 6 11 20 -6z m-20 -52
c0 -5 -5 -15 -10 -23 -7 -12 -9 -10 -7 8 1 19 17 33 17 15z"/>
<path d="M1221 293 c-10 -22 -9 -24 9 -18 12 4 20 2 20 -5 0 -6 -5 -8 -11 -4
-8 4 -8 0 0 -15 10 -17 9 -20 -4 -15 -8 3 -12 10 -9 15 3 5 1 9 -5 9 -5 0 -11
-3 -14 -7 -2 -5 -2 -2 -1 5 4 13 -12 17 -20 4 -7 -11 10 -35 26 -38 7 -1 19
-3 27 -5 11 -3 15 8 16 47 2 56 -15 69 -34 27z"/>
<path d="M1195 290 c-3 -5 -1 -10 4 -10 6 0 11 5 11 10 0 6 -2 10 -4 10 -3 0
-8 -4 -11 -10z"/>
<path d="M1154 241 c6 -52 19 -61 52 -35 10 8 14 13 7 10 -6 -4 -14 -2 -18 4
-10 17 -25 11 -19 -7 5 -15 4 -16 -5 -3 -6 9 -6 19 -1 24 10 10 2 36 -11 36
-5 0 -7 -13 -5 -29z"/>
<path d="M1344 255 c-5 -12 -10 -13 -20 -4 -9 7 -14 8 -14 1 0 -6 6 -13 13
-15 9 -4 9 -6 -1 -6 -7 -1 -15 6 -18 14 -5 12 -10 13 -20 4 -15 -12 -9 -33 7
-23 5 3 16 1 23 -5 10 -9 15 -7 20 6 6 15 8 15 16 3 5 -8 12 -11 16 -7 4 3 2
13 -5 21 -9 11 -9 15 1 19 10 4 10 6 0 6 -7 1 -15 -6 -18 -14z"/>
<path d="M2020 510 c-9 -6 -10 -10 -3 -10 6 0 15 5 18 10 8 12 4 12 -15 0z"/>
<path d="M1635 482 c-13 -23 -15 -24 -10 -4 4 12 2 22 -3 22 -12 0 -33 -25
-31 -36 3 -20 -2 -28 -10 -16 -7 11 -9 11 -14 -1 -4 -10 2 -13 21 -11 15 1 29
3 32 4 3 1 9 2 13 1 5 -1 6 3 2 9 -3 5 -1 11 4 11 6 1 16 3 21 4 6 1 15 3 21
4 17 2 6 34 -14 37 -10 1 -24 -9 -32 -24z m37 9 c8 12 9 12 6 0 -2 -8 -11 -15
-20 -17 -12 -1 -15 3 -10 14 4 12 7 13 10 3 4 -11 6 -11 14 0z m-57 -21 c-1
-11 -4 -22 -7 -25 -4 -5 -4 34 1 43 4 8 7 -1 6 -18z"/>
<path d="M1800 300 c-20 -15 -20 -17 -4 -15 11 1 29 6 40 13 12 6 24 9 28 7 3
-3 4 -2 1 2 -10 13 -43 9 -65 -7z"/>
<path d="M1795 400 c-18 -20 -18 -21 1 -14 19 7 18 7 -1 -17 l-20 -24 23 19
c16 14 22 15 22 6 0 -9 5 -7 14 6 10 13 11 23 4 31 -14 18 -22 16 -43 -7z m36
-3 c-1 -12 -15 -9 -19 4 -3 6 1 10 8 8 6 -3 11 -8 11 -12z"/>
</g>
</svg>
