<?xml version="1.0" encoding="utf-8"?>
<!-- Generator: Adobe Illustrator 18.1.1, SVG Export Plug-In . SVG Version: 6.00 Build 0)  -->
<!DOCTYPE svg PUBLIC "-//W3C//DTD SVG 1.1//EN" "http://www.w3.org/Graphics/SVG/1.1/DTD/svg11.dtd">
<svg version="1.1" id="Layer_1" xmlns="http://www.w3.org/2000/svg" xmlns:xlink="http://www.w3.org/1999/xlink" x="0px" y="0px"
	 viewBox="0 0 2000 2000" enable-background="new 0 0 2000 2000" xml:space="preserve">
<path id="path-1" d="M2000,326.5c-76.5,35.3-152.9,58.8-235.3,70.6c82.4-52.9,147.1-141.2,182.4-247.1
	c-76.5,52.9-164.7,88.2-258.8,105.9c-76.5-88.2-182.4-141.2-300-141.2c-229.4,0-411.8,200-411.8,447.1c0,35.3,5.9,70.6,11.8,100
	c-341.2-17.6-641.2-194.1-847.1-464.7c-35.3,64.7-52.9,141.2-52.9,223.5c0,152.9,70.6,288.2,182.4,370.6
	c-64.7,0-129.4-23.5-188.2-52.9v5.9c0,217.6,141.2,394.1,329.4,435.3c-35.3,11.8-70.6,17.6-105.9,17.6c-29.4,0-52.9,0-76.5-5.9
	c52.9,176.5,205.9,305.9,382.4,311.8c-141.2,117.6-317.6,188.2-511.8,188.2c-35.3,0-64.7,0-100-5.9c182.4,123.5,400,200,629.4,200
	c752.9,0,1164.7-676.5,1164.7-1264.7c0-17.6,0-41.2,0-58.8C1876.5,491.2,1947.1,414.7,2000,326.5z"/>
</svg>
