<?xml version="1.0" encoding="utf-8"?>
<!-- Generator: Adobe Illustrator 18.1.1, SVG Export Plug-In . SVG Version: 6.00 Build 0)  -->
<!DOCTYPE svg PUBLIC "-//W3C//DTD SVG 1.1//EN" "http://www.w3.org/Graphics/SVG/1.1/DTD/svg11.dtd">
<svg version="1.1" id="Layer_1" xmlns="http://www.w3.org/2000/svg" xmlns:xlink="http://www.w3.org/1999/xlink" x="0px" y="0px"
	 viewBox="0 0 2000 2000" enable-background="new 0 0 2000 2000" xml:space="preserve">
<path fill="#FFFFFF" d="M1000,1917.6c-505.9,0-917.6-411.8-917.6-917.6S494.1,82.4,1000,82.4s917.6,411.8,917.6,917.6
	S1505.9,1917.6,1000,1917.6z M1776.5,1129.4c-29.4-5.9-241.2-70.6-488.2-35.3c100,282.4,141.2,511.8,152.9,558.8
	C1611.8,1535.3,1741.2,1347.1,1776.5,1129.4z M1305.9,1723.5c-11.8-70.6-58.8-305.9-164.7-594.1h-5.9
	c-441.2,152.9-600,458.8-611.8,488.2c135.3,105.9,300,164.7,482.4,164.7C1111.8,1788.2,1211.8,1764.7,1305.9,1723.5z M423.5,1529.4
	c17.6-29.4,229.4-388.2,635.3-517.6c11.8-5.9,17.6-5.9,29.4-11.8c-17.6-47.1-41.2-88.2-64.7-135.3
	C635.3,982.4,252.9,976.5,217.6,976.5c0,5.9,0,17.6,0,23.5C217.6,1205.9,294.1,1388.2,423.5,1529.4z M235.3,847.1
	c35.3,0,358.8,0,723.5-94.1C829.4,523.5,688.2,329.4,670.6,300C452.9,400,288.2,600,235.3,847.1z M817.6,247.1
	c23.5,29.4,164.7,223.5,294.1,458.8c276.5-105.9,394.1-264.7,411.8-282.4c-135.3-123.5-317.6-194.1-517.6-194.1
	C941.2,223.5,876.5,229.4,817.6,247.1z M1605.9,511.8c-17.6,23.5-147.1,188.2-435.3,305.9c17.6,35.3,35.3,76.5,52.9,111.8
	c5.9,11.8,11.8,29.4,17.6,41.2c258.8-35.3,517.6,17.6,547.1,23.5C1782.4,811.8,1717.6,641.2,1605.9,511.8z"/>
</svg>
