<?xml version="1.0" encoding="utf-8"?>
<!-- Generator: Adobe Illustrator 18.1.1, SVG Export Plug-In . SVG Version: 6.00 Build 0)  -->
<!DOCTYPE svg PUBLIC "-//W3C//DTD SVG 1.1//EN" "http://www.w3.org/Graphics/SVG/1.1/DTD/svg11.dtd">
<svg version="1.1" id="Layer_1" xmlns="http://www.w3.org/2000/svg" xmlns:xlink="http://www.w3.org/1999/xlink" x="0px" y="0px"
	 viewBox="-982 986 34 30" enable-background="new -982 986 34 30" xml:space="preserve">
<path id="path-1" fill="#FFFFFF" d="M-948,989.6c-1.3,0.6-2.6,1-4,1.2c1.4-0.9,2.5-2.4,3.1-4.2c-1.3,0.9-2.8,1.5-4.4,1.8
	c-1.3-1.5-3.1-2.4-5.1-2.4c-3.9,0-7,3.4-7,7.6c0,0.6,0.1,1.2,0.2,1.7c-5.8-0.3-10.9-3.3-14.4-7.9c-0.6,1.1-0.9,2.4-0.9,3.8
	c0,2.6,1.2,4.9,3.1,6.3c-1.1,0-2.2-0.4-3.2-0.9c0,0,0,0.1,0,0.1c0,3.7,2.4,6.7,5.6,7.4c-0.6,0.2-1.2,0.3-1.8,0.3
	c-0.5,0-0.9,0-1.3-0.1c0.9,3,3.5,5.2,6.5,5.3c-2.4,2-5.4,3.2-8.7,3.2c-0.6,0-1.1,0-1.7-0.1c3.1,2.1,6.8,3.4,10.7,3.4
	c12.8,0,19.8-11.5,19.8-21.5c0-0.3,0-0.7,0-1C-950.1,992.4-948.9,991.1-948,989.6z"/>
</svg>
