<?xml version="1.0" encoding="utf-8"?>
<!-- Generator: Adobe Illustrator 18.1.1, SVG Export Plug-In . SVG Version: 6.00 Build 0)  -->
<!DOCTYPE svg PUBLIC "-//W3C//DTD SVG 1.1//EN" "http://www.w3.org/Graphics/SVG/1.1/DTD/svg11.dtd">
<svg version="1.1" id="Layer_1" xmlns="http://www.w3.org/2000/svg" xmlns:xlink="http://www.w3.org/1999/xlink" x="0px" y="0px"
	 viewBox="0 0 2000 2000" enable-background="new 0 0 2000 2000" xml:space="preserve">
<path fill="#FFFFFF" d="M1617.6,98.2H382.4c-164.7,0-294.1,129.4-294.1,294.1v1235.3c0,164.7,129.4,294.1,294.1,294.1h1235.3
	c164.7,0,294.1-129.4,294.1-294.1V392.4C1911.8,227.6,1782.4,98.2,1617.6,98.2z M1347.1,439.4v-82.4c0-29.4,23.5-52.9,52.9-52.9
	h217.6c29.4,0,52.9,23.5,52.9,52.9v88.2v129.4c0,29.4-23.5,52.9-52.9,52.9H1400c-29.4,0-52.9-23.5-52.9-52.9V439.4z M1000,782.8
	c161.4,0,292.2,130.8,292.2,292.2s-130.8,292.2-292.2,292.2S707.8,1236.4,707.8,1075S838.6,782.8,1000,782.8z M1676.5,1627.6
	c0,35.3-23.5,58.8-58.8,58.8H382.4c-35.3,0-58.8-23.5-58.8-58.8V833.5h200c-35.3,70.6-52.9,152.9-52.9,235.3
	c0,294.1,235.3,529.4,529.4,529.4s529.4-235.3,529.4-529.4c0-82.4-17.6-164.7-52.9-235.3h200V1627.6z"/>
</svg>
