<svg xmlns="http://www.w3.org/2000/svg" viewBox="0 0 503.84104 503.84104"><title>Asset 1</title><g id="Layer_2" data-name="Layer 2"><g id="Logo"><path d="M251.92052,45.39108c67.2658,0,75.23317.25654,101.79732,1.46851,24.56183,1.12079,37.90117,5.22449,46.77825,8.6744a78.05239,78.05239,0,0,1,28.966,18.84456A78.0522,78.0522,0,0,1,448.30705,103.345c3.44988,8.877,7.55364,22.21639,8.6744,46.77786,1.212,26.56451,1.46851,34.53191,1.46851,101.79768s-.25654,75.23317-1.46851,101.79732c-1.12076,24.56183-5.22452,37.90117-8.6744,46.77825a83.427,83.427,0,0,1-47.811,47.811c-8.87708,3.44988-22.21642,7.55364-46.77825,8.6744-26.56032,1.212-34.527,1.46851-101.79732,1.46851s-75.237-.25654-101.79732-1.46851c-24.56183-1.12076-37.9012-5.22452-46.77822-8.6744a78.05149,78.05149,0,0,1-28.966-18.84456A78.05338,78.05338,0,0,1,55.534,400.49609c-3.44991-8.87708-7.55361-22.21642-8.6744-46.77792-1.212-26.56448-1.46851-34.53186-1.46851-101.79765s.25654-75.23317,1.46851-101.79732c1.12079-24.56183,5.22449-37.9012,8.6744-46.77822a78.05183,78.05183,0,0,1,18.84456-28.966A78.05255,78.05255,0,0,1,103.345,55.534c8.877-3.44991,22.21639-7.55361,46.77786-8.6744,26.56451-1.212,34.53191-1.46851,101.79768-1.46851m0-45.39108C183.50291,0,174.924.28978,148.05409,1.5157c-26.81451,1.22356-45.12673,5.48216-61.15141,11.70981A123.48755,123.48755,0,0,0,42.28233,42.28233,123.48755,123.48755,0,0,0,13.22551,86.90268C6.99786,102.92736,2.73926,121.23958,1.5157,148.05409.28978,174.924,0,183.50271,0,251.92052c0,68.41764.28978,76.99651,1.5157,103.8664,1.22356,26.81454,5.48216,45.12673,11.70981,61.15141a123.48872,123.48872,0,0,0,29.05682,44.62034,123.48632,123.48632,0,0,0,44.62034,29.05683c16.02468,6.2277,34.3369,10.48627,61.15141,11.70981,26.86989,1.22615,35.44882,1.51571,103.86643,1.51571s76.99651-.28957,103.8664-1.51571c26.81454-1.22354,45.12673-5.48211,61.15141-11.70981a128.81681,128.81681,0,0,0,73.67718-73.67718c6.2277-16.02468,10.48627-34.33687,11.70981-61.15141,1.22592-26.86989,1.51571-35.44876,1.51571-103.8664s-.28979-76.99654-1.51571-103.86643c-1.22354-26.81451-5.48211-45.12673-11.70981-61.15141a123.48632,123.48632,0,0,0-29.05683-44.62034,123.48732,123.48732,0,0,0-44.62034-29.05682C400.91365,6.99786,382.60146,2.73926,355.78692,1.5157,328.917.28978,320.33816,0,251.92052,0Z"/><path d="M251.92052,122.55593A129.36456,129.36456,0,1,0,381.28511,251.92052,129.36457,129.36457,0,0,0,251.92052,122.55593Zm0,213.338A83.97348,83.97348,0,1,1,335.894,251.92052,83.9735,83.9735,0,0,1,251.92052,335.894Z"/><circle cx="386.39634" cy="117.44471" r="30.23046"/></g></g></svg>