<svg xmlns="http://www.w3.org/2000/svg" xmlns:xlink="http://www.w3.org/1999/xlink" preserveAspectRatio="xMidYMid" width="64" height="62" viewBox="0 0 64 62">
  <defs>
    <style>

      .cls-2 {
        fill: #ffffff;
      }
    </style>
  </defs>
  <path d="M32.000,0.000 C13.753,0.000 -0.000,10.635 -0.000,25.000 C-0.000,25.000 0.008,35.921 0.008,35.921 C0.008,51.758 12.562,61.991 31.992,61.991 C50.240,61.991 64.000,51.367 64.000,37.000 C64.000,37.000 64.000,26.000 64.000,26.000 C64.000,10.163 51.430,0.000 32.000,0.000 ZM32.000,39.000 C37.931,39.000 42.513,36.272 43.736,32.793 C44.507,34.017 45.000,35.580 45.000,37.000 C45.000,42.469 38.701,46.000 30.000,46.000 C15.202,46.000 4.000,37.278 4.000,25.000 C4.000,12.920 16.112,4.000 32.000,4.000 C47.640,4.000 58.180,11.410 59.678,23.118 C59.678,23.118 59.679,23.174 59.679,23.174 C54.610,16.065 45.146,12.000 34.000,12.000 C22.939,12.000 15.000,17.247 15.000,25.000 C15.000,32.035 22.641,39.000 32.000,39.000 M32.000,35.000 C27.445,35.000 24.000,32.573 24.000,31.000 C24.000,29.209 27.450,27.000 32.000,27.000 M32.000,27.000 C37.469,27.000 40.000,29.359 40.000,31.000 C40.000,32.791 36.522,35.000 32.000,35.000 M32.000,23.000 C31.991,23.000 32.009,23.000 32.000,23.000 C26.206,23.000 21.482,25.712 20.256,29.191 C19.489,27.968 19.000,26.417 19.000,25.000 C19.000,19.533 25.297,16.000 34.000,16.000 C48.797,16.000 60.000,24.724 60.000,37.000 C60.000,49.082 47.890,58.000 32.000,58.000 C16.349,58.000 5.835,50.560 4.348,38.838 C9.420,45.933 18.866,50.000 30.000,50.000 C41.060,50.000 49.000,44.755 49.000,37.000 C49.000,30.167 41.156,23.000 32.000,23.000 " id="path-1" class="cls-2" fill-rule="evenodd"/>
</svg>
