<?xml version="1.0" encoding="UTF-8" standalone="no"?>
<svg width="47px" height="47px" viewBox="0 0 47 47" version="1.1" xmlns="http://www.w3.org/2000/svg" xmlns:xlink="http://www.w3.org/1999/xlink">
    <!-- Generator: Sketch 3.7.2 (28276) - http://www.bohemiancoding.com/sketch -->
    <title>objsbj-logo</title>
    <desc>Created with Sketch.</desc>
    <defs></defs>
    <g id="Page-1" stroke="none" stroke-width="1" fill="none" fill-rule="evenodd">
        <g id="Home-Copy-5" transform="translate(-135.000000, -146.000000)" fill="#FFFFFF">
            <g id="objsbj-logo" transform="translate(135.000000, 146.109783)">
                <g id="Layer_1" transform="translate(0.000000, -0.000000)">
                    <path d="M23.3792354,0.0251741393 C10.2213169,0.0251741393 0.239447733,8.19215802 0.239447733,18.778989 L0.239447733,26.7947324 C0.239447733,38.5914869 9.31387427,46.3047495 23.3792354,46.3047495 C36.5371539,46.3047495 46.5190231,38.1377656 46.5190231,27.5509346 L46.5190231,19.5351912 C46.5190231,7.7384367 37.4445965,0.0251741393 23.3792354,0.0251741393 L23.3792354,0.0251741393 Z M23.3792354,3.04998299 C34.7222686,3.04998299 42.2842907,8.64587935 43.3429738,17.2665846 L43.3429738,17.2665846 C39.7132032,11.9731691 33.0586237,8.64587935 25.0428803,8.64587935 C17.0271368,8.64587935 10.9775191,13.0318522 10.9775191,18.778989 C10.9775191,24.0724045 15.6659728,28.3071369 22.0180714,28.9120986 L22.0180714,28.9120986 L22.3205523,28.9120986 L22.3205523,28.9120986 L22.3205523,28.9120986 L22.3205523,28.9120986 L22.3205523,28.9120986 L23.3792354,28.9120986 C27.6139678,28.9120986 30.9412575,27.0972133 31.8487002,24.3748854 C32.4536619,25.282328 32.7561428,26.3410111 32.7561428,27.3996942 C32.7561428,31.4831861 28.0676891,34.507995 21.7155905,34.507995 C10.9775191,34.507995 3.26425658,27.8534155 3.26425658,18.6277485 C3.11301614,9.85580289 11.8849618,3.04998299 23.3792354,3.04998299 L23.3792354,3.04998299 Z M24.1354376,20.4426339 C27.009006,20.5938743 28.9751318,21.9550383 28.9751318,23.3162023 C28.9751318,24.6773662 26.5552847,26.1897707 23.227995,26.1897707 L22.4717928,26.1897707 L22.4717928,26.1897707 L22.4717928,26.1897707 C19.4469839,26.0385302 17.4808582,24.5261258 17.4808582,23.3162023 C17.4808582,21.9550383 19.9007052,20.4426339 23.227995,20.4426339 L24.1354376,20.4426339 L24.1354376,20.4426339 L24.1354376,20.4426339 L24.1354376,20.4426339 L24.1354376,20.4426339 L24.1354376,20.4426339 Z M23.227995,43.4311811 C11.8849618,43.4311811 4.32293968,37.8352847 3.26425658,29.0633391 C6.8940272,34.3567545 13.5486067,37.6840443 21.5643501,37.6840443 C29.5800935,37.6840443 35.6297112,33.2980714 35.6297112,27.5509346 C35.6297112,22.4087596 31.2437384,18.3252677 25.1941207,17.5690654 C24.5891589,17.417825 23.9841972,17.417825 23.3792354,17.417825 L23.3792354,17.417825 L23.3792354,17.417825 C19.144503,17.417825 15.8172133,19.2327103 14.9097706,21.9550383 C14.3048089,21.0475956 14.002328,19.9889125 14.002328,18.9302294 C14.002328,14.8467375 18.6907817,11.8219286 25.0428803,11.8219286 C35.7809517,11.8219286 43.4942142,18.4765081 43.4942142,27.7021751 C43.4942142,36.6253612 34.7222686,43.4311811 23.227995,43.4311811 L23.227995,43.4311811 Z" id="Shape"></path>
                </g>
            </g>
        </g>
    </g>
</svg>